<svg xmlns="http://www.w3.org/2000/svg" viewBox="0 0 30 30"><defs><style>.cls-1{fill:#245c33;}.cls-2{fill:#b2b2b2;}</style></defs><title>Recurso 11</title><g id="Capa_2" data-name="Capa 2"><g id="Capa_1-2" data-name="Capa 1"><path class="cls-1" d="M2.15,15A12.85,12.85,0,1,1,15,27.85,12.85,12.85,0,0,1,2.15,15"/><path class="cls-2" d="M15,27.85A12.85,12.85,0,1,1,27.85,15,12.85,12.85,0,0,1,15,27.85M15,0A15,15,0,1,0,30,15,15,15,0,0,0,15,0"/><path class="cls-2" d="M23.6,15.68c-1.12,6.72-5.78,8.21-9.51,7.46S6.62,16.61,8.67,11.38A7.8,7.8,0,0,1,15.3,6.06S11,5.23,8.11,10.73s.84,11.2,3.55,12.6,7.09,1.58,9.8-1.68,2.14-6,2.14-6"/><polyline class="cls-2" points="18.65 19.31 18.66 19.32 18.65 19.31"/><path class="cls-2" d="M18.7,13.76a3.23,3.23,0,0,0-2.47-2.19,3.36,3.36,0,0,1,2,2.33,5.7,5.7,0,0,1-.37,2.62,2.91,2.91,0,0,0,.83,2.79s-.23-.35-.23-1.72,1.12-1.77.28-3.83"/><path class="cls-2" d="M18.52,8.44C14,5.92,10,9.75,10,9.75a4.76,4.76,0,0,1,3.26,1.4,4.08,4.08,0,0,0-2.24,3.17,10.14,10.14,0,0,1-1.49,3.92,10.36,10.36,0,0,0,3.83,1,4,4,0,0,0-.1,1.4c1.21-2,4.29-1.77,4.29-1.77-1.21-.94-.37-2-.37-2.9a2.23,2.23,0,0,0-.93-1.58c1.12,2.42-.19,3.08-1.59,3.64s-3.45-.56-3.45-.56a15.12,15.12,0,0,0,.93-2.8s2.43.46,2.43-.94-2.24-.37-2.24-.37c.19-1.49,2.24-2.05,2.24-2.05a3.61,3.61,0,0,0-2-1.87,2.61,2.61,0,0,1,1.26-.56l.89,1.77V8.81a5.45,5.45,0,0,1,.78,0l.34,1.82L16.27,9a6.85,6.85,0,0,1,.8.27L16.93,11l.77-1.4c.27.14.53.29.81.47L18,11.62l1.29-1.06a6.17,6.17,0,0,1,.74.7l-1,1.29,1.52-.61a6,6,0,0,1,.51.93l-1.38.8h1.67a7.32,7.32,0,0,1,.21.9l-1.42.31,1.53.54c0,.35,0,.7,0,1l-1.29-.07,1.25.91a12.2,12.2,0,0,1-.41,2.35C23,16.19,23,11,18.52,8.44"/></g></g></svg>