<svg xmlns="http://www.w3.org/2000/svg" xmlns:xlink="http://www.w3.org/1999/xlink" viewBox="0 0 30 29.97"><defs><style>.cls-1{fill:none;}.cls-2{clip-path:url(#clip-path);}.cls-3{fill:#612929;}.cls-4{fill:#737a4f;}</style><clipPath id="clip-path" transform="translate(0 0)"><rect class="cls-1" width="30" height="29.97"/></clipPath></defs><title>Recurso 8</title><g id="Capa_2" data-name="Capa 2"><g id="Capa_1-2" data-name="Capa 1"><g class="cls-2"><path class="cls-3" d="M20.09,18.57a8.84,8.84,0,0,0-.84-1.12c-.17-.2-.34-.39-.52-.58a.4.4,0,0,0-.58-.08,7,7,0,0,0-1.1.77c-.12.11-.16.08-.21,0a3.18,3.18,0,0,0-.56-.89.2.2,0,0,1,0-.28,19.32,19.32,0,0,1,2-2.6c.59-.66,1.16-1.33,1.71-2,.11-.13.16-.13.26,0a8.09,8.09,0,0,1,1.64,3.7.23.23,0,0,1-.05.21,14.66,14.66,0,0,0-1.69,2.85l-.05.09" transform="translate(0 0)"/><path class="cls-4" d="M10,18.52c-.15-.32-.3-.62-.46-.92a14.42,14.42,0,0,0-1.21-1.89.44.44,0,0,1-.08-.39,8.1,8.1,0,0,1,1.57-3.54c.15-.19.16-.19.31,0,.79,1,1.66,1.94,2.48,2.92a17.43,17.43,0,0,1,1.19,1.63.23.23,0,0,1,0,.31,3.57,3.57,0,0,0-.55.89c-.05.11-.09.1-.16,0a9.32,9.32,0,0,0-.9-.65L12,16.83c-.36-.21-.51-.19-.8.13a11.1,11.1,0,0,0-1.18,1.48l-.07.08" transform="translate(0 0)"/><path class="cls-3" d="M18.36,17a.15.15,0,0,1,.16.07A8.77,8.77,0,0,1,20.47,20a.17.17,0,0,1,0,.19,7.51,7.51,0,0,0-1.05,1.68.28.28,0,0,1-.13.11,11.68,11.68,0,0,0-1.31.79c-.13.09-.19,0-.28-.05A8.55,8.55,0,0,0,15.58,21a.55.55,0,0,0-.19-.09c-.17,0-.22-.12-.2-.28a.48.48,0,0,0,0-.17,1.1,1.1,0,0,1,.36-1,13.07,13.07,0,0,1,2.51-2.24l.3-.18" transform="translate(0 0)"/><path class="cls-4" d="M14.88,20.4c.08.27-.07.41-.37.56a7.1,7.1,0,0,0-2.08,1.7c-.12.14-.21.16-.36.05A9.55,9.55,0,0,0,10.84,22a.29.29,0,0,1-.15-.16,7,7,0,0,0-.95-1.51.39.39,0,0,1-.06-.44,9.39,9.39,0,0,1,1.89-2.77c.09-.09.16-.05.25,0a9.84,9.84,0,0,1,1.86,1.48,13.66,13.66,0,0,1,1,1.12c.16.2.16.2.16.71" transform="translate(0 0)"/><path class="cls-3" d="M20.76,11.9a3.44,3.44,0,0,0-.28-.36c-.26-.32-.46-.32-.73,0-.42.49-.84,1-1.25,1.49-.1.13-.14.1-.21,0A10.79,10.79,0,0,0,17,11.14a.24.24,0,0,1,0-.3,9.33,9.33,0,0,1,1.68-2.49L19,7.88c.1-.11.16-.1.25,0a6.63,6.63,0,0,1,.86,1.51,9.08,9.08,0,0,1,.63,2.35.34.34,0,0,1,0,.1l0,.05" transform="translate(0 0)"/><path class="cls-4" d="M9.3,11.89a9.1,9.1,0,0,1,.9-3,6,6,0,0,1,.61-1c.07-.09.12-.1.21,0a10,10,0,0,1,2.14,3,.21.21,0,0,1,0,.28A10.59,10.59,0,0,0,11.79,13c-.07.11-.11.15-.21,0-.38-.47-.78-.93-1.16-1.39l-.16-.17a.36.36,0,0,0-.61,0c-.12.13-.22.27-.35.43" transform="translate(0 0)"/><path class="cls-3" d="M15.19,12.83V10.14c0-.05,0-.12,0-.14s.1,0,.14.05a7.55,7.55,0,0,1,1.07,1,10.75,10.75,0,0,1,1.66,2.24.22.22,0,0,1,0,.29,18.11,18.11,0,0,0-2,2.6c0,.08-.08.11-.15,0a1.81,1.81,0,0,0-.65-.47c-.08,0-.05-.11-.05-.17Z" transform="translate(0 0)"/><path class="cls-3" d="M20.72,19.82a9.12,9.12,0,0,0-.4-.83c-.05-.08,0-.15,0-.22a12.47,12.47,0,0,1,1.35-2.42,16.12,16.12,0,0,1,2.18-2.63,4.65,4.65,0,0,1,.59-.49c.05,0,.09-.08.14-.06s0,.1,0,.15A10,10,0,0,1,24,16.5a7.83,7.83,0,0,1-.4.89.5.5,0,0,1-.15.17,11.25,11.25,0,0,0-2.64,2.22l-.05,0" transform="translate(0 0)"/><path class="cls-4" d="M14.87,12.84c0,.88,0,1.77,0,2.65,0,.12,0,.2-.15.24a1.35,1.35,0,0,0-.48.37c-.1.09-.15.12-.23,0a18.06,18.06,0,0,0-2-2.55.19.19,0,0,1-.05-.26,11,11,0,0,1,2.6-3.12l.1-.07c.05,0,.09-.08.14-.06s0,.1,0,.15v2.67" transform="translate(0 0)"/><path class="cls-4" d="M5.52,13.19l.17.11a8.29,8.29,0,0,1,1.46,1.44,16.63,16.63,0,0,1,2.4,3.64c.25.51.25.51,0,1l-.06.11c-.14.31-.13.31-.37.05a11.16,11.16,0,0,0-2.4-2,.4.4,0,0,1-.17-.17,9.83,9.83,0,0,1-1.07-4s0-.12,0-.16" transform="translate(0 0)"/><path class="cls-3" d="M22.14,15.17c-.09-.37-.18-.74-.3-1.09a6,6,0,0,0-.47-1.14,2,2,0,0,1-.26-.93,7.24,7.24,0,0,0-.26-1.45.27.27,0,0,1,0-.27c.3-.41.6-.82.94-1.2.15-.18.15-.18.25,0A8.3,8.3,0,0,1,22.68,11,13.77,13.77,0,0,1,23,14.07a.33.33,0,0,1-.07.23l-.68.82s0,.05-.08.05" transform="translate(0 0)"/><path class="cls-4" d="M7.93,15.17a7.39,7.39,0,0,0-.55-.66,1,1,0,0,1-.26-.73,13,13,0,0,1,.71-4.24c.06-.16.14-.32.21-.48s.08-.1.14,0a13.46,13.46,0,0,1,1,1.33.18.18,0,0,1,0,.16,9.35,9.35,0,0,0-.3,1.82.69.69,0,0,1-.08.28A8.66,8.66,0,0,0,8,15a.51.51,0,0,1,0,.14" transform="translate(0 0)"/><path class="cls-3" d="M20.15,23c.13-.28.26-.55.4-.83l.08-.2a.3.3,0,0,0-.05-.34.3.3,0,0,0-.32-.07,3.73,3.73,0,0,0-.48.18,10.69,10.69,0,0,1,4.27-4.14,9,9,0,0,1-3.9,5.4" transform="translate(0 0)"/><path class="cls-4" d="M10.22,21.65,10,21.54a.39.39,0,0,0-.46,0c-.14.14-.08.3,0,.46s.27.59.43.92a6.64,6.64,0,0,1-1.22-.9,10.3,10.3,0,0,1-2.6-4.3s0-.11,0-.14.1,0,.14,0A10.58,10.58,0,0,1,10,21.3a1,1,0,0,1,.18.35" transform="translate(0 0)"/><path class="cls-3" d="M15.19,9a1.71,1.71,0,0,0,0-.32.48.48,0,0,1,.27-.51,6.05,6.05,0,0,1,1.06-.58.4.4,0,0,1,.48.08,3.68,3.68,0,0,1,.79.93.17.17,0,0,1,0,.22,8.06,8.06,0,0,0-1.1,1.79c0,.1-.07.1-.15,0l-.7-.66a1.28,1.28,0,0,0-.53-.33.12.12,0,0,1-.1-.14c0-.17,0-.34,0-.51Z" transform="translate(0 0)"/><path class="cls-4" d="M14.87,9v.49c0,.06,0,.12-.07.14a2.53,2.53,0,0,0-.86.62c-.13.11-.25.24-.37.36s-.1.08-.15,0a8,8,0,0,0-1.09-1.77.17.17,0,0,1,0-.22,3.68,3.68,0,0,1,.84-1,.31.31,0,0,1,.34-.06,4.9,4.9,0,0,1,1.28.72.3.3,0,0,1,.1.25c0,.15,0,.3,0,.45Z" transform="translate(0 0)"/><path class="cls-3" d="M15.19,22.75V21.32c0-.2,0-.21.21-.11a6.72,6.72,0,0,1,1.17.83,9.35,9.35,0,0,1,.9.88c.08.08.09.12,0,.19a5.29,5.29,0,0,0-1.22,1.14.17.17,0,0,1-.16.07l-.73,0c-.13,0-.16,0-.16-.16,0-.48,0-1,0-1.45" transform="translate(0 0)"/><path class="cls-4" d="M14.87,22.76c0,.48,0,1,0,1.44,0,.11,0,.16-.15.15l-.69,0a.2.2,0,0,1-.18-.07,5.5,5.5,0,0,0-1.22-1.14c-.09-.07-.07-.11,0-.18a8.73,8.73,0,0,1,1.91-1.62c.09-.05.2-.16.29-.1s0,.18,0,.28c0,.42,0,.85,0,1.28" transform="translate(0 0)"/><path class="cls-3" d="M16.63,24.21a11.9,11.9,0,0,1,3.69-2.39,6.52,6.52,0,0,1-.48,1.11,1.05,1.05,0,0,1-.56.52,9.07,9.07,0,0,1-2.53.79h-.09l0,0" transform="translate(0 0)"/><path class="cls-3" d="M2.8,7l0,0,.63.81s.07,0,.1,0l.31-.47s.06-.09,0-.12L2.8,7M2.37,9.27A.34.34,0,0,0,2.27,9a.71.71,0,0,0-.63-.22.76.76,0,0,0-.38.56.09.09,0,0,0,.07.1l.75.34s.09.05.12,0a1.43,1.43,0,0,0,.17-.49M3,10.87s0,0,0-.07c.08-.25.08-.24-.16-.35l-1.59-.7c-.14-.06-.2,0-.24.1s0,.1-.08.07,0-.07,0-.11c.15-.33.29-.67.46-1a.55.55,0,0,1,.9-.19.61.61,0,0,1,.19.63.62.62,0,0,1,.71-.17l.23,0c.16,0,.29.05.39-.13a.36.36,0,0,0,0-.45C3.37,8,3,7.48,2.58,6.94c-.05-.06-.12-.11-.05-.21s.15-.05.22,0l2,.51c.12,0,.23.08.31-.06s0,0,.07,0,0,0,0,.06c-.13.2-.26.4-.4.6,0,0,0,0-.06,0s0,0,0-.07.13-.15.07-.21-.15-.07-.24-.09S4.12,7.3,4,7.36s-.19.24-.28.37-.19.28,0,.55l.1.14c.15.2.15.2.32,0,0,0,.05-.06.08,0s0,.06,0,.09a4.15,4.15,0,0,0-.47.82c0,.11-.14.11-.23.1L3,9.32c-.42-.07-.52.1-.68.47a.07.07,0,0,0,.06.1l.79.36c.13.06.14-.05.18-.12s0-.13.09-.1,0,.09,0,.13c-.08.2-.17.39-.26.58s0,.1-.11.13" transform="translate(0 0)"/><path class="cls-4" d="M13.38,24.21a6.74,6.74,0,0,1-1.83-.46l-1-.41a.47.47,0,0,1-.2-.17,8.14,8.14,0,0,1-.61-1.26s0,0,0-.09a11.55,11.55,0,0,1,3.6,2.39" transform="translate(0 0)"/><path class="cls-3" d="M15.22,19.37a.35.35,0,0,1,0-.19v-3s0-.1,0-.12.09,0,.12,0a4.13,4.13,0,0,1,1.27,1.68c0,.07.06.13,0,.2a15.27,15.27,0,0,0-1.37,1.41" transform="translate(0 0)"/><path class="cls-4" d="M14.86,19.34c-.07-.08-.13-.14-.18-.21A15.19,15.19,0,0,0,13.55,18a.18.18,0,0,1-.07-.23,4.31,4.31,0,0,1,1.25-1.65s.07-.07.12-.05,0,.07,0,.11v3.09a.28.28,0,0,1,0,.08" transform="translate(0 0)"/><path class="cls-3" d="M15.19,25.19c0-.1,0-.2,0-.3s0-.24.22-.24a9.7,9.7,0,0,0,2-.24c.1,0,.23-.12.29,0s0,.21-.07.31a.91.91,0,0,1-.56.57,9.75,9.75,0,0,1-1.77.44c-.1,0-.13,0-.13-.11S15.19,25.32,15.19,25.19Z" transform="translate(0 0)"/><path class="cls-4" d="M14.87,25.18v.37c0,.1,0,.14-.13.12a9.94,9.94,0,0,1-1.69-.42,1,1,0,0,1-.67-.77c0-.1,0-.13.09-.1a11.48,11.48,0,0,0,2.26.3c.11,0,.15,0,.15.15s0,.24,0,.35" transform="translate(0 0)"/><path class="cls-3" d="M15.86,7.49a3.15,3.15,0,0,1,.38-1.33c.08-.13.14-.15.28,0a5.56,5.56,0,0,1,1.64,2.11c0,.06.05.1,0,.16s-.11.13-.19,0a3.72,3.72,0,0,0-.83-.94.62.62,0,0,0-.66-.12L16,7.55c-.1,0-.14,0-.13-.06" transform="translate(0 0)"/><path class="cls-3" d="M27.39,6.65s-.05,0-.06,0c-.16-.18-.16-.18-.35-.05l-.55.36c-.07,0-.08.08,0,.15.16.24.32.48.47.72.05.08.09.07.16,0s.38-.27.58-.39.19-.15.07-.28-.07-.07,0-.11.07,0,.09.06l.4.62s0,0,0,.07-.06,0-.07,0c-.08-.19-.18-.17-.33-.06-.48.34-1,.67-1.47,1-.13.08-.16.15-.06.27s.05,0,0,.09-.08,0-.11-.07l-.37-.57s-.07-.07,0-.11.08,0,.09,0c.08.19.18.14.31.05s.4-.27.6-.4.11-.09.05-.18-.31-.46-.46-.7c0-.07-.09-.08-.16,0-.22.15-.44.3-.67.44s-.14.14-.05.25.09.07,0,.11-.07,0-.09-.06L25,7.29s-.08-.07,0-.13,0,0,.06,0c.16.18.16.18.37,0l1.44-1c.11-.07.17-.14.06-.26s-.06-.06,0-.1.07,0,.09.05l.44.67,0,0" transform="translate(0 0)"/><path class="cls-4" d="M14.22,7.57l-.54-.24a.7.7,0,0,0-.8.14,4.63,4.63,0,0,0-.77.88s0,.13-.12.08a.13.13,0,0,1-.06-.19c.09-.16.16-.33.25-.48a5.3,5.3,0,0,1,1.41-1.64c.07-.06.13-.1.2,0a3.11,3.11,0,0,1,.43,1.45" transform="translate(0 0)"/><path class="cls-3" d="M12.64,1.75a2,2,0,0,0-.16-.66.84.84,0,0,0-1.2-.5c-.08,0-.1.07-.08.16.14.62.29,1.24.43,1.86,0,.08,0,.12.14.11a.87.87,0,0,0,.87-1M11.81.39a1,1,0,0,1,1,.61,1.92,1.92,0,0,1,.15.67,1,1,0,0,1-.7,1c-.34.11-.7.17-1.05.26,0,0-.09,0-.1,0s0-.05.08-.05.17-.12.14-.26c-.13-.58-.27-1.15-.39-1.73,0-.15-.07-.25-.25-.17,0,0-.07,0-.09,0s0,0,0-.06A9.7,9.7,0,0,1,11.81.39" transform="translate(0 0)"/><path class="cls-3" d="M1.39,11c-.51,0-.78.12-.88.45a.65.65,0,0,0,.38.81,2.35,2.35,0,0,0,1.2.27.64.64,0,0,0,.33-1.19,2.23,2.23,0,0,0-1-.34m.37,1.84a1.68,1.68,0,0,1-.87-.24,1,1,0,0,1,.44-1.91,1.91,1.91,0,0,1,.92.2,1,1,0,0,1,.53,1.21,1,1,0,0,1-1,.74" transform="translate(0 0)"/><path class="cls-3" d="M27.44,10.54a2.08,2.08,0,0,0,1.27-.63.64.64,0,0,0-.46-1,2.14,2.14,0,0,0-1.41.59.58.58,0,0,0-.12.7.64.64,0,0,0,.72.38m1.54-1a1,1,0,0,1-.32.8,1.64,1.64,0,0,1-1.06.45.91.91,0,0,1-.93-.53,1,1,0,0,1,.11-1.13,1.53,1.53,0,0,1,1.34-.53,1,1,0,0,1,.86.94" transform="translate(0 0)"/><path class="cls-3" d="M7.57,4.48A2,2,0,0,0,6.48,3.05a.63.63,0,0,0-.79.68,2,2,0,0,0,1,1.33.63.63,0,0,0,.9-.58M6.49,2.87A.88.88,0,0,1,7,3a1.62,1.62,0,0,1,.77,1.1.94.94,0,0,1-.43,1,.92.92,0,0,1-1,.06,1.61,1.61,0,0,1-.79-1,1,1,0,0,1,1-1.25" transform="translate(0 0)"/><path class="cls-3" d="M22.26,21.65a11.72,11.72,0,0,0,1.41-2.26.68.68,0,0,1,.12-.12,5.32,5.32,0,0,1,.61-.35c.07,0,.15-.12.22-.07s0,.15-.05.21a3.83,3.83,0,0,1-.78,1.28,7.05,7.05,0,0,1-1.46,1.27l-.07,0" transform="translate(0 0)"/><path class="cls-3" d="M7.68,2.21c.11.24.23.46.34.68s.33.63.48,1c.07.14.14.21.29.1s.09-.07.12,0,0,.06-.07.08l-.47.24s-.07.06-.11,0,0-.07.06-.08.16-.17.08-.31c-.27-.53-.54-1.06-.8-1.59-.07-.13-.13-.18-.27-.09s-.09.07-.12,0,.06-.06.09-.08a.65.65,0,0,1,.9,0c.47.36,1,.65,1.5,1,0-.07,0-.1,0-.15C9.44,2.5,9.2,2.05,9,1.58c-.06-.13-.14-.17-.27-.08s-.09.07-.12,0,.05-.07.08-.09l.46-.23s.06,0,.08,0,0,.05,0,.06c-.19.07-.14.18-.07.32L10,3.27s.1.11,0,.18a.19.19,0,0,1-.24,0L7.85,2.28s-.09-.07-.17-.07" transform="translate(0 0)"/><path class="cls-3" d="M20.71,10a7.83,7.83,0,0,0-.66-1.5.17.17,0,0,1,0-.17c.09-.2.18-.4.29-.6s.11-.09.17,0a5.43,5.43,0,0,1,.73,1.49.13.13,0,0,1,0,.12l-.51.66" transform="translate(0 0)"/><path class="cls-4" d="M7.78,21.59A5.49,5.49,0,0,1,5.46,18.9l0,0c.39.19.81.33,1,.78a8.73,8.73,0,0,0,1.15,1.8l.11.15" transform="translate(0 0)"/><path class="cls-4" d="M9.37,10l-.48-.61a.15.15,0,0,1,0-.13,5.49,5.49,0,0,1,.7-1.44c.08-.12.13-.11.2,0a4.34,4.34,0,0,1,.25.54.17.17,0,0,1,0,.14A7.47,7.47,0,0,0,9.37,10" transform="translate(0 0)"/><path class="cls-3" d="M13.16.13a1.08,1.08,0,0,1,.35,0L14.76,0c.1,0,.15,0,.15.13s0,.29,0,.44,0,.09-.06.09,0-.05,0-.08V.37c0-.2-.1-.27-.29-.26l-.63,0c-.1,0-.14,0-.13.15s0,.51.05.76,0,.15.16.14l.19,0c.17,0,.23-.09.23-.25a.48.48,0,0,1,0-.12s0-.06,0-.06,0,0,.05,0c0,.28,0,.55,0,.83,0,0,0,0,0,0s0,0-.05,0v0c-.07-.33-.19-.4-.52-.32-.07,0-.08.05-.08.11,0,.3,0,.59.05.88,0,.09,0,.11.12.1l.69,0c.18,0,.25-.11.25-.3a2.45,2.45,0,0,0,0-.27s0-.07,0-.07.06,0,.06,0c0,.21,0,.41,0,.62s-.06,0-.1.06l-1.53.09s-.12,0-.13,0,.08,0,.12,0,.17-.05.16-.18C13.54,1.58,13.5,1,13.46.33c0-.12-.05-.17-.17-.15a.11.11,0,0,1-.13,0" transform="translate(0 0)"/><path class="cls-3" d="M24,17.21c.09-.22.17-.43.26-.64a.23.23,0,0,1,.11-.11l.63-.3c.13-.06.17,0,.16.12a2.61,2.61,0,0,1-.24,1,4.13,4.13,0,0,1-.84,1.27c.07-.22.14-.44.22-.65s.05-.17.07-.26c.06-.25-.06-.38-.37-.41" transform="translate(0 0)"/><path class="cls-3" d="M19.81,8.08l-.29-.37a.43.43,0,0,0-.39-.22c-.07,0-.09,0-.11-.09-.12-.19-.23-.38-.36-.57a.12.12,0,0,1,0-.17A5,5,0,0,0,19,6.24c.07-.08.11-.07.18,0a3.55,3.55,0,0,1,.7,1.1.62.62,0,0,1-.1.74" transform="translate(0 0)"/><path class="cls-3" d="M4.47,4.5c-.24.26-.46.49-.67.74a.2.2,0,0,0,0,.3l.21.2s0,.06,0,.09,0,0-.08,0l-.39-.37s0-.08,0-.12c.33-.36.65-.72,1-1.07.12-.12.13,0,.15.09.1.37.19.74.28,1.11s.2.78.29,1.17c0,.14.08.14.16,0s.38-.4.56-.61.14-.28,0-.44a1.37,1.37,0,0,1-.17-.17s-.06,0,0-.09.06,0,.09,0l.42.4c.06.05,0,.09,0,.13L5.25,7c-.13.14-.15,0-.17-.08-.1-.39-.2-.78-.29-1.16S4.58,5,4.47,4.5" transform="translate(0 0)"/><path class="cls-4" d="M10.28,8.05a.61.61,0,0,1-.07-.77,4,4,0,0,1,.6-1c.1-.11.18-.15.28,0s.28.25.33.41-.16.27-.23.42a1.4,1.4,0,0,0-.09.17.25.25,0,0,1-.25.17.36.36,0,0,0-.27.18l-.3.39" transform="translate(0 0)"/><path class="cls-4" d="M6.06,17.2c-.33,0-.42.18-.33.49s.16.51.25.81a4.32,4.32,0,0,1-.77-1.19,2.79,2.79,0,0,1-.26-1c0-.19,0-.21.19-.14a.37.37,0,0,0,.14.07c.48.12.66.5.78.94" transform="translate(0 0)"/><path class="cls-3" d="M29.63,13.86v0l-1-.25c-.08,0-.1,0-.09.08s0,.37,0,.56,0,.1.09.07l1-.42m-1.93.5c.09.08,0,.25.13.27s.18-.07.27-.11c.42-.17.42-.17.37-.63s0-.37-.37-.45a.9.9,0,0,0-.34-.07c-.16,0,0,.21-.15.31a2.23,2.23,0,0,1,0-.68c.09.29.34.27.55.33l1.72.45c.08,0,.15,0,.16.14s-.08.12-.14.15l-1.75.78c-.16.07-.36.1-.33.37a1.51,1.51,0,0,1-.08-.86" transform="translate(0 0)"/><path class="cls-3" d="M17.41.59h0c-.17.3-.33.6-.49.9-.05.09,0,.09.07.1s.33,0,.49.09.14,0,.13-.13c-.06-.32-.11-.63-.16-.95m-.7,1.88a2.4,2.4,0,0,1-.6-.06l0,0s0-.05.07-.05.2-.09.26-.2c.33-.59.65-1.18,1-1.77,0-.07.06-.14.17-.12s.1.08.12.16c.11.68.22,1.36.34,2,0,.11,0,.23.17.25s.05,0,0,.06,0,0,0,0a6.2,6.2,0,0,1-.75-.14c0-.07,0-.06.08-.06.23,0,.23,0,.19-.22s0-.19-.05-.29c0-.26,0-.26-.31-.31l-.19,0c-.35-.06-.35-.06-.52.26l0,.06c-.15.28-.15.28.12.44" transform="translate(0 0)"/><path class="cls-3" d="M27.36,12.26a7.92,7.92,0,0,1-.24-1c.05,0,.07,0,.08,0,.09.24.09.24.34.17l1.66-.42c.14,0,.23-.07.15-.23s0-.08,0-.09.06,0,.07.08c.11.48.23,1,.35,1.45,0,.05,0,.1-.06.12l-.49.12s-.08,0-.08,0,0-.05.07-.06l.24-.07a.22.22,0,0,0,.17-.3c-.05-.2-.09-.4-.14-.6s-.06-.11-.15-.09l-.8.2s-.08,0-.08,0a.85.85,0,0,0,.11.42c.07.1.17.07.27,0s.11,0,.13,0-.06.07-.11.08-.41.11-.63.15c0,0-.1,0-.12,0s.05-.06.09-.08.22,0,.24-.15a.85.85,0,0,0-.08-.42c0-.06-.1,0-.14,0l-.71.17c-.16,0-.2.1-.14.25a.19.19,0,0,1,0,.2" transform="translate(0 0)"/><path class="cls-3" d="M23.76,3.3l0,0-.84.57c-.07,0,0,.09,0,.12l.27.2c.25.2.25.2.35-.11s.17-.51.25-.76M22.28,4.7l-.5-.37s0,0,0-.06a0,0,0,0,1,.07,0,.26.26,0,0,0,.32,0c.56-.39,1.13-.77,1.69-1.14.07-.05.12-.09.2,0s.05.13,0,.21l-.63,2c0,.11-.07.21.05.29s0,.05,0,.08-.05,0-.08,0l-.54-.42s-.06,0,0-.06.06,0,.09,0c.2.09.21.09.27-.12s.2-.36.14-.52-.26-.22-.4-.33-.22-.17-.45,0l-.23.16c-.17.12-.17.13,0,.29s.06,0,0,.13" transform="translate(0 0)"/><path class="cls-4" d="M23.14,25.08c-.21,0-.33.13-.47.24a.14.14,0,0,0,0,.23l.24.31c.25.33.25.33.54,0a.39.39,0,0,0,.11-.45.54.54,0,0,0-.4-.36m1.12,1.27a.64.64,0,0,0-.34-.46.44.44,0,0,0-.52.08,1.09,1.09,0,0,1-.17.13c-.08,0-.08.1,0,.17l.39.5c.16.22.16.22.38.05a.53.53,0,0,0,.28-.47m-2.11-.67a6.22,6.22,0,0,1,.91-.69.39.39,0,0,1,.51.07.47.47,0,0,1,.11.56l-.08.12c0,.05.09,0,.13,0a.46.46,0,0,1,.59.17.5.5,0,0,1,0,.63,3.42,3.42,0,0,1-.67.59,1.19,1.19,0,0,1-.29.18s0,0,0,0c.17-.09.13-.18,0-.3l-.9-1.17c-.16-.21-.16-.21-.39-.12" transform="translate(0 0)"/><path class="cls-4" d="M25.87,22.1c-.28,0-.37.21-.47.39a.12.12,0,0,0,.05.19l.42.28c.25.17.25.17.42-.08a.43.43,0,0,0,.06-.48.59.59,0,0,0-.48-.3m1.28,1.43c-.14.2-.27.4-.41.59.09-.22.09-.22-.12-.36l-1.32-.88c-.14-.11-.19,0-.26.08a5.4,5.4,0,0,1,.67-1,.42.42,0,0,1,.54,0,.46.46,0,0,1,.25.5c0,.12,0,.2.13.11a.41.41,0,0,1,.36,0l.34.13a.27.27,0,0,0,.37-.08c-.1.34-.19.38-.48.28a3.61,3.61,0,0,0-.46-.17.5.5,0,0,0-.57.38c0,.06,0,.08.07.1l.61.42c.08.06.13,0,.18,0a.86.86,0,0,1,.07-.1l0,0" transform="translate(0 0)"/><path class="cls-4" d="M14.36,28.86c.31,0,.45-.09.5-.33.1-.45-.13-.69-.59-.64-.14,0-.17.07-.17.19a3.62,3.62,0,0,1,0,.47c0,.3,0,.31.28.31m-.08,1.05h-.72c.08-.08.2,0,.23-.09a1.64,1.64,0,0,0,0-.23c0-.49,0-1,.06-1.49,0-.14,0-.28-.2-.27h.1l.86,0c.3,0,.46.15.49.4a.5.5,0,0,1-.36.6l-.11,0c.38.16.36.48.42.78a.3.3,0,0,0,.27.28c-.37.06-.43,0-.49-.29,0-.13,0-.25-.07-.38-.08-.35-.29-.41-.63-.39-.08,0-.08.08-.08.13l0,.57c0,.27,0,.27.24.32" transform="translate(0 0)"/><path class="cls-4" d="M3.75,22.91c-.07-.08-.14-.06-.21,0a6,6,0,0,0-.65.48c-.05.06-.08,0-.11,0L2.54,23c.07,0,.08,0,.1.07s.1.09.18,0l1.44-1.06s0-.06,0-.16a6.37,6.37,0,0,1,.56.83.44.44,0,0,1-.12.57.51.51,0,0,1-.61.05s0-.06-.13-.05c.11.37-.18.56-.38.79a.26.26,0,0,0,0,.35c-.29-.21-.3-.31-.1-.53s.13-.16.2-.23A.54.54,0,0,0,3.79,23a2.29,2.29,0,0,0,.21.23.39.39,0,0,0,.28.09.67.67,0,0,0,.48-.41.67.67,0,0,0-.25-.57.11.11,0,0,0-.14,0l-.59.42a.12.12,0,0,0,0,.18" transform="translate(0 0)"/><path class="cls-3" d="M22.46,2.23c.09,0,.11-.16.19-.09s0,.13-.07.19-.13.28-.2.41,0,.07-.08,0,0-.06,0-.09a1.54,1.54,0,0,0,.05-.17A.62.62,0,0,0,22,1.84a.62.62,0,0,0-.78,0,1.91,1.91,0,0,0-.66,1.3.62.62,0,0,0,.42.66.62.62,0,0,0,.74-.2.44.44,0,0,0,.08-.11s.05,0,.08,0,0,.05,0,.07a.72.72,0,0,1-.83.38.94.94,0,0,1-.75-1,1.62,1.62,0,0,1,.59-1.19,1,1,0,0,1,1.53.43" transform="translate(0 0)"/><path class="cls-3" d="M26.3,5.46c.09,0,.13-.09.23,0-.15.19-.34.34-.5.51a.06.06,0,0,1-.08,0s0,0,0-.07.09-.12.13-.19a.61.61,0,0,0,0-.72.63.63,0,0,0-.72-.22,1.83,1.83,0,0,0-1.09,1,.63.63,0,0,0,.2.77.66.66,0,0,0,.76,0l.07,0s.08-.06.11,0,0,.07-.05.09a.75.75,0,0,1-1.07-.1,1,1,0,0,1-.1-1.24,1.51,1.51,0,0,1,1-.75,1,1,0,0,1,1.13.91.43.43,0,0,1,0,0" transform="translate(0 0)"/><path class="cls-3" d="M.3,13.31c0-.08-.18,0-.15-.13s.14,0,.21,0l.42,0s.1,0,.1.05-.06.06-.1.07a.86.86,0,0,0-.17,0,.59.59,0,0,0-.49.51.61.61,0,0,0,.31.68,1.82,1.82,0,0,0,1.48.13A.62.62,0,0,0,2.36,14a.65.65,0,0,0-.49-.61l-.11,0s-.06,0-.05-.07.05,0,.08,0a.73.73,0,0,1,.66.61,1,1,0,0,1-1,1.18,1.54,1.54,0,0,1-1.1-.25,1,1,0,0,1-.11-1.47l0,0" transform="translate(0 0)"/><path class="cls-3" d="M18.28,2.75h0c.28,0,.29,0,.38-.27.17-.53.34-1.06.52-1.58,0-.13.05-.21-.11-.24S19,.64,19,.58s.07,0,.1,0l.73.24s.08,0,.06.07,0,0-.08,0c-.28-.06-.28-.06-.36.21-.19.55-.37,1.1-.55,1.65,0,.12,0,.17.1.2l.5.16c.23.07.32,0,.4-.2L20,2.69s0-.07.07-.06,0,.06,0,.09l-.18.55a.07.07,0,0,1-.11,0l-1.48-.5s-.05,0,0-.07" transform="translate(0 0)"/><path class="cls-3" d="M18.42,8.07a7.58,7.58,0,0,0-1-1.48c-.11-.14.08-.22.14-.32s.12,0,.18,0a4,4,0,0,1,1.05,1.3.13.13,0,0,1,0,.17l-.33.32" transform="translate(0 0)"/><path class="cls-4" d="M12.45,6.22a.77.77,0,0,1,.22.26c.05.06,0,.09,0,.13a6.92,6.92,0,0,0-.9,1.31c-.05.1-.09.12-.18,0-.31-.33-.31-.22-.08-.62a3.67,3.67,0,0,1,.84-1l.14-.11" transform="translate(0 0)"/><path class="cls-4" d="M2.4,19.1a.57.57,0,0,1-.54.54.57.57,0,0,1-.54-.54.54.54,0,0,1,.55-.53.53.53,0,0,1,.53.53" transform="translate(0 0)"/><path class="cls-4" d="M28.3,19.43a.55.55,0,0,1-.53-.55.54.54,0,0,1,.54-.53.56.56,0,0,1,.53.51.55.55,0,0,1-.54.57" transform="translate(0 0)"/><path class="cls-3" d="M15.2,5.77a3.42,3.42,0,0,1,.58.45.14.14,0,0,1,0,.16,2.74,2.74,0,0,0-.23,1.12c0,.29-.16.38-.37.5Z" transform="translate(0 0)"/><path class="cls-4" d="M14.87,8a.47.47,0,0,1-.34-.49,2.73,2.73,0,0,0-.21-1.05.21.21,0,0,1,.07-.27c.12-.09.24-.2.37-.29s.11,0,.11.07V8" transform="translate(0 0)"/><path class="cls-3" d="M17.28,5.33l.15,0a5.12,5.12,0,0,1,1.1.81c.13.12,0,.17-.06.24s-.11,0-.16,0L17.9,6c-.25-.2-.4-.18-.6.07s-.14.13-.22,0-.21-.24-.31-.36-.09-.07,0-.11a2.16,2.16,0,0,1,.54-.29" transform="translate(0 0)"/><path class="cls-4" d="M5.51,26.41l.37-.47h0a2.35,2.35,0,0,0-.11.35.52.52,0,0,0,.33.6.44.44,0,0,0,.56-.21.42.42,0,0,0,0-.43c-.08-.16-.19-.31-.27-.47A.55.55,0,0,1,6.69,25a.63.63,0,0,1,.78.41c0,.17,0,.17.25.09L7.34,26c0-.1,0-.16,0-.23a.51.51,0,0,0-.32-.69.41.41,0,0,0-.42.12.37.37,0,0,0-.07.41,2.18,2.18,0,0,0,.28.46.58.58,0,0,1,0,.62.6.6,0,0,1-.59.33.79.79,0,0,1-.59-.49c0-.18,0-.18-.21-.12" transform="translate(0 0)"/><path class="cls-4" d="M24.43,24.09c-.07,0-.05.06,0,.1l.39.73c0,.09.09.09.16,0s.19-.21.29-.32.08-.13,0-.18l-.7-.32-.08,0m2,.49-.45.5a.28.28,0,0,1,0-.06c.13-.19.13-.19-.08-.29-.45-.2-.45-.2-.79.15-.19.2-.19.2-.06.44l.07.13c.13.26.13.26.4.11a2.3,2.3,0,0,1-.37.39c.09-.15,0-.26,0-.38L24.26,24c0-.07-.1-.13,0-.21s.13,0,.19,0l1.65.74a.29.29,0,0,0,.31,0" transform="translate(0 0)"/><path class="cls-4" d="M11.59,27.41l.69.15c-.11,0-.21,0-.27,0a.66.66,0,0,0-.06.25c-.07.37-.16.73-.23,1.1a.56.56,0,0,0,.69.7.46.46,0,0,0,.4-.38c.11-.45.2-.89.29-1.34,0-.17-.09-.19-.21-.25l.52.11c-.18,0-.24.07-.27.23-.06.37-.14.75-.23,1.11a.73.73,0,0,1-1.26.38.66.66,0,0,1-.15-.64c.07-.38.15-.75.23-1.13,0-.15.08-.29-.14-.33" transform="translate(0 0)"/><path class="cls-4" d="M12.81,5.34a2.16,2.16,0,0,1,.51.29s0,.08,0,.11-.22.25-.32.39-.09,0-.13,0A.57.57,0,0,0,12.72,6a.33.33,0,0,0-.47,0,3.42,3.42,0,0,0-.49.44c-.08.09-.13,0-.17,0s-.12-.09,0-.17a5.09,5.09,0,0,1,1.12-.83l.13,0" transform="translate(0 0)"/><path class="cls-4" d="M18,27.79s-.07,0-.07,0-.16-.17-.32-.09a.5.5,0,0,1,.71,0l1.2,1.13s.06.09.14.08c0-.27-.15-.52-.21-.78s-.12-.4-.17-.6-.07-.27-.39-.22a2.72,2.72,0,0,1,.56-.17c-.22.06-.17.19-.13.34.16.52.31,1,.46,1.57,0,.05.06.12,0,.17s-.14,0-.2-.05l-1.37-1.27a.87.87,0,0,0-.15-.13c-.08,0-.07,0-.06.08Z" transform="translate(0 0)"/><path class="cls-4" d="M3.91,24.89c.23.11.23.11.43-.09s.68-.69,1-1c.11-.11.19-.21,0-.35l.37.37c.17.18.35.36.52.55s.16.19-.11.34c.19-.25,0-.37-.11-.51A.86.86,0,0,1,6,24c-.25-.24-.26-.25-.5,0A4.55,4.55,0,0,1,5,24.5c-.22.18-.4.4-.62.57s-.11.17,0,.26.25.25.38.38a.24.24,0,0,0,.38,0l.19-.18,0,0a4.4,4.4,0,0,1-.38.37s-.08,0-.11,0a.12.12,0,0,1,0,0l-.93-1" transform="translate(0 0)"/><path class="cls-4" d="M16.35,29.08l.47-.06c.07,0,.12,0,.08-.12-.12-.25-.25-.51-.37-.77,0,0,0-.06-.06-.05s0,0,0,.07l-.18.8c0,.09,0,.14.1.13m1.33.66-.61.07c0-.07.06,0,.09-.06s.11-.07.07-.16a3.23,3.23,0,0,1-.2-.42c0-.09-.08-.13-.18-.11l-.19,0c-.14,0-.34,0-.43.08a1.08,1.08,0,0,0-.11.42c-.05.23,0,.25.24.29a1.6,1.6,0,0,1-.52.06c.16-.06.18-.18.21-.32.12-.56.24-1.12.37-1.68,0-.06,0-.16.11-.17s.12.09.15.15c.26.53.51,1.06.76,1.58.06.11.1.21.24.24" transform="translate(0 0)"/><path class="cls-4" d="M10.32,27.42c0-.05.06-.13,0-.15s-.08.06-.12.09l-.47.57c-.07.08-.08.13,0,.17l.41.16c.1,0,.15,0,.15-.1v-.74m.31,1.87a2.27,2.27,0,0,1-.55-.2c.21,0,.2,0,.21-.2s0-.27,0-.41a.15.15,0,0,0-.12-.18,2.86,2.86,0,0,1-.41-.15.19.19,0,0,0-.29.08l-.15.18c-.18.22-.18.22.06.42l-.5-.19a.42.42,0,0,0,.35-.22c.36-.44.73-.87,1.09-1.3.05-.05.08-.13.17-.1s.07.12.07.19c0,.6,0,1.21-.05,1.81,0,.11,0,.22.11.27" transform="translate(0 0)"/><path class="cls-4" d="M7.34,27.77c.27.09.27.09.43-.18l.73-1.26c.06-.11.08-.2-.06-.26s0,0,0,0c-.29-.2-.37-.18-.54.12,0,0,0,.1-.15.13.11-.18.19-.34.28-.48s.11,0,.16,0l1.18.69c.06,0,.11.07.07.15l-.27.46c0-.14.05-.19.08-.26s.09-.3-.11-.42-.28-.18-.45.11L7.9,27.82c-.08.14-.08.23.08.3a3.06,3.06,0,0,1-.64-.35" transform="translate(0 0)"/><path class="cls-4" d="M21.25,26.46a.64.64,0,0,0-.55.11c-.09.05-.12.09-.07.19.25.51.48,1,.72,1.52,0,.11.11.15.22.08a.28.28,0,0,1,.13,0,5,5,0,0,1-.73.36v0c.23-.13.23-.13.12-.38-.21-.46-.43-.91-.64-1.37-.06-.13-.13-.18-.27-.1a.8.8,0,0,1-.16.08.24.24,0,0,0-.13.36c0,.08.07.17.11.25l-.05,0L19.73,27c0-.06,0-.07.06-.09l1.29-.63c.13-.06.17,0,.16.14Z" transform="translate(0 0)"/><path class="cls-3" d="M23.26,13.88a14.57,14.57,0,0,0-.06-1.5c0-.1.06-.06.1,0a.81.81,0,0,1,.35.31,1.22,1.22,0,0,1,.14.28c.13.34.13.34-.13.58l-.4.37" transform="translate(0 0)"/><path class="cls-3" d="M16.43,5.75a.42.42,0,0,0-.38.18c0,.07-.08.06-.13,0a2.69,2.69,0,0,0-.65-.47.13.13,0,0,1-.08-.13V4.91c0-.09,0-.1.11-.06a5,5,0,0,1,1.13.9" transform="translate(0 0)"/><path class="cls-4" d="M13.69,5.74a4.85,4.85,0,0,1,1.09-.86c.05,0,.09,0,.09,0V5a.5.5,0,0,1-.3.62,1.69,1.69,0,0,0-.38.28c0,.05-.1.1-.16,0a.41.41,0,0,0-.34-.16" transform="translate(0 0)"/><path class="cls-4" d="M6.86,12.35a14.64,14.64,0,0,0-.05,1.5l-.56-.53a.11.11,0,0,1,0-.08,1.13,1.13,0,0,1,.61-.89h0" transform="translate(0 0)"/><path class="cls-4" d="M18,27.8c.15.51.31,1,.44,1.53.06.21.2.12.32.14l-.54.16c.29-.1.17-.29.12-.47L18,28c0-.06-.05-.12,0-.17h0" transform="translate(0 0)"/><path class="cls-3" d="M5.64,2.7V2.6c0-.11,0-.22.15-.2s0,.13,0,.2,0,.24,0,.36,0,.07-.07.07,0,0,0-.07a2.34,2.34,0,0,1,0-.26h0" transform="translate(0 0)"/><path class="cls-4" d="M5.12,25.2c0-.14.18-.18.18-.3s-.11-.18-.18-.3c.12,0,.16.17.28.18s.17-.12.28-.15l-.56.57" transform="translate(0 0)"/><path class="cls-4" d="M21.25,26.46h0a.63.63,0,0,1,.16.34.43.43,0,0,1-.15-.34" transform="translate(0 0)"/></g></g></g></svg>