<svg xmlns="http://www.w3.org/2000/svg" xmlns:xlink="http://www.w3.org/1999/xlink" viewBox="0 0 30 30"><defs><style>.cls-1,.cls-4{fill:none;}.cls-2{clip-path:url(#clip-path);}.cls-3{fill:#e0a340;}.cls-4{stroke:#212121;stroke-miterlimit:10;stroke-width:0.25px;}</style><clipPath id="clip-path"><rect class="cls-1" y="5.93" width="30" height="18.13"/></clipPath></defs><title>Recurso 9</title><g id="Capa_2" data-name="Capa 2"><g id="Capa_1-2" data-name="Capa 1"><g class="cls-2"><path class="cls-3" d="M5.16,17.65c-.31-1.2-.52-2.42-.73-3.65,0-.15-.08-.2-.24-.15L3,14.28a.24.24,0,0,0-.17.2c-.06.31-.08.63-.11.95-.05.51-.09,1-.14,1.54,0,.07,0,.17-.1.17S2.41,17,2.4,17c-.06-.29-.11-.59-.16-.89S2.1,15.22,2,14.78c0-.24-.12-.26-.35-.18L.5,15c-.12,0-.26,0-.36.12v0a.75.75,0,0,1,.07.41c0,.92,0,1.85,0,2.76,0,.65,0,1.3,0,2a.67.67,0,0,1,0,.24v0a.34.34,0,0,0,.2,0c.34-.05.65-.18,1-.25A.29.29,0,0,0,1.57,20a6.43,6.43,0,0,0,0-.76c0-.48,0-1-.06-1.44,0-.05,0-.13.07-.14s.11.05.13.11a4.15,4.15,0,0,1,.11.48c.11.58.29,1.15.42,1.72,0,.16.13.21.29.15l.58-.16a.21.21,0,0,0,.19-.23l.06-1.11c0-.37,0-.73.08-1.1,0-.06,0-.14.08-.15s.06.08.08.13c.1.32.14.66.22,1a8.55,8.55,0,0,0,.27,1.11c0,.13.12.17.25.11l.41-.17.65-.26c.08,0,.15-.08.11-.2-.14-.46-.22-.93-.34-1.4"/><path class="cls-4" d="M5.16,17.65c-.31-1.2-.52-2.42-.73-3.65,0-.15-.08-.2-.24-.15L3,14.28a.24.24,0,0,0-.17.2c-.06.31-.08.63-.11.95-.05.51-.09,1-.14,1.54,0,.07,0,.17-.1.17S2.41,17,2.4,17c-.06-.29-.11-.59-.16-.89S2.1,15.22,2,14.78c0-.24-.12-.26-.35-.18L.5,15c-.12,0-.26,0-.36.12v0a.75.75,0,0,1,.07.41c0,.92,0,1.85,0,2.76,0,.65,0,1.3,0,2a.67.67,0,0,1,0,.24v0a.34.34,0,0,0,.2,0c.34-.05.65-.18,1-.25A.29.29,0,0,0,1.57,20a6.43,6.43,0,0,0,0-.76c0-.48,0-1-.06-1.44,0-.05,0-.13.07-.14s.11.05.13.11a4.15,4.15,0,0,1,.11.48c.11.58.29,1.15.42,1.72,0,.16.13.21.29.15l.58-.16a.21.21,0,0,0,.19-.23l.06-1.11c0-.37,0-.73.08-1.1,0-.06,0-.14.08-.15s.06.08.08.13c.1.32.14.66.22,1a8.55,8.55,0,0,0,.27,1.11c0,.13.12.17.25.11l.41-.17.65-.26c.08,0,.15-.08.11-.2C5.36,18.59,5.28,18.12,5.16,17.65Z"/><path class="cls-3" d="M13.61,16.77c-.07-.3-.13-.6-.2-.9a30.68,30.68,0,0,1-.7-3.56c0-.22-.1-.27-.31-.2l-1.11.4a.25.25,0,0,0-.2.25c-.08.82-.17,1.64-.25,2.46,0,.06,0,.14-.1.15s-.1-.07-.11-.13a5.05,5.05,0,0,1-.08-.68c-.08-.5-.19-1-.28-1.5,0-.25-.1-.28-.34-.21l-1.27.38a.25.25,0,0,0-.23.31c.05.63,0,1.25,0,1.88s0,1.06,0,1.59c0,.23,0,.46,0,.7,0,0,0,.09,0,.11s-.06,0-.09-.07-.15-.06-.23,0l-.8.3c-.13.05-.21,0-.21-.13a7,7,0,0,0-.14-1c0-.15,0-.24.18-.27l.74-.17A.19.19,0,0,0,8,16.17c0-.12,0-.24-.07-.36s-.1-.26-.32-.21L7,15.77c-.23.06-.26,0-.29-.2s0-.64-.11-1,.06-.21.19-.22a7.21,7.21,0,0,0,.92-.21c.09,0,.15-.08.13-.19a2.76,2.76,0,0,1,0-.64c0-.11,0-.14-.15-.11l-2.22.65c-.27.08-.28.12-.24.4.16,1.24.27,2.49.47,3.73.07.42.09.83.17,1.24,0,.13.09.17.21.13l.56-.19c.56-.2,1.1-.43,1.67-.6.06,0,.13-.05.16.05s.17.22.36.13a3.89,3.89,0,0,1,.82-.25c.16,0,.23-.09.23-.25,0-.7,0-1.39,0-2.08,0-.11-.08-.29.07-.31s.12.17.15.28c.16.67.33,1.34.49,2,0,.13.1.19.24.16l.66-.17a.19.19,0,0,0,.16-.19l.15-2.28c0-.06,0-.14.07-.15s.08.07.1.13a.36.36,0,0,1,0,.11c.14.67.26,1.35.44,2,0,.12.07.16.2.12.39-.11.75-.3,1.14-.44a.17.17,0,0,0,.11-.25,2.57,2.57,0,0,1-.15-.47"/><path class="cls-4" d="M13.61,16.77c-.07-.3-.13-.6-.2-.9a30.68,30.68,0,0,1-.7-3.56c0-.22-.1-.27-.31-.2l-1.11.4a.25.25,0,0,0-.2.25c-.08.82-.17,1.64-.25,2.46,0,.06,0,.14-.1.15s-.1-.07-.11-.13a5.05,5.05,0,0,1-.08-.68c-.08-.5-.19-1-.28-1.5,0-.25-.1-.28-.34-.21l-1.27.38a.25.25,0,0,0-.23.31c.05.63,0,1.25,0,1.88s0,1.06,0,1.59c0,.23,0,.46,0,.7,0,0,0,.09,0,.11s-.06,0-.09-.07-.15-.06-.23,0l-.8.3c-.13.05-.21,0-.21-.13a7,7,0,0,0-.14-1c0-.15,0-.24.18-.27l.74-.17A.19.19,0,0,0,8,16.17c0-.12,0-.24-.07-.36s-.1-.26-.32-.21L7,15.77c-.23.06-.26,0-.29-.2s0-.64-.11-1,.06-.21.19-.22a7.21,7.21,0,0,0,.92-.21c.09,0,.15-.08.13-.19a2.76,2.76,0,0,1,0-.64c0-.11,0-.14-.15-.11l-2.22.65c-.27.08-.28.12-.24.4.16,1.24.27,2.49.47,3.73.07.42.09.83.17,1.24,0,.13.09.17.21.13l.56-.19c.56-.2,1.1-.43,1.67-.6.06,0,.13-.05.16.05s.17.22.36.13a3.89,3.89,0,0,1,.82-.25c.16,0,.23-.09.23-.25,0-.7,0-1.39,0-2.08,0-.11-.08-.29.07-.31s.12.17.15.28c.16.67.33,1.34.49,2,0,.13.1.19.24.16l.66-.17a.19.19,0,0,0,.16-.19l.15-2.28c0-.06,0-.14.07-.15s.08.07.1.13a.36.36,0,0,1,0,.11c.14.67.26,1.35.44,2,0,.12.07.16.2.12.39-.11.75-.3,1.14-.44a.17.17,0,0,0,.11-.25A2.57,2.57,0,0,1,13.61,16.77Z"/><path class="cls-3" d="M26.8,20.23a.22.22,0,0,0-.29-.12l-.48.13c-.14,0-.21,0-.24-.17-.2-1.37-.41-2.75-.55-4.13,0-.2-.08-.23-.27-.16a7.14,7.14,0,0,0-.81.31c-.46.21-.42.05-.32.58v.09c.16,1.07.31,2.13.52,3.19.07.38.14.77.22,1.16,0,0,0,.09-.05.11s-.08,0-.1-.07a2.4,2.4,0,0,1-.11-.23.26.26,0,0,0-.32-.19,1.61,1.61,0,0,0-.48.12c-.13.07-.19,0-.24-.1a2.29,2.29,0,0,1-.07-.36c-.15-.73-.22-1.47-.31-2.21a14.43,14.43,0,0,0-.19-1.61c0-.22-.07-.24-.28-.16l-.93.34c-.27.09-.28.11-.23.39.13.79.28,1.57.39,2.36s.35,1.76.51,2.65c0,.14.09.15.21.09a2.87,2.87,0,0,1,.4-.18,8.6,8.6,0,0,1,1.58-.52c.12,0,.25-.07.34.08a.13.13,0,0,0,.18,0l.22-.12a9.26,9.26,0,0,1,1.77-.61c.23-.05.25-.09.14-.29a3,3,0,0,1-.22-.39"/><path class="cls-4" d="M26.8,20.23a.22.22,0,0,0-.29-.12l-.48.13c-.14,0-.21,0-.24-.17-.2-1.37-.41-2.75-.55-4.13,0-.2-.08-.23-.27-.16a7.14,7.14,0,0,0-.81.31c-.46.21-.42.05-.32.58v.09c.16,1.07.31,2.13.52,3.19.07.38.14.77.22,1.16,0,0,0,.09-.05.11s-.08,0-.1-.07a2.4,2.4,0,0,1-.11-.23.26.26,0,0,0-.32-.19,1.61,1.61,0,0,0-.48.12c-.13.07-.19,0-.24-.1a2.29,2.29,0,0,1-.07-.36c-.15-.73-.22-1.47-.31-2.21a14.43,14.43,0,0,0-.19-1.61c0-.22-.07-.24-.28-.16l-.93.34c-.27.09-.28.11-.23.39.13.79.28,1.57.39,2.36s.35,1.76.51,2.65c0,.14.09.15.21.09a2.87,2.87,0,0,1,.4-.18,8.6,8.6,0,0,1,1.58-.52c.12,0,.25-.07.34.08a.13.13,0,0,0,.18,0l.22-.12a9.26,9.26,0,0,1,1.77-.61c.23-.05.25-.09.14-.29A3,3,0,0,1,26.8,20.23Z"/><path class="cls-3" d="M17.41,21.69a5.19,5.19,0,0,1-.5.31c-.12.06-.2,0-.23-.11L16.53,21a.15.15,0,0,1,.13-.2,1.57,1.57,0,0,1,.24,0,1.93,1.93,0,0,1,.47.08.45.45,0,0,1,0,.8m-1.06-2a2.62,2.62,0,0,1-.09-.38c0-.24.06-.34.34-.34a2.67,2.67,0,0,1,.33.05c.17,0,.22.15.15.32s-.39.33-.61.45c-.07,0-.11,0-.12-.1m1.62.69c-.27-.11-.29-.13-.09-.33a1.49,1.49,0,0,0,.43-1.22A1.17,1.17,0,0,0,17,17.73a.22.22,0,0,0-.08,0,7.48,7.48,0,0,0-2.15.68c-.09,0-.11.12-.09.22.06.33.11.68.19,1a29.54,29.54,0,0,1,.68,4.07c0,.21,0,.23.26.2a4.66,4.66,0,0,0,1.66-.6,2.87,2.87,0,0,0,1.18-1.11,1.28,1.28,0,0,0-.7-1.81"/><path class="cls-4" d="M17.41,21.69a5.19,5.19,0,0,1-.5.31c-.12.06-.2,0-.23-.11L16.53,21a.15.15,0,0,1,.13-.2,1.57,1.57,0,0,1,.24,0,1.93,1.93,0,0,1,.47.08A.45.45,0,0,1,17.41,21.69Zm-1.06-2a2.62,2.62,0,0,1-.09-.38c0-.24.06-.34.34-.34a2.67,2.67,0,0,1,.33.05c.17,0,.22.15.15.32s-.39.33-.61.45C16.4,19.83,16.36,19.76,16.35,19.7Zm1.62.69c-.27-.11-.29-.13-.09-.33a1.49,1.49,0,0,0,.43-1.22A1.17,1.17,0,0,0,17,17.73a.22.22,0,0,0-.08,0,7.48,7.48,0,0,0-2.15.68c-.09,0-.11.12-.09.22.06.33.11.68.19,1a29.54,29.54,0,0,1,.68,4.07c0,.21,0,.23.26.2a4.66,4.66,0,0,0,1.66-.6,2.87,2.87,0,0,0,1.18-1.11A1.28,1.28,0,0,0,18,20.39Z"/><path class="cls-3" d="M16.55,11.65a35.74,35.74,0,0,1,.57,3.83l.18,1.37c0,.12.07.15.17.11l.91-.36a.24.24,0,0,0,.17-.28c0-.56-.15-1.1-.2-1.65s-.12-.37.34-.53.43-.08.46.32c.06.58.13,1.16.19,1.74,0,.15.09.17.21.13.3-.09.6-.19.89-.3s.25-.14.2-.36-.08-.43-.11-.64c-.11-.73-.25-1.47-.33-2.2a12.28,12.28,0,0,1-.15-2c0-.16-.06-.23-.22-.18-.34.08-.67.19-1,.28a.18.18,0,0,0-.15.23c0,.2,0,.4.05.59.05.39.14.78.17,1.17,0,.08,0,.17-.08.21a2.13,2.13,0,0,1-.5.18c-.14,0-.21,0-.22-.18s0-.24,0-.35c0-.42-.09-.83-.12-1.16s0-.46-.31-.4-.59.08-.88.13-.27.07-.22.31"/><path class="cls-4" d="M16.55,11.65a35.74,35.74,0,0,1,.57,3.83l.18,1.37c0,.12.07.15.17.11l.91-.36a.24.24,0,0,0,.17-.28c0-.56-.15-1.1-.2-1.65s-.12-.37.34-.53.43-.08.46.32c.06.58.13,1.16.19,1.74,0,.15.09.17.21.13.3-.09.6-.19.89-.3s.25-.14.2-.36-.08-.43-.11-.64c-.11-.73-.25-1.47-.33-2.2a12.28,12.28,0,0,1-.15-2c0-.16-.06-.23-.22-.18-.34.08-.67.19-1,.28a.18.18,0,0,0-.15.23c0,.2,0,.4.05.59.05.39.14.78.17,1.17,0,.08,0,.17-.08.21a2.13,2.13,0,0,1-.5.18c-.14,0-.21,0-.22-.18s0-.24,0-.35c0-.42-.09-.83-.12-1.16s0-.46-.31-.4-.59.08-.88.13S16.5,11.41,16.55,11.65Z"/><path class="cls-3" d="M22.59,12.67a6.08,6.08,0,0,0,.91.39,4.37,4.37,0,0,1,.8.34.51.51,0,0,1,.28.49c0,.17-.2.32-.43.37a1.45,1.45,0,0,1-1.08-.19c-.15-.09-.21-.05-.24.11s-.1.55-.16.83a.24.24,0,0,0,.13.26,2.34,2.34,0,0,0,.92.31,2.38,2.38,0,0,0,1.87-.77,1.39,1.39,0,0,0,.4-1.38A1.83,1.83,0,0,0,24.54,12a2,2,0,0,1-.67-.26.46.46,0,0,1-.24-.5.68.68,0,0,1,.47-.42c.18,0,.31.1.41.36a.25.25,0,0,1,0,.07c0,.11.08.13.18.08a7.64,7.64,0,0,1,.71-.34c.26-.1.34-.21.21-.56a1,1,0,0,0-1.09-.72l-.35,0a3,3,0,0,0-1.77,1.11,1.43,1.43,0,0,0-.27.46,1,1,0,0,0,.44,1.36"/><path class="cls-4" d="M22.59,12.67a6.08,6.08,0,0,0,.91.39,4.37,4.37,0,0,1,.8.34.51.51,0,0,1,.28.49c0,.17-.2.32-.43.37a1.45,1.45,0,0,1-1.08-.19c-.15-.09-.21-.05-.24.11s-.1.55-.16.83a.24.24,0,0,0,.13.26,2.34,2.34,0,0,0,.92.31,2.38,2.38,0,0,0,1.87-.77,1.39,1.39,0,0,0,.4-1.38A1.83,1.83,0,0,0,24.54,12a2,2,0,0,1-.67-.26.46.46,0,0,1-.24-.5.68.68,0,0,1,.47-.42c.18,0,.31.1.41.36a.25.25,0,0,1,0,.07c0,.11.08.13.18.08a7.64,7.64,0,0,1,.71-.34c.26-.1.34-.21.21-.56a1,1,0,0,0-1.09-.72l-.35,0a3,3,0,0,0-1.77,1.11,1.43,1.43,0,0,0-.27.46A1,1,0,0,0,22.59,12.67Z"/><path class="cls-3" d="M15.08,14.47c-.06,0-.05-.08-.06-.13-.06-.48-.13-1-.2-1.45,0-.06,0-.14.06-.16a.27.27,0,0,1,.26,0,.61.61,0,0,1,.2.3,1.61,1.61,0,0,1,.12.63,1.24,1.24,0,0,1-.25.68s-.06.1-.13.08m.24,2.45c-.1-.44-.07-.89-.17-1.32a.19.19,0,0,1,.15-.25,2,2,0,0,0,1.36-2.3c-.21-.87-.7-1.41-1.55-1.39a3.53,3.53,0,0,0-1.66.56.18.18,0,0,0-.09.2,3.61,3.61,0,0,1,.08.66c.08.62.17,1.25.24,1.88.1.85.18,1.7.27,2.54,0,.19.07.22.24.15s.62-.27.94-.38a.26.26,0,0,0,.19-.35"/><path class="cls-4" d="M15.08,14.47c-.06,0-.05-.08-.06-.13-.06-.48-.13-1-.2-1.45,0-.06,0-.14.06-.16a.27.27,0,0,1,.26,0,.61.61,0,0,1,.2.3,1.61,1.61,0,0,1,.12.63,1.24,1.24,0,0,1-.25.68S15.15,14.49,15.08,14.47Zm.24,2.45c-.1-.44-.07-.89-.17-1.32a.19.19,0,0,1,.15-.25,2,2,0,0,0,1.36-2.3c-.21-.87-.7-1.41-1.55-1.39a3.53,3.53,0,0,0-1.66.56.18.18,0,0,0-.09.2,3.61,3.61,0,0,1,.08.66c.08.62.17,1.25.24,1.88.1.85.18,1.7.27,2.54,0,.19.07.22.24.15s.62-.27.94-.38A.26.26,0,0,0,15.32,16.92Z"/><path class="cls-3" d="M21.72,21.35c0-.16-.12-.2-.27-.14s-.47.23-.73.31-.22,0-.24-.15c-.07-.33-.13-.66-.19-1a.14.14,0,0,1,.12-.19,7,7,0,0,1,.78-.23c.13,0,.19-.1.16-.23s-.07-.29-.1-.44-.11-.22-.27-.18-.48.12-.71.2-.24,0-.25-.16L20,19a6.67,6.67,0,0,0-.12-.78c-.06-.17,0-.25.16-.28s.55-.15.83-.21.23-.12.2-.28a1,1,0,0,1,0-.33c0-.34-.05-.4-.28-.33-.73.22-1.46.47-2.19.71a.22.22,0,0,0-.16.29l.87,5c0,.16.1.18.24.13l2.25-.89a.16.16,0,0,0,.11-.22c-.05-.17-.1-.34-.14-.51"/><path class="cls-4" d="M21.72,21.35c0-.16-.12-.2-.27-.14s-.47.23-.73.31-.22,0-.24-.15c-.07-.33-.13-.66-.19-1a.14.14,0,0,1,.12-.19,7,7,0,0,1,.78-.23c.13,0,.19-.1.16-.23s-.07-.29-.1-.44-.11-.22-.27-.18-.48.12-.71.2-.24,0-.25-.16L20,19a6.67,6.67,0,0,0-.12-.78c-.06-.17,0-.25.16-.28s.55-.15.83-.21.23-.12.2-.28a1,1,0,0,1,0-.33c0-.34-.05-.4-.28-.33-.73.22-1.46.47-2.19.71a.22.22,0,0,0-.16.29l.87,5c0,.16.1.18.24.13l2.25-.89a.16.16,0,0,0,.11-.22C21.81,21.69,21.76,21.52,21.72,21.35Z"/><path class="cls-3" d="M29.85,19.92c-.05-.19-.11-.38-.17-.56s-.11-.16-.24-.11l-.8.34c-.13.06-.19,0-.22-.13-.05-.33-.12-.67-.18-1,0-.14,0-.2.15-.24s.48-.14.71-.21.23-.1.19-.32,0-.22-.06-.33-.09-.24-.29-.19l-.72.19c-.12,0-.2,0-.22-.13-.05-.33-.11-.65-.17-1,0-.16,0-.24.2-.27a5.2,5.2,0,0,0,.86-.23c.1,0,.17-.09.14-.21a1.91,1.91,0,0,1,0-.48c0-.19-.11-.27-.3-.2l-.35.12-1.8.58c-.13,0-.23.09-.19.24a6.74,6.74,0,0,0,.14.9c.22,1.39.47,2.78.72,4.16,0,.19.07.22.26.15l1.17-.45c.33-.13.67-.25,1-.39.09-.05.24-.07.2-.24"/><path class="cls-4" d="M29.85,19.92c-.05-.19-.11-.38-.17-.56s-.11-.16-.24-.11l-.8.34c-.13.06-.19,0-.22-.13-.05-.33-.12-.67-.18-1,0-.14,0-.2.15-.24s.48-.14.71-.21.23-.1.19-.32,0-.22-.06-.33-.09-.24-.29-.19l-.72.19c-.12,0-.2,0-.22-.13-.05-.33-.11-.65-.17-1,0-.16,0-.24.2-.27a5.2,5.2,0,0,0,.86-.23c.1,0,.17-.09.14-.21a1.91,1.91,0,0,1,0-.48c0-.19-.11-.27-.3-.2l-.35.12-1.8.58c-.13,0-.23.09-.19.24a6.74,6.74,0,0,0,.14.9c.22,1.39.47,2.78.72,4.16,0,.19.07.22.26.15l1.17-.45c.33-.13.67-.25,1-.39C29.74,20.11,29.89,20.09,29.85,19.92Z"/><path class="cls-3" d="M20.68,13.14c.13.95.24,1.9.29,2.86,0,.15.06.19.21.15.3-.11.6-.2.91-.3s.27-.11.22-.37c-.12-.59-.13-1.19-.22-1.78S22,12.59,21.89,12s-.08-1-.18-1.37-.05-.33-.28-.25-.53.21-.8.3a.27.27,0,0,0-.22.35c.13.69.19,1.38.27,2.07"/><path class="cls-4" d="M20.68,13.14c.13.95.24,1.9.29,2.86,0,.15.06.19.21.15.3-.11.6-.2.91-.3s.27-.11.22-.37c-.12-.59-.13-1.19-.22-1.78S22,12.59,21.89,12s-.08-1-.18-1.37-.05-.33-.28-.25-.53.21-.8.3a.27.27,0,0,0-.22.35C20.54,11.76,20.6,12.45,20.68,13.14Z"/><path class="cls-3" d="M15.79,9.49c-.39.61-.76,1.24-1.17,1.85.16-.15.32-.3.47-.46.81-.79,1.6-1.58,2.36-2.42.05-.06.15-.12.12-.19s-.14,0-.22,0h-.86c-.2,0-.23-.06-.16-.24.13-.37.34-.69.49-1l.33-.76s0-.07,0-.1-.08,0-.11,0a.39.39,0,0,0-.08.1c-.21.25-.41.53-.63.77-.48.5-.91,1.05-1.36,1.58,0,0-.05.07,0,.09s.07,0,.11,0c.29,0,.58,0,.87,0,.09,0,.21,0,.27.07s0,.2-.09.28-.22.29-.31.44"/><path class="cls-4" d="M15.79,9.49c-.39.61-.76,1.24-1.17,1.85.16-.15.32-.3.47-.46.81-.79,1.6-1.58,2.36-2.42.05-.06.15-.12.12-.19s-.14,0-.22,0h-.86c-.2,0-.23-.06-.16-.24.13-.37.34-.69.49-1l.33-.76s0-.07,0-.1-.08,0-.11,0a.39.39,0,0,0-.08.1c-.21.25-.41.53-.63.77-.48.5-.91,1.05-1.36,1.58,0,0-.05.07,0,.09s.07,0,.11,0c.29,0,.58,0,.87,0,.09,0,.21,0,.27.07s0,.2-.09.28S15.88,9.34,15.79,9.49Z"/></g><rect class="cls-1" width="30" height="30"/></g></g></svg>