<?xml version="1.0" encoding="utf-8"?>
<!-- Generator: Adobe Illustrator 24.0.1, SVG Export Plug-In . SVG Version: 6.00 Build 0)  -->
<svg version="1.1" id="Capa_1" xmlns="http://www.w3.org/2000/svg" xmlns:xlink="http://www.w3.org/1999/xlink" x="0px" y="0px"
	 viewBox="0 0 29.5 30" style="enable-background:new 0 0 29.5 30;" xml:space="preserve">
<title>Recurso 4</title>
<g id="Capa_2_1_">
	<g id="Capa_1-2">
		<path d="M10.1,16.2c0.3-0.2,0.6-0.5,0.8-0.8c0-0.1,0.1-0.1,0.1-0.2c0-0.1,0.1-0.1,0.1-0.2l0.3-0.4c0.2-0.3,0.5-0.5,0.8-0.7
			c0.3-0.2,0.5-0.4,0.8-0.6c0.3-0.2,0.6-0.4,0.9-0.6c0.6-0.4,1.2-0.6,1.9-0.9c0.6-0.2,1.3-0.3,2-0.3c0.7,0,1.4,0.1,2,0.3
			c0.7,0.2,1.3,0.5,1.9,0.9c0.3,0.2,0.6,0.4,0.8,0.6l0.2,0.2l0.2,0.2l0.4,0.4C23,13.6,22.5,13,22,12.5c-0.6-0.5-1.2-0.9-1.9-1.2
			c-0.7-0.3-1.4-0.4-2.2-0.4c-0.7,0-1.5,0.1-2.2,0.3c-0.7,0.2-1.4,0.5-2,0.9c-0.6,0.4-1.2,0.8-1.7,1.3c-0.3,0.3-0.5,0.5-0.8,0.8
			s-0.2,0.3-0.3,0.4L10.7,15c0,0.1-0.1,0.2-0.1,0.3c-0.1,0.2-0.2,0.3-0.3,0.4c-0.1,0.1-0.2,0.2-0.3,0.3c-0.3,0.2-0.6,0.3-1,0.3
			C9.4,16.4,9.7,16.4,10.1,16.2"/>
		<path d="M8.1,13c0-0.1,0-0.3-0.1-0.4c-0.1-0.5-0.3-1-0.5-1.5c-0.2-0.5-0.6-0.9-1-1.3c0.2,0.5,0.4,0.9,0.5,1.4
			c0.2,0.5,0.3,1,0.4,1.5c0,0.1,0.1,0.2,0.1,0.4v0.2v0.2l0.1,0.4c0,0.1,0,0.3,0,0.4c0,0.1,0,0.1,0,0.2c0,0.1,0,0.1,0,0.2
			s0,0.3,0,0.4s0,0.5,0.1,0.8c0.1-0.1,0.1-0.3,0.1-0.4c0.1-0.1,0.2-0.1,0.3-0.2c0-0.1,0-0.1,0-0.2l0.1-0.4c0-0.1,0-0.3,0-0.4
			s0-0.3,0-0.4s0-0.3,0-0.4s0-0.1,0-0.2L8.1,13z"/>
		<path d="M8,0.5L8,0.5L8,0.5L8,0.5l0.1,0.1l0.1,0.1l0,0l0,0l0.1,0.1C8.3,0.9,8.3,1,8.4,1c0,0,0-0.1,0-0.1V0.8v0c0,0,0-0.1,0-0.1
			c0,0,0-0.1,0-0.1l0.1-0.1c0,0-0.1-0.1-0.1-0.1v0l-0.1,0C8.1,0.1,7.9,0,7.7,0C7.5,0,7.4,0.1,7.2,0.2l0.4,0.2C7.8,0.4,7.9,0.4,8,0.5
			"/>
		<path d="M0.8,2.7C0.7,2.5,0.6,2.2,0.5,2c-0.1-0.2-0.1-0.4,0-0.6C0.5,1.2,0.6,1,0.8,0.8c0.2-0.2,0.3-0.4,0.5-0.5
			C1,0.3,0.8,0.4,0.5,0.6C0.3,0.7,0.1,1,0,1.3C0,1.6,0,1.9,0.2,2.1C0.3,2.4,0.5,2.6,0.8,2.7"/>
		<path d="M5.2,4.4C4.9,4,4.5,3.7,4,3.6C3.9,4.6,4.8,4.7,5.2,4.4"/>
		<path d="M3.7,7.5c0.2,0.2,0.4,0.3,0.7,0.4C4.6,8,4.8,8,5.1,8.1c0.1,0,0.3,0,0.4,0h0.2h0.2L6.3,8c0.1,0,0.3-0.1,0.4-0.1
			c0.3-0.1,0.5-0.2,0.7-0.4c0.4-0.3,0.8-0.8,1-1.3l0-0.2c0-0.1,0-0.1,0.1-0.2V5.6V5.5c0,0,0,0,0-0.1V5.4c0-0.2,0-0.4-0.1-0.5
			L8.2,4.7l0,0l0,0l0-0.1l0,0C8.1,4.4,8,4.2,8,4c0,0,0-0.1,0-0.1V3.8c0,0,0-0.1,0-0.1c0-0.1,0-0.3,0-0.4c0-0.5-0.1-1.1-0.4-1.5
			c0-0.1-0.1-0.1-0.1-0.2c0-0.1-0.1-0.1-0.1-0.1L7.2,1.3L7.2,1.2C7.1,1.1,7,1.1,6.8,1L6.5,0.8c0.4,0.3,0.6,0.7,0.8,1.2
			c0.2,0.4,0.3,0.9,0.2,1.4c0,0.1,0,0.2,0,0.3c0,0,0,0.1,0,0.1v0.1c0,0.1,0,0.2,0,0.2c0,0.3,0.1,0.6,0.3,0.9L7.8,5l0.1,0.1l0,0
			c-0.2,0-0.5,0-0.7,0c0.1,0.3,0.4,0.5,0.7,0.5c0,0,0,0.1,0,0.1L7.8,5.9L7.7,6c0,0,0,0.1-0.1,0.2c0,0.1-0.1,0.2-0.2,0.3
			C7.4,6.7,7.2,6.9,7,7C6.8,7.1,6.6,7.3,6.4,7.4C6.2,7.5,6,7.5,5.8,7.6C5.6,7.6,5.3,7.7,5.1,7.7c-0.2,0-0.5,0-0.7-0.1
			C4,7.4,3.5,7.2,3.1,6.9C3.3,7.1,3.5,7.3,3.7,7.5"/>
		<path d="M1.7,16.2c0.1,0.3,0.3,0.7,0.4,1l0.2,0.5l0.1,0.2l0.1,0.2c0.4,0.6,0.8,1.2,1.3,1.7c0.2,0.3,0.5,0.5,0.7,0.8l0.2,0.2L5,21
			l0.2,0.2l0.2,0.2l0.4,0.3L6,21.8L6.2,22c0.3,0.2,0.5,0.5,0.8,0.7c-0.2-0.3-0.4-0.6-0.7-0.8l-0.2-0.2L6,21.5l-0.4-0.4l-0.3-0.4
			l-0.2-0.2C5,20.5,5,20.4,4.9,20.4c-0.2-0.3-0.5-0.5-0.7-0.8l-0.2-0.2L4,19.3l-0.1-0.1l-0.3-0.4l-0.1-0.2l-0.1-0.2l-0.1-0.2
			l-0.1-0.2c-0.3-0.6-0.6-1.2-0.9-1.9c-0.5-1.3-0.7-2.6-0.7-4c0-0.7,0-1.3,0.1-2c0.1-0.7,0.2-1.3,0.4-2c-0.3,0.6-0.6,1.3-0.7,2
			c-0.2,0.7-0.3,1.4-0.3,2.1C1,13.5,1.2,15,1.7,16.3"/>
		<path d="M1.8,29.4H1.6H1.4c-0.1,0-0.3,0-0.4-0.1c-0.1,0-0.2-0.1-0.3-0.2V29l0,0l0,0c0,0,0-0.1,0-0.1l0,0l0,0l0,0l0.1-0.1L1,28.6
			l0.1-0.1l0.1-0.2c0.2-0.2,0.3-0.5,0.5-0.7C1.8,27.3,1.9,27,2,26.8c0.1-0.3,0.1-0.6,0.1-0.9c0-0.3,0-0.6,0-0.9
			c0-0.3-0.1-0.6-0.1-0.9c-0.1-0.3-0.2-0.6-0.3-0.8L1.5,23l-0.1-0.2c0-0.1-0.1-0.1-0.1-0.2c-0.1-0.2-0.2-0.5-0.2-0.8
			c-0.1-1.1,0.1-2.2,0.6-3.1c-0.8,0.8-1.2,2-1.1,3.1c0,0.3,0.1,0.6,0.2,0.9L0.9,23L1,23.2c0.1,0.1,0.1,0.3,0.2,0.4
			c0.2,0.5,0.3,1,0.4,1.5c0,0.5,0,1-0.1,1.5c-0.1,0.2-0.1,0.5-0.2,0.7l-0.1,0.2c0,0.1-0.1,0.1-0.1,0.2S0.9,27.9,0.8,28l-0.1,0.1
			l-0.1,0.1l-0.1,0.1l-0.1,0.1l0,0l0,0v0.1c0,0,0,0.1-0.1,0.1c0,0.1,0,0.2,0,0.3c0,0,0,0,0,0.1c0,0,0,0,0,0.1l0.1,0.1
			c0.1,0.1,0.3,0.2,0.4,0.3c0.1,0,0.3,0.1,0.5,0h0.1h0.1c0.1,0,0.1,0,0.2-0.1c0.3-0.1,0.5-0.2,0.8-0.4C2.3,29.2,2,29.3,1.8,29.4"/>
		<path d="M7.9,30c0.4-0.1,0.8-0.3,1.1-0.5l-0.3,0.1l-0.3,0.1c-0.2,0-0.4,0-0.5,0c-0.2,0-0.3,0-0.5-0.1c-0.1-0.1-0.2-0.2-0.3-0.3
			l-0.1-0.1C7,29.1,7,29,7,29c0,0,0-0.1,0-0.1c0,0,0-0.1,0-0.1c0-0.1,0-0.2,0-0.3l0.2-0.2l0.2-0.2c0.1-0.1,0.1-0.2,0.2-0.3
			c0-0.1,0.1-0.2,0.1-0.3C8,26.8,8.1,26,8,25.2c0-0.4-0.1-0.8-0.3-1.1c-0.1-0.2-0.2-0.4-0.3-0.5c-0.1-0.2-0.2-0.3-0.3-0.5
			c0.1,0.3,0.2,0.7,0.3,1.1c0.1,0.4,0.1,0.7,0.1,1.1c0,0.7-0.2,1.4-0.5,2L7,27.5l-0.1,0.2c0,0.1-0.1,0.2-0.2,0.2l-0.1,0.1v0.1
			l-0.1,0.1c-0.1,0.2-0.2,0.5-0.1,0.7c0,0.1,0,0.1,0.1,0.2c0,0.1,0,0.1,0.1,0.1l0.1,0.1l0.1,0.1c0.1,0.2,0.3,0.3,0.5,0.4
			C7.5,30,7.7,30,7.9,30"/>
		<path d="M13.8,24.2c0.4,0,0.8,0,1.2-0.1c0.8-0.1,1.5-0.3,2.3-0.5c0.4-0.1,0.7-0.3,1.1-0.4c0.2-0.1,0.4-0.2,0.5-0.2l0.3-0.1l0,0
			c0.1,0.1,0.2,0.3,0.3,0.4c0.2,0.3,0.4,0.5,0.6,0.8l0.2,0.2l0.2,0.2c0.1,0.1,0.2,0.2,0.3,0.3c0.4,0.4,0.6,1,0.7,1.5
			c0.1,0.3,0.1,0.5,0,0.8c0,0.3-0.1,0.5-0.3,0.8c-0.1,0.3-0.3,0.5-0.5,0.7c-0.1,0.1-0.2,0.2-0.3,0.3l-0.1,0.1l0,0L20,29
			c-0.1,0.1-0.1,0.2-0.1,0.3c0,0.1,0,0.2,0.1,0.3c0,0,0.1,0.1,0.1,0.1l0.1,0.1c0.1,0.1,0.3,0.1,0.5,0.2c0.3,0,0.6,0,0.9-0.1
			c-0.3,0.1-0.6,0.1-0.9,0c-0.1,0-0.3-0.1-0.4-0.2l-0.1-0.1c0,0,0,0,0-0.1c0,0,0-0.1,0-0.1c0,0,0-0.1,0.1-0.1l0,0h0l0.1-0.1
			c0.1-0.1,0.2-0.2,0.4-0.3c0.2-0.2,0.4-0.5,0.6-0.8c0.4-0.6,0.5-1.2,0.4-1.9c0-0.3-0.1-0.7-0.3-1c-0.1-0.3-0.3-0.6-0.5-0.8L20.7,24
			l-0.3-0.3c-0.2-0.2-0.4-0.4-0.6-0.7c-0.1-0.1-0.2-0.2-0.2-0.4c0-0.1-0.1-0.1-0.1-0.2l0-0.1v-0.1c-0.1-0.3-0.2-0.5-0.2-0.8
			c-0.1-0.6,0-1.2,0.2-1.7c0.1-0.3,0.2-0.6,0.4-0.8c0.1-0.1,0.2-0.3,0.2-0.4c0.1-0.1,0.2-0.3,0.3-0.4c-0.2,0.2-0.5,0.4-0.6,0.7
			c-0.2,0.2-0.4,0.5-0.5,0.8c-0.1,0.3-0.2,0.6-0.3,0.9c-0.1,0.3-0.1,0.7-0.1,1c0,0.1,0,0.2,0,0.3l0,0.2l0.1,0.2c0,0,0,0.1,0,0.1
			h-0.1l-0.2,0.1c-0.2,0.1-0.3,0.2-0.5,0.3c-0.3,0.2-0.7,0.3-1,0.5c-0.7,0.3-1.4,0.5-2.2,0.6C14.5,24,14.2,24,13.8,24
			c-0.4,0-0.8,0-1.1,0c-0.8,0-1.5-0.1-2.3-0.3c0.7,0.2,1.5,0.4,2.3,0.4C13,24.2,13.4,24.2,13.8,24.2"/>
		<path d="M24.6,17.4c-0.1,0.4-0.2,0.7-0.2,1.1c0,0.2-0.1,0.4-0.1,0.5s-0.1,0.3-0.1,0.5v0.1v0.1v0.1c-0.1,0-0.1,0.1-0.1,0.2
			c0,0.2-0.1,0.4-0.1,0.6c0,0.2,0,0.4,0.1,0.6c0,0.2,0.1,0.4,0.2,0.5c0.1-0.4,0.1-0.7,0.2-1.1c0-0.2,0.1-0.3,0.1-0.5
			c0,0,0-0.1,0-0.1l0-0.1l0-0.1c0,0,0-0.1,0-0.1c0-0.1,0-0.2,0.1-0.3c0-0.1,0-0.2,0-0.3c0-0.2,0-0.4,0-0.6c0-0.4-0.1-0.8-0.2-1.1"/>
		<path d="M27.3,12.2c0.3-0.4,0.6-0.9,0.7-1.4c0.2-0.5,0.2-1,0.3-1.6c0-0.3,0.1-0.5,0.1-0.8c0.1-0.3,0.1-0.5,0.2-0.8
			c0.1-0.2,0.2-0.5,0.4-0.7c0.2-0.2,0.3-0.5,0.5-0.7c-0.2,0.2-0.5,0.3-0.7,0.5c-0.4,0.4-0.7,0.9-0.9,1.5c-0.1,0.3-0.2,0.6-0.2,0.9
			l0,0l0,0c0,0.5-0.1,1-0.3,1.4c-0.2,0.5-0.4,0.9-0.6,1.3c-0.3,0.4-0.6,0.8-0.9,1.2c-0.2,0.2-0.4,0.4-0.6,0.5
			c-0.2,0.2-0.4,0.3-0.6,0.5c0.3-0.1,0.5-0.2,0.7-0.3c0.2-0.1,0.5-0.3,0.7-0.4C26.6,13,27,12.6,27.3,12.2"/>
	</g>
</g>
</svg>
