<svg xmlns="http://www.w3.org/2000/svg" xmlns:xlink="http://www.w3.org/1999/xlink" viewBox="0 0 30 30"><defs><style>.cls-1{fill:url(#Degradado_sin_nombre);}.cls-2{fill:#fff;}</style><linearGradient id="Degradado_sin_nombre" x1="-734.34" y1="-1261.24" x2="-734.25" y2="-1261.24" gradientTransform="translate(420416.63 -244742.55) rotate(-90) scale(333.33)" gradientUnits="userSpaceOnUse"><stop offset="0" stop-color="#911a1e"/><stop offset="1" stop-color="#d61e25"/></linearGradient></defs><title>Recurso 1</title><g id="Capa_2" data-name="Capa 2"><g id="Capa_1-2" data-name="Capa 1"><path class="cls-1" d="M0,30H30V0H0Z"/><path class="cls-2" d="M23.58,9.3a8.08,8.08,0,0,0-11.39,0L12,9.46a7.19,7.19,0,0,0-1.13-.1,6.72,6.72,0,0,0-4.83,2A6.83,6.83,0,0,0,10.9,23.05h7.16a8,8,0,0,0,5.57-2.35A8.08,8.08,0,0,0,23.58,9.3ZM10.92,21.58a5.23,5.23,0,0,1-3.77-1.65,5.35,5.35,0,0,1,3.77-9.12h0c.29,0,.52,0,.78.06s.55.1.84.19a5.65,5.65,0,0,1,1.41.71,3.87,3.87,0,0,1,.57.49l.17.16,2.18,2.19a.75.75,0,0,1,0,1.06.69.69,0,0,1-.51.23.63.63,0,0,1-.51-.23l-1.8-1.8-.39-.39c-.06-.06-.13-.1-.16-.16a3.79,3.79,0,0,0-1.8-.87,2.88,2.88,0,0,0-.71-.06h-.1A3.85,3.85,0,0,0,11,20.08h.68l.65.61a5.34,5.34,0,0,0,1,.88H10.92Zm11.63-1.94a6.39,6.39,0,0,1-2.39,1.51c-.29.1-.55.16-.84.26a5.75,5.75,0,0,1-1.32.17h-.12a6.43,6.43,0,0,1-4.16-1.49l-.49-.42-3.09-3.1a.75.75,0,0,1,0-1.06.69.69,0,0,1,.51-.23.63.63,0,0,1,.51.23l3.06,3.06a6.65,6.65,0,0,0,.94.74,4.94,4.94,0,0,0,2.63.74,5.11,5.11,0,0,0,1.26-.17,3.78,3.78,0,0,0,.74-.26,5.19,5.19,0,0,0,1.61-1.1,5.06,5.06,0,0,0,0-7.15,5,5,0,0,0-6.4-.61,6.51,6.51,0,0,0-1.39-.84,6.63,6.63,0,0,1,8.86.39,6.59,6.59,0,0,1,.08,9.33"/></g></g></svg>