<svg xmlns="http://www.w3.org/2000/svg" viewBox="0 0 30 30"><defs><style>.cls-1{fill:none;}.cls-2{fill:#fff;}.cls-3{fill:#244f73;}.cls-4{fill:#178254;}.cls-5{fill:#386182;}</style></defs><title>Recurso 5</title><g id="Capa_2" data-name="Capa 2"><g id="Capa_1-2" data-name="Capa 1"><rect class="cls-1" width="30" height="30"/><polyline class="cls-2" points="16.47 10.56 16.47 10.57 16.47 10.56"/><path class="cls-3" d="M13.86,19.25c-2.9,2.64-5.56,1.8-7.69,0s-1.84-4.1-1.64-5.65S6.72,9.29,9.25,9a4.94,4.94,0,0,1,4,1.26c3.25,0,3.2.31,3.2.32l.83-2L16.08,7.49l-1-.06-1.33.87-.45-.13L13.16,6l-1.69-.35H10.4l-.88,1.8H9.34l-1-1.8h-1L5.49,6.1l.18,2.16-.5.32L4,7.76H2.92L1.74,9.18,2.92,11,2.4,12l-2-.07L0,13.66l1.86,1,0,1.11-1.71,1,.6,1.72H2.86l.62,1-1,1.73,1.26,1.22,1,0,1.33-.82.4.2.05,2.06,1.7.51H9.36l.78-1.82.26,0,1,1.71h1.11l1.64-.54,0-2.15.53-.35,1.31.66h1l1.22-1.46-.85-1.2Z"/><path class="cls-4" d="M29,15.79c-.63-.16-1.67-1.11-3.28-1.42a5.88,5.88,0,0,1,2.16.42c1.47.5,1.75,1.17,1.12,1m-7.73-.7c-.25.46-1.68,2.61-1.68,2.61l-6.94-.06,6.64-.27,1.54-2.11s.29-.26-.1-.37l-.93-.27,1.3.08s.43-.06.17.39M11.4,11.7a15.62,15.62,0,0,1,4-.16,13.21,13.21,0,0,1,3.66,2H18c0-.56-.12-.6-.6-.77s-.57.23-.57.23v.47l-5.12-.16ZM8.51,13.13c-.49,0,0-.5.4-.87a6.74,6.74,0,0,1,2.23-.56l.31,1.6-2.94-.17m8.79-1.52a22.81,22.81,0,0,1,3.41,1.92h-1c-.8-.51-3.49-2.1-3.54-2.08s-.26-.38,1.13.16m12.4,6.3V16c-.14-.66-.45-1.18-3.71-2a16.77,16.77,0,0,0-5.23-.59c-4.39-2.77-5.64-2.85-9.87-2.28s-5.37,1.42-5.37,1.42a5.61,5.61,0,0,0-.65,2.69c4.81-1.3,4,3.66,4,3.66H22s-.88-3.85,2.56-3.86,2.62,3.86,2.62,3.86L30,18.67v-.61Z"/><path class="cls-4" d="M6.67,19.32l.66.48a2.31,2.31,0,0,0-1.16-4.31,2.36,2.36,0,0,0-1.33.42l.07.92a1.56,1.56,0,0,1,1.26-.63,1.6,1.6,0,0,1,.5,3.12"/><path class="cls-4" d="M24.68,19.3a1.6,1.6,0,1,1,1.6-1.6,1.6,1.6,0,0,1-1.6,1.6m0-3.91A2.31,2.31,0,1,0,27,17.7a2.32,2.32,0,0,0-2.31-2.31"/><path class="cls-5" d="M15.74,7.49,14.2,8.58a2.82,2.82,0,0,0-.93-.41L13.12,6l-1.69-.36-1,1.85-1.08,0-1-1.81h-1l-.61.16V8.26l-.84.6-.65-.28L4,7.75,2.65,9.11l1.22,1.63L3.32,12l-1,0-1.19,0L1,13.75l1.85.86,0,1.18-1.57.92.56,1.77h2l.6.95-1,1.78,1.36,1.21,1.36-.84.44-.25.82.38.1,2.44.76.22,1.11,0,.77-1.81.27,0,.8-.08,1.29,1.81,1.65-.56,0-2.14.53-.36.43-.26,1.49.93h.33l1.22-1.46-.85-1.18-2.59,0s-3.28,3-6.37,1.35-4.05-3.82-3.92-5.41,0-3.64,3.57-5.81a5,5,0,0,1,6.25.88s1.91-.05,2.24.32l.82-2L16.05,7.5Z"/></g></g></svg>