<svg xmlns="http://www.w3.org/2000/svg" xmlns:xlink="http://www.w3.org/1999/xlink" viewBox="0 0 30 30"><defs><style>.cls-1{fill:none;}.cls-2{fill:#2062af;}.cls-3{fill:#3c9cd7;}.cls-4{fill:#fff;}.cls-5{fill:url(#Degradado_sin_nombre_2);}.cls-6{fill:url(#Degradado_sin_nombre_2-2);}.cls-7{fill:url(#Degradado_sin_nombre_4);}.cls-8{opacity:0.05;isolation:isolate;}.cls-9{fill:url(#Degradado_sin_nombre_4-2);}</style><linearGradient id="Degradado_sin_nombre_2" x1="-3708.09" y1="-207.39" x2="-3708.09" y2="-208.5" gradientTransform="translate(17224.09 980.94) scale(4.64)" gradientUnits="userSpaceOnUse"><stop offset="0.39" stop-color="#d1d3d4" stop-opacity="0"/><stop offset="1" stop-color="#d1d3d4"/></linearGradient><linearGradient id="Degradado_sin_nombre_2-2" x1="-3706.7" y1="-207.95" x2="-3706.7" y2="-209.1" xlink:href="#Degradado_sin_nombre_2"/><linearGradient id="Degradado_sin_nombre_4" x1="-3708.76" y1="-206.9" x2="-3706.09" y2="-206.9" gradientTransform="translate(17224.09 980.94) scale(4.64)" gradientUnits="userSpaceOnUse"><stop offset="0" stop-color="#e8e7e5"/><stop offset="1" stop-color="#fff"/></linearGradient><linearGradient id="Degradado_sin_nombre_4-2" x1="-3708.88" y1="-208.82" x2="-3705.98" y2="-208.82" xlink:href="#Degradado_sin_nombre_4"/></defs><title>Recurso 1</title><g id="Capa_2" data-name="Capa 2"><g id="Capa_1-2" data-name="Capa 1"><path class="cls-1" d="M0,0H30V30H0Z"/><path class="cls-2" d="M23.7,27.66,15,30,6.3,27.66l-2-21.75H25.71Z"/><path class="cls-3" d="M15,7.67V28.13h0l7-1.9L23.69,7.67Z"/><path d="M10.06,2.71V1.42H12V0H8.65V4H12V2.71Zm5.29-1.29h1.32V0H13.36V1.42c.45.44.68.65,1.32,1.29H13.36V4h3.31V2.71L15.35,1.42Zm4.68,0h1.32V0h-3.3V1.42l1.31,1.29H18.05V4h3.3V2.71L20,1.42Z"/><path class="cls-4" d="M15,13.11,8.77,15.7,9,18.27l6-2.58L21.4,13l.26-2.63L15,13.11Z"/><path class="cls-5" d="M8.76,15.7,9,18.27l6-2.58V13.11Z"/><path class="cls-6" d="M21.66,10.33,15,13.11v2.58L21.4,13Z"/><path class="cls-7" d="M8.77,15.7,9,18.27l9.24,0L18,21.72l-3,.86-2.92-.74-.18-2.13H9.16l.35,4.11L15,25.44l5.46-1.59.71-8.15Z"/><path class="cls-8" d="M15,15.7H8.77L9,18.27l6,0V15.7Zm0,6.87h0L12,21.84l-.18-2.13H9.15l.35,4.11L15,25.44Z"/><path class="cls-9" d="M8.2,10.33H21.66L21.4,13H8.53L8.2,10.33Z"/><path class="cls-8" d="M15,10.33H8.2L8.53,13H15V10.33Z"/></g></g></svg>