<?xml version="1.0" encoding="utf-8"?>
<!-- Generator: Adobe Illustrator 24.0.1, SVG Export Plug-In . SVG Version: 6.00 Build 0)  -->
<svg version="1.1" id="Capa_1" xmlns="http://www.w3.org/2000/svg" xmlns:xlink="http://www.w3.org/1999/xlink" x="0px" y="0px"
	 viewBox="0 0 30 30" style="enable-background:new 0 0 30 30;" xml:space="preserve">
<style type="text/css">
	.st0{fill:#236A9C;}
	.st1{fill:#222220;}
</style>
<title>Recurso 15</title>
<g>
	<path class="st0" d="M24.8,11.1c-0.5,0.1-1,0.3-1.5,0.3c-0.1,0-0.1,0-0.1-0.1c0,0.1,0.1,0,0.1,0c0.3-0.2,0.6-0.4,0.9-0.6
		c0.1-0.1,0.2,0,0.3,0.1C24.7,11,24.8,11.1,24.8,11.1z"/>
	<path class="st0" d="M19,12.7c0.1-0.4,0.1-0.9,0.2-1.3c0-0.1,0.1-0.1,0.1-0.1c0.1,0,0.1,0,0.1,0.1c0,0.2,0.1,0.4,0.1,0.5
		c-0.1,0-0.1,0.1-0.1,0.1C19.3,12.3,19.1,12.5,19,12.7z"/>
	<path class="st0" d="M19.4,8.5C19.4,8.5,19.3,8.5,19.4,8.5c-0.2,0-0.2-0.2-0.3-0.2c0,0,0,0,0,0c0,0,0,0,0.1,0c0.2,0.1,0.3,0,0.5,0
		c0.1,0,0.2-0.1,0.3-0.1C19.9,8.1,20,8,20.1,8c0,0,0.1,0,0-0.1c0-0.1,0-0.1,0.1-0.1c0.1,0,0.1,0,0.1-0.1c0,0.1,0.1,0.1,0,0.2
		c-0.1,0-0.1,0.1-0.2,0.2l0,0c0,0,0,0,0,0c0,0.1-0.1,0.2-0.1,0.2c0,0.1-0.1,0.1-0.2,0c-0.1,0-0.2-0.1-0.2,0c0,0-0.1,0-0.1,0
		C19.4,8.4,19.4,8.5,19.4,8.5L19.4,8.5z"/>
	<path class="st0" d="M17.9,9.4C17.9,9.4,17.9,9.4,17.9,9.4c0,0,0.1,0,0.1,0c0.1,0,0.1-0.1,0.2-0.1c0,0,0.1-0.1,0.1,0
		c0,0,0,0.1,0,0.2c0,0-0.1,0-0.1,0c0-0.1,0.1-0.1,0-0.1c-0.1,0-0.2,0.1-0.2,0.1c0,0.1,0.1,0.1,0.2,0.1c0,0,0,0-0.1,0.1
		c0,0-0.1-0.1-0.1,0c0,0.1-0.1,0.2-0.1,0.2c0,0,0.1,0.1,0.1,0.1c-0.1,0-0.1,0-0.2-0.1c0,0,0-0.1,0-0.1C17.9,9.8,18,9.7,18,9.6
		c0,0-0.1,0-0.1,0C17.9,9.6,18,9.5,17.9,9.4c0,0.1-0.1,0.1-0.1,0.2c0,0,0,0.1-0.1,0.1c0,0-0.1,0-0.1,0c0,0,0,0,0,0
		C17.7,9.5,17.8,9.5,17.9,9.4z"/>
	<path class="st0" d="M20.8,21.6c0.1,0.1,0.2,0.1,0.3,0c0,0,0,0,0.1,0c0,0,0.1,0,0.1,0c0,0,0-0.1,0-0.1c0,0,0,0-0.1,0
		c-0.1,0-0.2,0-0.2-0.1c0,0-0.1,0-0.1-0.1c0.1,0,0.3,0,0.4,0c0.1,0.1,0.3,0.1,0.4,0.3c0,0,0,0,0,0c0,0,0,0-0.1,0c-0.2,0-0.4,0-0.6,0
		C20.8,21.7,20.8,21.7,20.8,21.6z"/>
	<path class="st0" d="M22.7,20.2c0.1-0.1,0.1-0.1,0-0.3c0.1,0,0.1,0,0.2,0.1c0,0,0,0.1,0,0.1c0,0.1-0.1,0.2-0.1,0.2c0,0,0,0,0,0
		c0,0,0.1,0,0.1,0c0,0,0,0,0,0c0,0,0,0.1,0,0.1c0,0,0.1,0,0.1-0.1c0-0.1,0.1-0.1,0.2-0.1c0,0,0,0,0,0c-0.1,0.1-0.2,0.2-0.3,0.2
		c-0.1,0-0.1,0-0.2,0.1c-0.1,0-0.1,0.1-0.2,0.1c0-0.2,0-0.2,0.1-0.2c0,0.1-0.1,0.1-0.1,0.1c0.1,0,0.2-0.1,0.2-0.1
		c0-0.1-0.1-0.1-0.2-0.1C22.5,20.2,22.7,20.4,22.7,20.2z"/>
	<path class="st0" d="M20.8,21.6c0,0.1,0.1,0.1,0.2,0.1c-0.2,0.1-0.3,0.2-0.4,0.3c0,0,0,0,0,0.1c0,0.1,0,0.1-0.1,0.1c0,0,0,0-0.1,0
		c0,0,0,0.1-0.1,0.1c0,0,0-0.1,0.1-0.1c0.1,0,0.1-0.1,0.2-0.1l0,0c0,0,0.1,0,0.1-0.1C20.6,21.8,20.7,21.7,20.8,21.6z"/>
	<path class="st0" d="M20,6.9C20.1,7,20.1,7,20.1,7.1c0,0.1,0,0.2,0,0.3c0,0,0,0.1,0,0.1c0,0,0.1,0,0,0c0,0,0,0-0.1,0
		c0,0,0-0.1,0-0.1c0-0.1,0-0.2-0.2-0.2c0,0-0.1,0-0.1-0.1c0-0.1,0.1,0,0.1,0c0,0,0,0,0,0C20,7.1,20,7.1,20,6.9z"/>
	<path class="st0" d="M20.5,22.5c0.1-0.1,0.1-0.1,0.1,0c0,0,0,0.1,0,0.1c0,0.1,0,0.2,0.2,0.2c0,0,0.1,0,0.1,0.1c0,0.1-0.1,0-0.1,0
		c0,0,0,0,0,0c-0.1,0-0.2,0-0.1,0.1c-0.1,0-0.1-0.1-0.1-0.1c0-0.1,0-0.2,0-0.3C20.6,22.6,20.6,22.5,20.5,22.5z"/>
	<path class="st0" d="M19.7,21.1c0.2,0,0.4,0,0.6,0c0-0.1-0.1-0.1,0-0.1c0,0,0.1,0,0.1,0c0,0,0.1,0,0.2,0c-0.1,0.1-0.1,0-0.2,0
		c0,0.1,0.1,0,0.1,0.1C20.2,21.2,20.1,21.2,19.7,21.1z"/>
	<path class="st0" d="M20.9,8.9c-0.1,0-0.3,0-0.4,0c-0.1,0-0.1,0-0.1,0.1c0,0.1,0,0.1-0.1,0.1c-0.1,0-0.1-0.1-0.2,0
		c0.1-0.1,0.1-0.1,0.2,0c0-0.1-0.1-0.1-0.1-0.1C20.5,8.8,20.7,8.8,20.9,8.9z"/>
	<path class="st0" d="M19,8.8c-0.1,0-0.1,0-0.1-0.1c0-0.1,0.1-0.1,0.2-0.1c0,0,0,0,0.1,0c0,0,0,0,0.1,0C19.2,8.7,19.1,8.8,19,8.8z"
		/>
	<path class="st0" d="M21.8,21.3c-0.1,0-0.1,0-0.1,0.1c-0.1,0-0.1-0.1-0.2,0c0,0,0,0,0,0c0-0.1,0.1-0.2,0.1-0.2
		C21.7,21.1,21.8,21.2,21.8,21.3C21.8,21.3,21.8,21.3,21.8,21.3z"/>
	<path class="st0" d="M19.3,7.6c0.1,0,0.1,0.1,0.2,0.1c0,0-0.1,0.1-0.1,0c-0.1-0.1-0.1-0.1-0.2,0c0,0,0,0,0,0c0-0.1-0.1,0-0.1-0.1
		C19.1,7.7,19.2,7.6,19.3,7.6L19.3,7.6z"/>
	<path class="st0" d="M19,8.2c-0.1,0-0.1-0.1-0.2-0.1c0-0.1,0.2-0.1,0.3-0.2C19.1,8,19.1,8.1,19,8.2C19,8.1,19,8.2,19,8.2
		C19,8.2,19,8.2,19,8.2z"/>
	<path class="st0" d="M20.1,8.7C20,8.7,20.1,8.7,20.1,8.7c0.2-0.1,0.2-0.1,0.2-0.2c0-0.1,0.1-0.1,0.1-0.1c0,0,0,0,0.1,0
		c0,0,0,0.1,0,0.1c0,0-0.1,0.1,0,0.1c0,0,0,0.1-0.1,0.1C20.2,8.7,20.1,8.7,20.1,8.7z"/>
	<path class="st0" d="M21.2,22.2c0,0,0.1-0.1,0.1,0c0.1,0.1,0.2,0.1,0.2-0.1c0.1,0,0,0.1,0,0.1c0.2,0.1-0.1,0.1,0,0.2
		C21.4,22.4,21.3,22.3,21.2,22.2C21.2,22.3,21.2,22.2,21.2,22.2z"/>
	<path class="st0" d="M21.9,21.9c-0.1,0.1-0.2,0.1-0.2,0.1c0,0,0,0,0,0c0,0,0-0.1,0-0.1c0,0,0.1-0.1,0.1-0.1c0,0,0,0,0.1,0
		C21.8,21.9,21.8,21.9,21.9,21.9z"/>
	<path class="st0" d="M25.2,6.9c0-0.2,0.2-0.2,0.2-0.4c0.1,0,0.1,0,0.1,0c0.1,0,0,0.1,0,0.1C25.4,6.7,25.3,6.9,25.2,6.9z"/>
	<path class="st0" d="M26,18.9c-0.2,0.1-0.5-0.1-0.5-0.3C25.6,18.8,25.8,18.8,26,18.9z"/>
	<path class="st0" d="M15.4,23.1c0,0.2-0.2,0.2-0.2,0.4c0,0-0.1,0-0.1-0.1c-0.1,0,0-0.1,0-0.1C15.3,23.3,15.3,23.1,15.4,23.1z"/>
	<path class="st0" d="M20.5,21.6c-0.1-0.1-0.1-0.2,0-0.2c0,0,0.1,0,0.1-0.1c0,0,0-0.1,0.1-0.1c0.1,0,0,0.1,0.1,0.1c0,0,0,0.1,0,0.1
		C20.6,21.5,20.6,21.5,20.5,21.6z"/>
	<path class="st0" d="M20.6,21.3C20.6,21.3,20.6,21.3,20.6,21.3c-0.2,0.1-0.2,0.1-0.2,0.2c0,0,0,0,0,0c0,0.1-0.1,0.1-0.1,0.1
		c0,0,0,0-0.1,0c0,0,0-0.1,0-0.1c0,0,0.1-0.1,0-0.2c0,0,0-0.1,0.1-0.1C20.5,21.3,20.5,21.3,20.6,21.3z"/>
	<path class="st0" d="M20.1,8.4c0.1,0.1,0,0.1,0,0.2c0,0-0.1,0-0.1,0.1c0,0,0,0.1-0.1,0.1c-0.1,0,0-0.1-0.1-0.1c0,0,0-0.1,0-0.1
		C20,8.6,20.1,8.5,20.1,8.4z"/>
	<path class="st0" d="M15.1,11.3C15.1,11.3,15.1,11.3,15.1,11.3c-0.2-0.1-0.3-0.1-0.5-0.2C14.8,11,15,11.1,15.1,11.3z"/>
	<path class="st0" d="M22.3,21.9c-0.1,0-0.2,0-0.3,0c0,0-0.1,0-0.1,0c0,0,0-0.1,0.1-0.1C22.1,21.8,22.2,21.9,22.3,21.9z"/>
	<path class="st0" d="M16,22.6c0,0-0.1,0-0.1-0.1c0-0.1,0-0.1,0.1-0.1c0.1,0,0.1-0.1,0.2-0.1c0,0,0.1,0,0.1,0.1c0,0,0,0-0.1,0
		C16.1,22.5,16.1,22.5,16,22.6C16.1,22.6,16,22.6,16,22.6z"/>
	<path class="st0" d="M19.6,24c-0.1-0.1-0.3-0.1-0.5-0.2c0.1,0,0.2,0,0.3,0C19.5,23.9,19.5,24,19.6,24z"/>
	<path class="st0" d="M24.5,7.6C24.5,7.6,24.5,7.6,24.5,7.6c-0.1-0.1-0.1-0.1,0-0.1c0,0,0.1,0,0.1,0c0,0,0-0.1,0-0.1
		c0.1,0,0.1,0,0.1,0.1c0,0,0,0,0,0C24.7,7.5,24.6,7.6,24.5,7.6z"/>
	<path class="st0" d="M18.4,8.1c0.1,0,0.2,0,0.3-0.1c0,0,0.1,0,0.1,0c0,0,0,0.1-0.1,0.1c0,0-0.1,0-0.1,0c0,0-0.1,0.1-0.1,0
		C18.5,8.1,18.4,8.1,18.4,8.1z"/>
	<path class="st0" d="M19.4,8.5c0.1-0.1,0.2,0,0.3,0c0,0,0.1,0,0.1,0.1c0,0-0.1,0-0.1,0C19.6,8.6,19.6,8.6,19.4,8.5
		C19.4,8.6,19.4,8.6,19.4,8.5C19.4,8.5,19.4,8.5,19.4,8.5z"/>
	<path class="st0" d="M20.1,23.1C20.1,23.1,20.1,23,20.1,23.1c0.1-0.1,0.2-0.1,0.2,0c0,0,0,0,0,0c0,0,0,0,0,0c0,0,0,0.1-0.1,0.1
		C20.1,23.2,20,23.2,20.1,23.1z"/>
	<path class="st0" d="M20,7.8c-0.1,0-0.1-0.1-0.1-0.1c0-0.1,0.1,0,0.2-0.1c0,0,0,0.1,0.1,0.1C20,7.7,20,7.8,20,7.8z"/>
	<path class="st0" d="M20.8,8.3C20.9,8.3,20.9,8.4,20.8,8.3c0,0.1,0,0.2-0.1,0.2c-0.1,0,0,0.1-0.1,0.1c0,0,0-0.1,0-0.1
		C20.7,8.5,20.7,8.3,20.8,8.3z"/>
	<path class="st0" d="M20.6,22.2c0.1,0,0.2,0.1,0.1,0.1c0,0-0.1,0.1-0.2,0.1c-0.1,0,0-0.1-0.1-0.1C20.6,22.3,20.6,22.2,20.6,22.2z"
		/>
	<path class="st0" d="M20,21.4c0,0.1,0,0.1,0,0.1c0,0,0,0.1-0.1,0.1c0,0,0,0-0.1,0c0,0,0-0.1,0-0.1C19.9,21.5,19.9,21.5,20,21.4
		C19.9,21.4,19.9,21.4,20,21.4C20,21.4,20,21.4,20,21.4z"/>
	<path class="st0" d="M21.2,7.7c-0.1,0.1-0.2,0.2-0.4,0.2C20.9,7.8,21.1,7.7,21.2,7.7z"/>
	<path class="st0" d="M20.8,23c0.1-0.1,0.1-0.1,0.2-0.1c0,0,0.1,0.1,0,0.2C21,23,20.9,23,20.8,23z"/>
	<path class="st0" d="M20.6,6.9C20.6,6.9,20.6,7,20.6,6.9c-0.1,0.1-0.2,0.1-0.2,0c0,0,0,0,0,0c0,0,0.1,0,0,0c0,0,0-0.1,0.1-0.1
		C20.6,6.8,20.6,6.8,20.6,6.9z"/>
	<path class="st0" d="M24.9,7.3C24.9,7.3,24.9,7.3,24.9,7.3C24.8,7.2,25,7.2,25,7.1c0,0,0.1,0,0.1,0C25.1,7.3,25,7.3,24.9,7.3z"/>
	<path class="st0" d="M19.6,6.9C19.7,7,19.7,7,19.9,7c0,0.1-0.1,0.1-0.2,0.1C19.6,7,19.6,6.9,19.6,6.9z"/>
	<path class="st0" d="M18.2,17.1c0.1,0,0.1,0,0.2,0c0.1,0,0,0.1,0,0.1c0,0-0.1,0-0.1,0C18.3,17.2,18.3,17.2,18.2,17.1
		C18.2,17.2,18.2,17.1,18.2,17.1z"/>
	<path class="st0" d="M22.1,21C22.1,21,22.1,21,22.1,21C22.1,21,22.1,21,22.1,21c0-0.1,0.1-0.1,0.2-0.1c0,0,0,0,0.1,0c0,0,0,0,0,0.1
		C22.3,21,22.2,21,22.1,21z"/>
	<path class="st0" d="M21.4,7.3c0,0.1,0,0.2-0.1,0.2C21.3,7.5,21.2,7.4,21.4,7.3z"/>
	<path class="st0" d="M19.4,22.4c0,0.1,0,0.2-0.1,0.2C19.3,22.6,19.2,22.5,19.4,22.4z"/>
	<path class="st0" d="M19.5,22.3c0.1-0.2,0.2-0.2,0.3-0.2C19.8,22.1,19.7,22.2,19.5,22.3z"/>
	<path class="st0" d="M15.7,22.7C15.8,22.7,15.8,22.7,15.7,22.7c0.1,0.2-0.1,0.1-0.1,0.2c0,0-0.1,0-0.1,0
		C15.6,22.7,15.7,22.7,15.7,22.7z"/>
	<path class="st0" d="M19.9,6.7C19.9,6.7,19.9,6.7,19.9,6.7c-0.1,0-0.2,0-0.2-0.1c0,0,0,0,0,0C19.7,6.6,19.8,6.6,19.9,6.7
		C19.9,6.6,19.9,6.7,19.9,6.7z"/>
	<path class="st0" d="M18.3,9.1C18.3,9.1,18.3,9.1,18.3,9.1C18.3,9,18.3,9,18.3,9.1C18.4,9,18.5,9,18.5,9c0,0,0,0,0,0c0,0,0,0,0,0
		C18.5,9.1,18.4,9.1,18.3,9.1z"/>
	<path class="st0" d="M17.4,8.6c0-0.1,0-0.1,0.1-0.2c0,0,0.1-0.1,0.1,0c0,0,0,0.1,0,0.1C17.5,8.5,17.4,8.6,17.4,8.6z"/>
	<path class="st0" d="M14.4,22.9c0,0.1-0.1,0.1,0,0.2c0,0,0,0-0.1,0c0,0,0,0,0-0.1C14.3,23,14.3,22.9,14.4,22.9z"/>
	<path class="st0" d="M18.7,9c0.1-0.1,0.1-0.1,0.2-0.1c0,0,0.1,0,0.1,0c0,0,0,0.1,0,0.1C18.8,9,18.8,9,18.7,9z"/>
	<path class="st0" d="M21.2,22.4c0.1,0,0.1-0.1,0.2-0.1c0,0,0,0.1,0,0.1C21.3,22.5,21.2,22.5,21.2,22.4z"/>
	<path class="st0" d="M27.2,6.4c-0.1,0-0.2,0.1-0.3,0.1C27,6.4,27.1,6.3,27.2,6.4z"/>
	<path class="st0" d="M26.2,7.1c0-0.1,0.1-0.1,0-0.2c0,0,0,0,0.1,0c0,0,0,0,0,0.1C26.4,7,26.3,7,26.2,7.1z"/>
	<path class="st0" d="M23.3,21.4c0,0.1,0,0.1-0.1,0.2c0,0-0.1,0-0.1,0c0,0,0-0.1,0-0.1C23.2,21.5,23.2,21.4,23.3,21.4z"/>
	<path class="st0" d="M21,23.4c-0.1,0-0.2,0-0.3-0.1C20.8,23.3,20.9,23.3,21,23.4z"/>
	<path class="st0" d="M21.9,21c0,0.1-0.1,0.1-0.2,0.1c0,0-0.1,0-0.1,0c0,0,0-0.1,0.1-0.1C21.8,21,21.9,21,21.9,21z"/>
	<path class="st0" d="M19.3,7.6c0-0.1-0.1-0.1,0-0.1c0.1,0,0.1,0,0.1,0.1C19.4,7.6,19.4,7.6,19.3,7.6C19.3,7.6,19.3,7.6,19.3,7.6z"
		/>
	<path class="st0" d="M22.9,21.7C22.8,21.7,22.8,21.6,22.9,21.7c-0.1-0.1,0-0.1,0-0.1C22.9,21.5,22.9,21.5,22.9,21.7
		C22.9,21.6,22.9,21.7,22.9,21.7z"/>
	<path class="st0" d="M12.3,20.7c0,0-0.1,0.1-0.1,0.1c0,0,0,0,0,0C12.2,20.7,12.2,20.7,12.3,20.7C12.3,20.6,12.3,20.7,12.3,20.7z"/>
	<path class="st0" d="M13.5,20.5C13.5,20.5,13.5,20.5,13.5,20.5c0.1,0,0.2,0,0.2,0c0,0,0,0,0,0C13.6,20.6,13.5,20.6,13.5,20.5z"/>
	<path class="st0" d="M20.7,7.1c-0.1,0-0.1,0.1-0.1,0.1c0,0-0.1,0,0-0.1C20.6,7.1,20.7,7,20.7,7.1z"/>
	<path class="st0" d="M22.2,8.9c-0.1,0-0.1,0-0.2,0C22.2,8.8,22.2,8.8,22.2,8.9C22.2,8.9,22.2,8.9,22.2,8.9z"/>
	<path class="st0" d="M21.5,8.7c0-0.1,0.1-0.1,0.1,0c0,0,0.1,0,0.1,0.1c0,0-0.1,0-0.1,0C21.6,8.7,21.6,8.8,21.5,8.7z"/>
	<path class="st0" d="M28.4,9.4c0-0.1-0.1-0.1,0-0.1c0,0,0-0.1,0.1-0.1C28.5,9.2,28.4,9.3,28.4,9.4z"/>
	<path class="st0" d="M18.4,21.1c0.1,0,0.1,0,0.2,0C18.6,21,18.5,21.3,18.4,21.1C18.4,21.1,18.4,21.1,18.4,21.1z"/>
	<path class="st0" d="M19.1,21.3c-0.1,0.1-0.2,0-0.2-0.1C19,21.2,19,21.3,19.1,21.3z"/>
	<path class="st0" d="M17.9,8.4C17.9,8.4,17.8,8.5,17.9,8.4c-0.1,0.1-0.1,0.1-0.1,0C17.7,8.4,17.8,8.3,17.9,8.4
		C17.8,8.3,17.9,8.4,17.9,8.4z"/>
	<path class="st0" d="M19.9,22.9c0.1,0,0.1-0.1,0.1-0.1c0,0,0,0,0,0.1C20,22.9,20,22.9,19.9,22.9z"/>
	<path class="st0" d="M23.1,23.1C23,23.1,23,23.1,23.1,23.1C23,23,23,23,23.1,23C23.1,23,23.1,23,23.1,23.1
		C23.1,23.1,23.1,23.1,23.1,23.1z"/>
	<path class="st0" d="M21,6.5C21,6.5,21,6.5,21,6.5c-0.1-0.1-0.1-0.1-0.1-0.1c0,0,0,0,0,0C21,6.4,21,6.4,21,6.5
		C21,6.5,21,6.5,21,6.5z"/>
	<path class="st0" d="M20.5,22c-0.1,0-0.1-0.1-0.1-0.1C20.5,21.8,20.5,21.9,20.5,22C20.5,22,20.5,22,20.5,22z"/>
	<path class="st0" d="M17.5,7C17.5,6.9,17.5,6.9,17.5,7c0.1-0.1,0.1,0,0.1,0C17.6,7,17.6,7,17.5,7C17.5,7,17.5,7,17.5,7z"/>
	<path class="st0" d="M19.3,8.8c-0.1-0.1-0.1-0.1-0.1-0.1c0,0,0.1,0,0.1,0C19.4,8.7,19.3,8.8,19.3,8.8z"/>
	<path class="st0" d="M24.9,7C24.9,7,24.9,7,24.9,7c0.1,0,0.1,0,0.2,0c0,0,0,0,0,0C25,7.1,25,7.1,24.9,7z"/>
	<path class="st0" d="M21.4,7C21.4,7,21.4,7,21.4,7c-0.1,0-0.1,0-0.1,0C21.3,6.9,21.3,6.9,21.4,7C21.4,6.9,21.4,6.9,21.4,7z"/>
	<path class="st0" d="M22.8,22.4C22.8,22.4,22.8,22.4,22.8,22.4c0-0.1,0-0.1,0-0.1C22.9,22.3,22.9,22.3,22.8,22.4
		C22.9,22.3,22.9,22.4,22.8,22.4z"/>
	<path class="st0" d="M22.6,23.3C22.6,23.3,22.6,23.3,22.6,23.3c-0.1,0.1-0.1,0-0.1,0C22.5,23.3,22.5,23.2,22.6,23.3
		C22.6,23.2,22.6,23.2,22.6,23.3z"/>
	<path class="st0" d="M21.6,22.5C21.7,22.5,21.7,22.5,21.6,22.5C21.7,22.6,21.7,22.6,21.6,22.5C21.6,22.6,21.5,22.6,21.6,22.5
		C21.6,22.5,21.6,22.5,21.6,22.5z"/>
	<path class="st0" d="M23.1,22.1C23.1,22.2,23.1,22.2,23.1,22.1c-0.1,0-0.1,0-0.1,0C23,22.1,23,22.1,23.1,22.1
		C23.1,22.1,23.1,22.1,23.1,22.1z"/>
	<path class="st0" d="M17.4,10.1c0,0,0.1,0.1,0,0.1c0,0-0.1,0-0.1,0C17.3,10.2,17.4,10.2,17.4,10.1z"/>
	<path class="st0" d="M21.4,21.2C21.4,21.2,21.4,21.2,21.4,21.2c0.1,0.1,0,0.1,0,0.1C21.3,21.3,21.3,21.3,21.4,21.2
		C21.3,21.2,21.3,21.2,21.4,21.2z"/>
	<path class="st0" d="M17.9,7.7C17.9,7.7,17.8,7.7,17.9,7.7c-0.1,0.1-0.1,0.1-0.1,0C17.7,7.7,17.8,7.6,17.9,7.7
		C17.8,7.6,17.9,7.6,17.9,7.7z"/>
	<path class="st0" d="M13.7,21.1C13.7,21.1,13.7,21.1,13.7,21.1c-0.1,0.1-0.1,0.1-0.1,0C13.6,21,13.7,21,13.7,21.1
		C13.7,21,13.7,21,13.7,21.1z"/>
	<path class="st0" d="M17.6,7.8C17.6,7.8,17.7,7.8,17.6,7.8C17.7,7.9,17.6,7.9,17.6,7.8C17.6,7.9,17.5,7.9,17.6,7.8
		C17.5,7.8,17.6,7.8,17.6,7.8z"/>
	<path class="st0" d="M20.1,6.5c-0.1,0.1-0.1,0.1-0.2,0.1C20,6.5,20,6.5,20.1,6.5z"/>
	<path class="st0" d="M25.8,8.6C25.7,8.6,25.7,8.6,25.8,8.6c-0.1-0.1-0.1-0.1,0-0.1C25.8,8.5,25.8,8.5,25.8,8.6
		C25.8,8.6,25.8,8.6,25.8,8.6z"/>
	<path class="st0" d="M18.3,7c0.1,0,0.1,0,0.1,0.1C18.4,7.1,18.4,7.1,18.3,7C18.3,7,18.3,7,18.3,7z"/>
	<path class="st0" d="M19.1,7.4C19.1,7.5,19.1,7.5,19.1,7.4c-0.1,0-0.1,0-0.1,0C18.9,7.4,19,7.4,19.1,7.4C19,7.4,19.1,7.4,19.1,7.4z
		"/>
	<path class="st0" d="M20.4,7.4C20.4,7.5,20.4,7.5,20.4,7.4c-0.1,0-0.1,0.1-0.1,0C20.2,7.4,20.3,7.4,20.4,7.4
		C20.3,7.4,20.4,7.4,20.4,7.4z"/>
	<path class="st0" d="M27.2,9.4C27.2,9.5,27.2,9.5,27.2,9.4c-0.1,0-0.1,0-0.1,0C27,9.4,27,9.4,27.2,9.4C27.1,9.4,27.1,9.4,27.2,9.4z
		"/>
	<path class="st0" d="M18.3,7.7c0,0,0.1,0,0.1,0c0,0,0,0.1,0,0.1C18.3,7.8,18.4,7.7,18.3,7.7C18.3,7.7,18.3,7.7,18.3,7.7z"/>
	<path class="st0" d="M19.3,21.5C19.3,21.5,19.2,21.5,19.3,21.5c-0.1-0.1,0-0.1,0-0.1C19.3,21.4,19.3,21.4,19.3,21.5
		C19.3,21.5,19.3,21.5,19.3,21.5z"/>
	<path class="st0" d="M16,9C15.9,9,15.9,9,16,9c0-0.1,0-0.1,0-0.1C16,8.9,16.1,8.9,16,9C16,8.9,16,9,16,9z"/>
	<path class="st0" d="M22.3,23C22.3,23,22.3,23,22.3,23c-0.1,0-0.1,0-0.1-0.1c0,0,0,0,0,0C22.3,22.9,22.3,23,22.3,23z"/>
	<path class="st0" d="M15.1,23c0.1,0,0.1,0,0.2,0C15.2,23.1,15.2,23.1,15.1,23z"/>
	<path class="st0" d="M24.7,21c0.1,0.1,0,0.1,0,0.1c0,0-0.1,0-0.1,0C24.6,21.1,24.7,21,24.7,21z"/>
	<path class="st0" d="M20.3,23.4C20.3,23.4,20.3,23.4,20.3,23.4c-0.1,0.1-0.1,0-0.1,0C20.2,23.3,20.3,23.3,20.3,23.4
		C20.3,23.3,20.3,23.3,20.3,23.4z"/>
	<path class="st0" d="M14.2,23.5c0-0.1,0-0.1,0.1-0.1C14.2,23.4,14.1,23.4,14.2,23.5z"/>
	<path class="st0" d="M20.5,23.5c0-0.1,0.1-0.1,0.1-0.1c0,0,0,0,0,0C20.6,23.5,20.6,23.5,20.5,23.5z"/>
	<path class="st0" d="M20.1,8c0.1,0,0.1,0,0.1,0.1C20.1,8.2,20.1,8.1,20.1,8C20.1,8,20.1,8,20.1,8z"/>
	<path class="st0" d="M19.8,22.5C19.8,22.5,19.8,22.5,19.8,22.5C19.7,22.6,19.7,22.5,19.8,22.5C19.7,22.5,19.7,22.4,19.8,22.5
		C19.8,22.4,19.8,22.5,19.8,22.5z"/>
	<path class="st0" d="M18.1,6.7C18.1,6.7,18.2,6.7,18.1,6.7C18.1,6.8,18.1,6.8,18.1,6.7C18.1,6.8,18,6.7,18.1,6.7
		C18,6.7,18.1,6.7,18.1,6.7z"/>
	<path class="st0" d="M17.4,21.6c0.1,0,0.1,0,0.1,0.1C17.4,21.7,17.4,21.6,17.4,21.6z"/>
	<path class="st0" d="M17.5,8.2C17.5,8.2,17.4,8.2,17.5,8.2c-0.1,0-0.1,0-0.1,0C17.4,8.2,17.4,8.1,17.5,8.2
		C17.5,8.1,17.5,8.2,17.5,8.2z"/>
	<path class="st0" d="M19.7,8.1C19.6,8,19.6,8.1,19.7,8.1C19.6,8,19.7,8,19.7,8.1C19.7,8,19.7,8,19.7,8.1C19.7,8.1,19.7,8,19.7,8.1z
		"/>
	<path class="st0" d="M22.4,22.3c-0.1,0-0.1,0-0.1-0.1C22.3,22.3,22.3,22.3,22.4,22.3z"/>
	<path class="st0" d="M14.1,23.4C14.1,23.4,14.1,23.4,14.1,23.4c-0.1,0.1,0,0.2-0.1,0.1c0,0,0,0,0,0C14,23.4,14,23.4,14.1,23.4
		C14,23.4,14.1,23.4,14.1,23.4z"/>
	<path class="st0" d="M25.3,7c0.1-0.1,0.1-0.1,0.2,0C25.4,7,25.4,7,25.3,7z"/>
	<path class="st0" d="M19.6,23.5C19.7,23.5,19.7,23.5,19.6,23.5c0.1,0.1,0.1,0.1,0.1,0.1C19.7,23.6,19.7,23.6,19.6,23.5
		C19.6,23.5,19.6,23.5,19.6,23.5z"/>
	<path class="st0" d="M18.5,23.9c-0.1,0-0.1,0-0.1,0c0,0,0,0,0,0C18.4,23.9,18.4,23.9,18.5,23.9z"/>
	<path class="st0" d="M16.7,9C16.6,9,16.6,9,16.7,9C16.6,8.9,16.6,8.9,16.7,9C16.7,8.9,16.7,8.9,16.7,9C16.7,9,16.7,9,16.7,9z"/>
	<path class="st0" d="M28.8,9.9C28.8,9.9,28.7,9.9,28.8,9.9c-0.1,0-0.1,0-0.1,0C28.7,9.8,28.7,9.8,28.8,9.9
		C28.7,9.8,28.7,9.9,28.8,9.9z"/>
	<path class="st0" d="M25.6,6.9C25.6,7,25.6,7,25.6,6.9C25.6,7,25.5,7,25.6,6.9C25.6,6.9,25.5,6.9,25.6,6.9
		C25.6,6.9,25.6,6.9,25.6,6.9z"/>
	<path class="st0" d="M21.2,7.2C21.2,7.2,21.2,7.3,21.2,7.2C21.1,7.3,21.1,7.2,21.2,7.2C21.1,7.2,21.1,7.2,21.2,7.2
		C21.2,7.2,21.2,7.2,21.2,7.2z"/>
	<path class="st0" d="M20.9,22.2C20.9,22.2,20.9,22.3,20.9,22.2C20.9,22.2,20.8,22.2,20.9,22.2C20.8,22.2,20.9,22.2,20.9,22.2
		C20.9,22.2,20.9,22.2,20.9,22.2z"/>
	<path class="st0" d="M19.2,23c0.1,0,0.1,0,0.1,0c0,0,0,0,0,0C19.3,23.1,19.2,23.1,19.2,23z"/>
	<path class="st0" d="M23.5,7.8c0.1,0,0.1-0.1,0.1,0c0,0,0,0,0,0C23.7,7.8,23.6,7.8,23.5,7.8z"/>
	<path class="st0" d="M23.3,8.4c-0.1,0-0.1-0.1-0.1-0.1C23.3,8.3,23.2,8.4,23.3,8.4z"/>
	<path class="st0" d="M20.4,8.3C20.4,8.3,20.4,8.3,20.4,8.3C20.3,8.3,20.3,8.3,20.4,8.3C20.3,8.2,20.3,8.2,20.4,8.3
		C20.4,8.2,20.4,8.2,20.4,8.3z"/>
	<path class="st0" d="M26.6,6.6C26.6,6.6,26.6,6.6,26.6,6.6c0.1,0,0-0.1,0.1-0.1c0,0,0,0,0,0C26.7,6.6,26.6,6.6,26.6,6.6z"/>
	<path class="st0" d="M21,7.5C21,7.5,20.9,7.5,21,7.5C20.9,7.5,20.9,7.5,21,7.5C20.9,7.5,20.9,7.5,21,7.5C20.9,7.5,21,7.5,21,7.5z"
		/>
	<path class="st0" d="M20.1,22.2C20.2,22.2,20.2,22.2,20.1,22.2c0,0.1,0,0.1,0,0.1C20.1,22.3,20.1,22.3,20.1,22.2
		C20.1,22.2,20.1,22.2,20.1,22.2z"/>
	<path class="st0" d="M18.5,7.6C18.5,7.6,18.6,7.6,18.5,7.6C18.6,7.6,18.5,7.6,18.5,7.6C18.5,7.6,18.5,7.7,18.5,7.6
		C18.5,7.6,18.5,7.6,18.5,7.6z"/>
	<path class="st0" d="M23.4,7.9c0-0.1,0.1-0.1,0.2-0.1C23.5,7.9,23.4,7.9,23.4,7.9z"/>
	<path class="st0" d="M14.9,10.2C14.9,10.2,14.9,10.2,14.9,10.2c0-0.1,0-0.1,0-0.1C15,10.1,15,10.1,14.9,10.2
		C15,10.2,15,10.2,14.9,10.2z"/>
	<path class="st0" d="M19.6,22.8C19.6,22.8,19.5,22.8,19.6,22.8C19.5,22.8,19.5,22.8,19.6,22.8C19.5,22.8,19.5,22.7,19.6,22.8
		C19.6,22.7,19.6,22.8,19.6,22.8z"/>
	<path class="st0" d="M15.4,9.7C15.4,9.7,15.4,9.7,15.4,9.7C15.4,9.7,15.4,9.7,15.4,9.7C15.4,9.8,15.4,9.8,15.4,9.7
		C15.4,9.8,15.4,9.8,15.4,9.7z"/>
	<path class="st0" d="M15.7,23c-0.1,0-0.1,0-0.2,0C15.6,22.9,15.7,22.9,15.7,23z"/>
	<path class="st0" d="M12,20.1C12,20.2,12,20.2,12,20.1c0,0-0.1,0-0.1,0C11.9,20.1,11.9,20.1,12,20.1C12,20.1,12,20.1,12,20.1z"/>
	<path class="st0" d="M27.5,8.9c0,0,0,0.1,0,0.1c0,0,0,0,0,0C27.4,9,27.5,9,27.5,8.9z"/>
	<path class="st0" d="M27,8.9C27,8.9,27,9,27,8.9c-0.1,0.1-0.1,0.1-0.1,0C26.9,8.9,26.9,8.9,27,8.9C27,8.9,27,8.9,27,8.9z"/>
	<path class="st0" d="M20.9,8.1c-0.1,0-0.1,0-0.2,0C20.7,8.1,20.8,8.1,20.9,8.1z"/>
	<path class="st0" d="M21,8.1c-0.1,0-0.1,0-0.1,0c0,0,0,0,0,0C20.9,8,21,8,21,8.1z"/>
	<path class="st0" d="M12.7,20.8c-0.1,0-0.1,0-0.1,0c0,0,0,0,0,0C12.6,20.7,12.7,20.7,12.7,20.8z"/>
	<path class="st0" d="M13.1,21.1C13.1,21,13.1,21,13.1,21.1c0-0.1,0-0.1,0-0.2c0,0,0,0,0,0C13.2,21,13.2,21,13.1,21.1z"/>
	<path class="st0" d="M25.6,19.8C25.6,19.8,25.7,19.8,25.6,19.8c0.1-0.1,0.1-0.1,0.1,0C25.7,19.8,25.7,19.9,25.6,19.8
		C25.6,19.9,25.6,19.9,25.6,19.8z"/>
	<path class="st0" d="M14.9,21.5c0,0-0.1,0-0.1-0.1c0,0,0,0,0,0C14.9,21.4,14.9,21.4,14.9,21.5z"/>
	<path class="st0" d="M20.7,8.7c0.1-0.1,0.1-0.1,0.2-0.1C20.9,8.6,20.8,8.7,20.7,8.7z"/>
	<path class="st0" d="M20.3,21.7C20.3,21.8,20.3,21.8,20.3,21.7C20.2,21.8,20.2,21.8,20.3,21.7C20.2,21.7,20.3,21.7,20.3,21.7
		C20.3,21.7,20.3,21.7,20.3,21.7z"/>
	<path class="st0" d="M14.9,23.8c0,0,0,0.1,0,0.1C14.9,23.9,14.8,23.9,14.9,23.8C14.8,23.8,14.9,23.8,14.9,23.8z"/>
	<path class="st0" d="M23.2,21.8C23.2,21.8,23.2,21.8,23.2,21.8C23.2,21.8,23.2,21.8,23.2,21.8C23.2,21.8,23.3,21.8,23.2,21.8
		C23.3,21.8,23.2,21.8,23.2,21.8z"/>
	<path class="st0" d="M22.6,22.1C22.6,22.2,22.6,22.2,22.6,22.1c-0.1,0-0.1,0-0.1,0C22.5,22.1,22.6,22.1,22.6,22.1
		C22.6,22.1,22.6,22.1,22.6,22.1z"/>
	<path class="st0" d="M17.3,22.1c0,0.1-0.1,0.1-0.1,0.1c0,0,0,0,0,0C17.2,22.1,17.2,22.1,17.3,22.1z"/>
	<path class="st0" d="M22,6.5C22,6.5,22,6.4,22,6.5c0-0.1,0-0.1,0-0.1C22,6.4,22,6.4,22,6.5C22,6.4,22,6.5,22,6.5z"/>
	<path class="st0" d="M22.2,6.1c0.1,0,0.1,0,0.1,0c0,0,0,0,0,0C22.2,6.1,22.2,6.1,22.2,6.1z"/>
	<path class="st0" d="M19.6,21.9c0.1,0,0.1,0,0.2,0c0,0,0,0,0,0C19.7,22,19.7,21.9,19.6,21.9z"/>
	<path class="st0" d="M29.7,10.8c0,0,0.1,0.1,0.1,0.1C29.7,10.9,29.7,10.8,29.7,10.8z"/>
	<path class="st0" d="M19.9,21.3c-0.1,0.1-0.1,0.1-0.2,0.1C19.7,21.4,19.8,21.3,19.9,21.3z"/>
	<path class="st0" d="M27.9,9.2c0.1,0,0.1,0,0.1,0c0,0,0,0,0,0C28,9.3,28,9.3,27.9,9.2z"/>
	<path class="st0" d="M18.1,7.8C18.1,7.9,18.1,7.9,18.1,7.8C18,7.9,18,7.9,18.1,7.8C18,7.8,18,7.8,18.1,7.8
		C18.1,7.8,18.1,7.8,18.1,7.8z"/>
	<path class="st0" d="M18.9,9.4C18.9,9.4,18.9,9.3,18.9,9.4C19,9.3,19,9.3,19,9.4C19,9.4,18.9,9.4,18.9,9.4z"/>
	<path class="st0" d="M20.4,6.6C20.4,6.7,20.4,6.7,20.4,6.6c-0.1,0.1-0.1,0.1-0.1,0C20.3,6.6,20.3,6.6,20.4,6.6
		C20.4,6.6,20.4,6.6,20.4,6.6z"/>
	<path class="st0" d="M22.5,20.1c0.1,0,0.1,0.1,0.1,0.2C22.6,20.2,22.6,20.1,22.5,20.1z"/>
	<path class="st0" d="M14.6,23.9C14.6,23.9,14.6,23.9,14.6,23.9c0,0.1,0,0.1,0,0.1C14.6,24,14.5,23.9,14.6,23.9
		C14.5,23.9,14.6,23.9,14.6,23.9z"/>
	<path class="st0" d="M18.2,6.6C18.2,6.5,18.2,6.5,18.2,6.6C18.2,6.5,18.3,6.5,18.2,6.6C18.2,6.6,18.2,6.6,18.2,6.6z"/>
	<path class="st0" d="M20,21.2c-0.1,0.1-0.1,0-0.2,0C19.9,21.2,19.9,21.2,20,21.2z"/>
	<path class="st0" d="M21.3,6.6c-0.1,0-0.1-0.1-0.1-0.1C21.3,6.5,21.3,6.5,21.3,6.6z"/>
	<path class="st0" d="M15.5,23C15.5,23,15.5,23,15.5,23C15.4,23,15.4,23,15.5,23C15.4,23,15.4,22.9,15.5,23
		C15.5,22.9,15.5,22.9,15.5,23z"/>
	<path class="st0" d="M20.6,8.7c0.1,0,0.1,0,0.1,0C20.7,8.8,20.7,8.8,20.6,8.7z"/>
	<path class="st0" d="M23,6.4C23,6.5,22.9,6.5,23,6.4C22.9,6.5,22.9,6.4,23,6.4C22.9,6.4,22.9,6.4,23,6.4C23,6.4,23,6.4,23,6.4z"/>
	<path class="st0" d="M22.7,5.9C22.7,5.9,22.7,5.9,22.7,5.9C22.7,5.9,22.7,5.9,22.7,5.9C22.7,5.8,22.7,5.8,22.7,5.9
		C22.7,5.8,22.7,5.8,22.7,5.9z"/>
	<path class="st0" d="M20,6.4C20,6.5,20,6.5,20,6.4C19.9,6.5,19.9,6.5,20,6.4C19.9,6.4,20,6.4,20,6.4C20,6.4,20,6.4,20,6.4z"/>
	<path class="st0" d="M15.1,23.1C15.1,23.1,15.1,23.1,15.1,23.1C15,23.1,15,23.1,15.1,23.1C15,23,15,23,15.1,23.1
		C15.1,23,15.1,23,15.1,23.1z"/>
	<path class="st0" d="M25.3,20.2C25.3,20.3,25.3,20.3,25.3,20.2C25.2,20.3,25.2,20.3,25.3,20.2C25.2,20.2,25.2,20.2,25.3,20.2
		C25.3,20.2,25.3,20.2,25.3,20.2z"/>
	<path class="st0" d="M17.1,22.2C17,22.2,17,22.3,17.1,22.2C16.9,22.2,17,22.2,17.1,22.2z"/>
	<path class="st0" d="M19.5,23.3C19.6,23.3,19.6,23.3,19.5,23.3C19.6,23.4,19.6,23.4,19.5,23.3C19.5,23.4,19.5,23.4,19.5,23.3
		C19.5,23.3,19.5,23.3,19.5,23.3z"/>
	<path class="st0" d="M20,22.2C20,22.2,20,22.2,20,22.2C20,22.2,19.9,22.2,20,22.2C20,22.1,20,22.1,20,22.2C20,22.1,20,22.2,20,22.2
		z"/>
	<path class="st0" d="M20.5,7.7C20.5,7.7,20.6,7.7,20.5,7.7c0,0.1,0,0.1,0,0.1C20.5,7.8,20.5,7.8,20.5,7.7
		C20.5,7.7,20.5,7.7,20.5,7.7z"/>
	<path class="st0" d="M21.8,23.3C21.9,23.3,21.9,23.3,21.8,23.3C21.9,23.4,21.8,23.4,21.8,23.3C21.8,23.4,21.8,23.4,21.8,23.3
		C21.8,23.3,21.8,23.3,21.8,23.3z"/>
	<path class="st0" d="M15.4,21.7C15.4,21.7,15.4,21.7,15.4,21.7C15.4,21.7,15.4,21.7,15.4,21.7C15.4,21.6,15.4,21.6,15.4,21.7
		C15.4,21.6,15.4,21.6,15.4,21.7z"/>
	<path class="st0" d="M21.1,6.7C21.1,6.6,21.1,6.6,21.1,6.7C21.1,6.6,21.2,6.6,21.1,6.7C21.1,6.7,21.1,6.7,21.1,6.7
		C21.1,6.7,21.1,6.7,21.1,6.7z"/>
	<path class="st0" d="M18.6,23.5C18.7,23.5,18.7,23.6,18.6,23.5c0.1,0.1,0,0.1,0,0.1C18.6,23.6,18.6,23.6,18.6,23.5
		C18.6,23.6,18.6,23.5,18.6,23.5z"/>
	<path class="st0" d="M18.2,22.4C18.3,22.4,18.3,22.4,18.2,22.4C18.3,22.5,18.3,22.5,18.2,22.4C18.2,22.5,18.2,22.5,18.2,22.4
		C18.2,22.4,18.2,22.4,18.2,22.4z"/>
	<path class="st0" d="M26.4,6.6c0-0.1,0.1-0.1,0.1-0.1C26.5,6.6,26.5,6.6,26.4,6.6z"/>
	<path class="st0" d="M20.2,22.6c0.1,0,0.1,0,0.1,0c0,0,0,0,0,0C20.3,22.6,20.3,22.6,20.2,22.6z"/>
	<path class="st0" d="M18,24.1C18,24.2,17.9,24.2,18,24.1C17.9,24.2,17.9,24.1,18,24.1C17.9,24.1,17.9,24.1,18,24.1
		C18,24.1,18,24.1,18,24.1z"/>
	<g>
		<polygon class="st0" points="21.8,21.3 21.8,21.3 21.8,21.3 		"/>
		<path class="st0" d="M26.6,14.8c-0.1-0.1-0.1-0.3-0.1-0.4c0-0.1,0-0.1,0-0.2c-0.2-0.3-0.1-0.6-0.3-0.9c0,0,0,0,0-0.1
			c0-0.2-0.1-0.3-0.2-0.5c0-0.1-0.1-0.2-0.1-0.2c0,0-0.1-0.1-0.1-0.2c0-0.2-0.1-0.3-0.2-0.5c0,0-0.1-0.1-0.1-0.1
			c-0.1-0.1-0.2-0.2-0.2-0.3c-0.1,0-0.1,0.1-0.1,0.1c0,0.2-0.1,0.5-0.1,0.7c-0.1,0.3-0.1,0.7,0,1c0,0,0,0,0,0c0,0-0.1,0.2-0.1,0.2
			c-0.1,0-0.1-0.1-0.1-0.1c0,0,0-0.1,0-0.1c-0.1-0.2-0.1-0.5,0-0.7c0-0.4,0.1-0.8,0.2-1.2c0-0.2,0-0.2-0.2-0.2
			c-0.2,0-0.3,0.1-0.5,0.1c-0.2,0.1-0.5,0.2-0.7,0.2c-0.1,0-0.2,0-0.3,0c-0.1-0.1-0.1-0.1-0.2,0.1c0,0.1,0,0.1-0.1,0.1
			c-0.2,0-0.2,0.2-0.3,0.3c0,0,0,0.1,0.1,0.1c0,0,0.1,0,0.1,0.1c0,0,0.1,0,0.1,0c0,0,0,0,0-0.1c0-0.1,0-0.1,0.1-0.1c0,0,0.1,0,0.1,0
			c0,0,0,0.1-0.1,0.1c0,0-0.1,0-0.1,0c0,0-0.1,0-0.2,0c0,0,0,0-0.1,0c0,0.1,0,0.1-0.1,0.1c0,0,0-0.1,0-0.1c-0.1-0.1-0.1-0.1-0.2,0
			c0,0.2,0.1,0.4,0.2,0.6c0.1,0,0.1,0,0.2,0c0,0,0,0,0,0c0-0.1-0.1-0.1-0.1-0.1c0,0,0.1-0.1,0-0.1c0,0,0,0,0,0c0,0,0.1,0.1,0,0.1
			c0,0.1,0,0.1,0.1,0.2c0.1,0,0.1-0.2,0.3-0.2c0.1,0.1,0,0.2,0,0.3c0,0,0,0,0,0.1c0,0,0-0.1,0-0.1C23,13,23,13.1,23,13.1
			c0,0.1,0.1,0.2,0.1,0.3c0,0.1,0,0.3,0,0.4c0-0.2-0.1-0.5-0.1-0.7c-0.1-0.1-0.1,0-0.2,0c0,0,0,0.1,0,0.1c0.1,0.2,0.1,0.4,0.1,0.6
			c0,0.1,0,0.2,0,0.2c0-0.1,0-0.2,0-0.3c0,0,0-0.1,0-0.1c-0.1-0.1-0.1-0.1,0-0.2c0,0,0-0.1,0-0.1c-0.1,0-0.2-0.1-0.2-0.2
			c-0.1,0-0.2,0-0.2,0.1c0,0,0,0.1,0.1,0.1c0.1,0.1,0.1,0.2,0,0.3c0,0.1,0.2,0,0.1,0.1c-0.1,0-0.2,0-0.2-0.1c0-0.1,0-0.1,0.1-0.1
			c0-0.1-0.1,0-0.1,0c0,0,0-0.1,0-0.1c0,0,0,0,0,0.1c0,0,0,0.1,0,0.1c0.1,0.1,0.1,0.1,0.1,0.2c-0.1,0-0.1-0.1-0.1-0.1
			c0,0.3,0.1,0.7,0,1c0.1,0.1,0.1,0,0.2,0c0,0,0,0,0-0.1c0,0,0,0,0,0c0,0,0,0,0.1,0c0,0,0.1,0,0.1,0c0.1,0,0.2,0,0.3,0
			c0,0,0.1,0,0.1,0.1c0,0.1-0.1,0.1-0.1,0.1c-0.1,0-0.2,0-0.2,0c0,0,0,0.1,0,0.1c-0.1,0,0-0.1-0.1-0.1c0,0,0,0-0.1,0
			c-0.1,0.1,0,0.2-0.1,0.2c0.1-0.1,0.1-0.1,0-0.2c-0.1,0-0.1,0-0.1-0.1c0,0-0.1,0-0.1,0c-0.2,0-0.2,0-0.1,0.2c0,0,0,0.1,0,0.2
			c0,0.8-0.2,1.5-0.6,2.2c-0.4,0.7-0.9,1.2-1.5,1.7c-1.4,0.9-2.9,1.3-4.6,1.5c-0.4,0-0.7,0-1.1,0.1c-0.2,0-0.4,0-0.6,0.1
			c0.1,0,0.1,0.2,0.2,0.2c0.1,0,0.1,0.1,0.1,0.2c0,0.1-0.1,0.1,0,0.2c0-0.1,0-0.2,0-0.2c0-0.1,0-0.1,0.1-0.1c0.1,0,0.1,0.1,0.2,0.1
			c0.2,0,0.4,0.1,0.5,0.1c0,0,0.1,0,0.1,0c0.1,0,0.3-0.1,0.4,0c0,0,0,0,0,0c0.1-0.1,0.3-0.1,0.4,0c0.3,0.1,0.6,0.1,0.8,0
			c0.1,0,0.3-0.1,0.4-0.1c-0.1,0.1-0.2,0.2-0.4,0.3c0,0-0.1,0-0.1,0.1c0.1,0.2-0.1,0.2-0.2,0.2c-0.1,0-0.2,0-0.2,0.1
			c0,0.1-0.1,0.2-0.2,0.3c-0.1,0.1-0.1,0.2-0.2,0.2c0.1-0.1,0.2-0.2,0.3-0.2c0,0,0.1-0.1,0.1-0.1c0-0.1,0-0.1,0.1,0
			c0,0,0.1,0.1,0.2,0.1c0,0,0,0,0,0c0,0,0,0-0.1-0.1c0,0,0-0.1,0-0.1c0.1-0.2,0.3-0.2,0.4-0.3c0,0,0,0,0,0c0.1,0.1,0.1,0,0.1,0
			c0,0,0.1-0.1,0.1-0.1c0.1,0,0.1,0,0.1-0.1c0.1-0.3,0.4-0.5,0.7-0.4c0.1,0,0.2,0,0.2,0.1c0,0,0,0.1,0,0.1c0,0,0,0,0-0.1
			c0,0,0,0,0.1-0.1l0,0c0.1-0.1,0.2-0.1,0.4-0.1c0.1,0,0.2,0,0.2,0c0.1-0.2,0.2-0.1,0.3-0.1c0.1,0,0.2,0,0.3,0c0.1,0,0.1,0,0.2,0
			c0.2,0.1,0.4,0.2,0.5-0.1c0,0,0,0,0,0c0,0,0.1,0,0.1,0c0,0.1,0,0.1,0.1,0.1c0.2,0,0.3,0.1,0.5,0.1c-0.2,0.1-0.4,0-0.6,0.1
			c0.1,0,0.8,0,0.9,0c-0.1,0-0.2,0-0.3,0c0.1,0,0.3,0,0.3-0.1c0.1-0.1,0.2-0.1,0.3-0.1c0.1,0,0.3,0,0.4-0.1c0.1,0,0.1-0.1,0-0.1
			c0,0-0.1-0.1-0.1,0c-0.1,0.1-0.1,0-0.2,0c0,0-0.1,0-0.1,0c-0.1,0,0.1,0.1,0,0.1c-0.2,0-0.5,0.1-0.7,0.1c0.1-0.1,0.2-0.2,0.3-0.3
			c0.1-0.1,0.3-0.1,0.4-0.2c0.1,0,0.1-0.1,0.2,0c0-0.1-0.1-0.1,0-0.1c0.2-0.1,0.3-0.3,0.5-0.3c0-0.1,0.1-0.1,0.2-0.1
			c0.1,0,0.2-0.2,0.3-0.1c0,0,0,0,0,0c0-0.1,0.1-0.1,0.2-0.2c0,0.1,0,0.2,0.1,0.2c0,0,0,0,0,0c0,0,0,0,0,0c0,0,0,0,0,0
			c-0.1,0.1-0.2,0.2-0.4,0.1c0,0-0.1,0-0.1,0.1c0.1,0.1,0,0.1,0,0.2c0,0.1,0,0.1,0.1,0.1c0,0,0.1,0,0.1,0.1c0,0,0,0,0,0
			c0,0,0,0,0.1,0c0,0.1-0.1,0.1-0.1,0.2c0,0,0.1,0,0.1,0c0,0,0.1,0,0.1,0c0,0,0,0,0,0c-0.1,0-0.2,0.1-0.1,0.1c0,0.1,0.1,0,0.2,0
			c-0.1,0.1-0.2,0.1-0.2,0c0,0,0,0,0-0.1c0,0,0,0,0,0c0,0-0.1,0-0.1,0c0.1,0.1,0,0.2,0,0.2c0,0.1,0,0.1-0.1,0.1c0,0-0.1,0-0.1,0
			c0,0.2-0.1,0.1-0.2,0.1c0.1,0.1,0,0.1,0,0.1c-0.2,0.1-0.3,0.1-0.5,0.1c0,0.1,0,0.2,0,0.3c-0.1,0.1,0,0.1,0.1,0.1
			c0.1,0,0.2,0,0.2,0c0.1,0,0.1,0,0.2,0c0,0-0.1,0-0.1,0c-0.1,0-0.2-0.1-0.1-0.2c0,0,0,0,0,0c0,0,0,0,0,0c0,0.1,0.1,0,0.1,0
			c0.1-0.1,0.3-0.2,0.4,0c0,0,0,0,0,0c0,0,0.1,0,0.1,0c0,0,0,0-0.1-0.1c-0.1,0-0.1-0.1-0.1-0.2c0.1-0.1,0.3-0.2,0.5-0.2
			c0,0-0.1,0-0.1,0.1c0,0.1,0.1,0,0.1,0c0,0,0-0.1,0.1-0.1c0-0.1,0-0.1,0.1-0.2c0,0,0.1-0.1,0.1-0.1c0,0,0,0,0,0c0,0,0,0.1-0.1,0.1
			c0,0,0,0,0,0c-0.1,0-0.1,0.1,0,0.1c0.1,0.1,0.1,0.2,0.2,0.2c0,0,0,0,0,0.1c0,0,0,0.1,0.1,0.1c0,0,0.1,0,0.1-0.1
			c0-0.1,0-0.1-0.1-0.1c-0.2-0.2-0.3-0.4,0-0.6c0.1-0.1,0.2-0.1,0.3-0.1c0,0,0.1,0,0.1,0c0,0.1,0,0.1,0.1,0.1c0.1,0,0.1-0.1,0.1-0.1
			c0-0.1,0-0.2,0-0.3c0,0,0-0.1,0-0.1c0.1,0,0.2-0.1,0.3-0.1c0.1,0,0.1,0.1,0.1,0.1c0,0,0.1,0.1,0.1,0.1c0.1,0,0-0.1,0-0.2
			c0,0-0.1,0-0.1-0.1c0-0.1,0-0.2,0-0.3c0,0,0-0.1,0.1-0.1c0,0,0.1,0,0.1,0.1c0,0,0,0,0,0c0,0,0,0,0-0.1c0-0.1,0-0.1,0-0.2
			c0,0,0-0.1,0.1-0.1c0,0,0.1,0,0.1,0c0.1,0,0,0.1,0.1,0.2c0.1,0,0.2-0.1,0.2-0.2c-0.1-0.1-0.1,0.1-0.2,0c-0.1-0.1-0.1-0.2,0-0.3
			c0.1-0.1,0.1-0.2,0.2-0.3c0.1-0.1,0.1-0.2,0.1-0.4c0,0,0-0.1,0-0.1c-0.1-0.2,0.1-0.3,0.1-0.5c0,0,0,0,0.1,0c0.1,0,0.1,0.1,0.1,0.1
			c0.1,0,0-0.1,0.1-0.1c0.1,0,0.2,0,0.3,0c0.1,0,0.1,0.1,0.2,0.1c0,0,0.1,0,0.1,0c0,0,0-0.1,0-0.1c0-0.1,0-0.1,0-0.1
			c0.1,0,0.2-0.1,0.1-0.2c0,0,0-0.1,0-0.1c-0.1-0.2-0.1-0.3,0.1-0.4c0.1,0,0-0.1,0-0.1c0-0.2,0-0.4,0-0.5c0-0.1,0.1-0.2,0-0.3
			c0,0,0-0.1,0-0.1c0.1-0.2,0.1-0.4,0-0.5c0-0.1,0-0.2,0.1-0.3C26.6,15,26.6,14.9,26.6,14.8z M22.4,13.8
			C22.4,13.8,22.4,13.7,22.4,13.8C22.4,13.7,22.4,13.7,22.4,13.8z M22.4,14.6C22.4,14.6,22.4,14.7,22.4,14.6c0-0.2,0-0.3-0.1-0.5
			c0,0.1,0.1,0.2,0.1,0.3C22.4,14.5,22.5,14.6,22.4,14.6z M23,14.2C23,14.2,23,14.2,23,14.2c0-0.1,0-0.2,0-0.2c0,0,0,0,0,0
			C23,14.1,23,14.1,23,14.2z M23.4,19.7c0-0.1,0.1-0.1,0.1-0.2C23.5,19.6,23.4,19.6,23.4,19.7C23.4,19.7,23.4,19.7,23.4,19.7z
			 M23.3,20.5c0,0-0.1,0-0.1,0C23.2,20.5,23.2,20.5,23.3,20.5c0.1,0,0.2,0,0.3-0.2C23.6,20.4,23.4,20.4,23.3,20.5z M26.3,16.3
			C26.2,16.3,26.3,16.2,26.3,16.3c-0.1-0.1-0.1,0-0.1,0c0,0.1,0,0.1,0.1,0.2C26.3,16.5,26.2,16.5,26.3,16.3c0,0.2,0,0.2,0,0.3
			c0,0.2-0.1,0.3-0.1,0.5c0,0,0,0.1,0,0.1c-0.1,0.2-0.1,0.2-0.2,0.1c0,0.1,0.1,0.1,0.1,0.2c0,0.1-0.1,0-0.2,0
			c-0.2,0.1-0.3,0-0.5-0.1c0,0-0.1-0.1,0-0.1c0.1-0.4,0.3-0.9,0.4-1.3c0-0.1,0.1-0.1,0.1-0.2c0-0.1,0.1-0.2,0.2-0.2
			c0.1,0,0.2,0,0.3,0.2C26.2,16,26.3,16.1,26.3,16.3z"/>
	</g>
	<path class="st0" d="M17.3,21.3c-0.1-0.1-0.1,0.1-0.2,0.1c0,0,0,0,0-0.1C17.1,21.3,17.2,21.2,17.3,21.3
		C17.3,21.3,17.3,21.2,17.3,21.3C17.3,21.3,17.3,21.3,17.3,21.3z"/>
	<path class="st0" d="M23,19.8C23,19.8,23,19.7,23,19.8C23.1,19.8,23.1,19.8,23,19.8C23.1,19.9,23,19.9,23,19.8
		C23,19.8,23,19.8,23,19.8z"/>
	<path class="st0" d="M23.1,20.6c-0.1,0.1-0.2,0-0.2,0.1c0,0,0,0,0,0C22.9,20.6,22.9,20.6,23.1,20.6C23,20.6,23,20.6,23.1,20.6z"/>
	<g>
		<polygon class="st0" points="19,8.2 19,8.2 19,8.2 		"/>
		<polygon class="st0" points="22.2,8.9 22.2,8.9 22.2,8.9 		"/>
		<path class="st0" d="M26.8,9c-0.2,0-0.1-0.1-0.1-0.3c0-0.1,0-0.1,0-0.2c0,0.1,0,0.1,0,0.2c0,0,0,0.1,0,0.1c-0.1,0-0.1,0-0.2,0
			c-0.3-0.1-0.5-0.2-0.8-0.2c-0.1,0-0.3,0.1-0.4,0c0,0,0,0-0.1,0c-0.1,0.1-0.2,0.1-0.4,0c-0.3-0.1-0.7-0.1-1,0
			c-0.1,0-0.2,0.1-0.3,0.1c0.1-0.1,0.2-0.2,0.4-0.3c0.1,0,0.1,0,0.1-0.1c0-0.1,0-0.1,0.1-0.1c0.2-0.1,0.2-0.1,0.4-0.3
			c0,0,0.1-0.1,0.1-0.1c0.1-0.1,0.1-0.1,0.2-0.2c-0.1,0.1-0.2,0.2-0.3,0.3c0,0,0,0,0,0c0,0.1,0,0.1-0.1,0c0,0,0-0.1-0.1-0.1
			c0,0,0-0.1-0.1,0c0,0,0,0,0,0.1c0.1,0,0.1,0.1,0,0.1c-0.2,0.2-0.3,0.3-0.5,0.3c0,0,0,0,0,0c0,0.1-0.1,0.1-0.2,0.1
			c0,0-0.1,0-0.1,0.1C23.2,8.8,23,8.9,22.7,9c-0.2,0-0.3,0-0.4-0.2c0,0,0,0.1-0.1,0.1C22.2,9,22.1,9,22.1,9c-0.1,0-0.2,0-0.3,0
			c0,0-0.1,0-0.1,0c-0.1,0.2-0.2,0.1-0.3,0.1c-0.1,0-0.2,0-0.3,0c-0.1,0-0.1,0-0.2,0c-0.2-0.1-0.4-0.2-0.5,0.1c0,0,0,0,0,0
			c-0.1,0-0.1,0-0.1-0.1c0-0.1,0-0.1-0.1-0.1C20,9,19.8,9,19.7,9c0.1-0.1,0.2,0,0.3-0.1c0.1,0,0.2,0,0.3-0.1c-0.3,0-0.6,0-0.9,0
			c0,0,0,0,0,0c0.1,0,0.2,0,0.3,0c-0.2,0-0.3,0-0.4,0.1c0,0-0.1,0-0.1,0c-0.1,0-0.3,0-0.4,0.1c-0.1,0-0.1,0-0.2,0c0,0,0,0,0,0.1
			c0,0,0,0.1,0,0.1c0,0,0.1,0,0.1,0c0-0.1,0,0,0.1,0c0.1,0,0.1,0,0.2,0c0,0,0.1,0,0.1,0c0,0,0,0,0-0.1c-0.1-0.1,0-0.1,0-0.1
			c0.1,0,0.1,0,0.2,0c0.2,0,0.3-0.1,0.5-0.1c-0.1,0.1-0.2,0.2-0.3,0.2c-0.2,0.1-0.3,0.2-0.5,0.3c-0.1,0-0.1,0-0.2,0
			c0,0.1,0.1,0.1,0,0.1c-0.1,0-0.2,0.1-0.2,0.2c-0.2,0.1-0.2,0.1-0.4,0c0,0,0,0,0,0c0,0.1,0,0.1,0.1,0.1c0.1,0,0.1,0.1,0,0.1
			c-0.1,0.1-0.2,0-0.2,0.1c0,0.1-0.1,0.1-0.2,0c0,0,0,0-0.1,0c0,0-0.1,0-0.1,0c0,0,0,0.1,0,0.1c0,0,0-0.1,0-0.1c0,0.1,0,0.1-0.3,0.3
			c0-0.1,0-0.1,0-0.2c0,0,0-0.1,0,0c0,0-0.1,0.1-0.1,0.1c0,0.1-0.1,0.1-0.1,0.2c0.1-0.1,0.2-0.2,0.1-0.3c0,0,0,0,0,0c0,0,0,0,0,0
			c0.1-0.1,0.2-0.1,0.3-0.2c0,0,0.1,0,0.1,0c0,0,0.1,0,0.2,0c-0.1-0.1-0.1-0.1,0-0.3c-0.1,0-0.1,0-0.2,0c0,0,0,0,0,0c0,0,0,0,0,0
			c0,0,0,0-0.1,0c0,0,0,0,0.1,0c0.1-0.1,0.2-0.1,0.3-0.2c0,0,0,0,0,0c0,0,0,0,0,0c-0.1-0.1,0-0.2,0.1-0.2c0-0.1,0-0.1,0.1-0.1
			c0.1,0,0.1-0.2,0.3-0.1c0,0,0,0,0,0c-0.1-0.1,0-0.1,0-0.1c0.1-0.1,0.3-0.1,0.4-0.1c0,0,0.1,0,0.1-0.1c0-0.2,0-0.3,0.2-0.4
			c0,0,0,0,0-0.1c0,0,0,0.1-0.1,0.1c-0.1,0-0.3,0-0.4,0c0,0-0.1,0-0.1,0c0,0,0.1,0,0.1,0c0.1,0,0.2,0.1,0.1,0.2c0,0,0,0,0,0
			c0,0,0,0,0,0c0-0.1,0-0.1-0.1,0c-0.1,0.1-0.3,0.2-0.4,0c0,0,0,0,0,0c0,0-0.1,0-0.1,0c0,0.1,0,0,0.1,0.1c0.1,0.1,0.1,0.1,0.1,0.2
			C18,8.9,17.8,9,17.7,9c0,0,0.1-0.1,0-0.1c-0.1,0-0.1,0-0.1,0.1c0,0.1-0.1,0.1-0.1,0.2c0,0.1-0.1,0.1-0.1,0.1c0,0,0,0,0,0
			c0-0.1,0-0.1,0.1-0.2c0.1,0,0.1-0.1,0-0.1c-0.1-0.1-0.1-0.2-0.2-0.2c0,0,0,0,0-0.1c0,0,0-0.1-0.1-0.1c0,0-0.1,0-0.1,0.1
			c0,0.1,0,0.1,0.1,0.1c0.2,0.2,0.3,0.4,0,0.6C17,9.3,17,9.4,16.9,9.4c0,0-0.1,0-0.1,0c0-0.1-0.1-0.1-0.1-0.1
			c-0.1,0-0.1,0.1-0.1,0.1c0,0.1,0,0.2,0,0.3c0,0,0,0.1,0,0.1c-0.1,0-0.2,0.1-0.3,0.1c-0.1,0-0.1-0.1-0.1-0.1c0,0-0.1-0.1-0.1,0
			c-0.1,0,0,0.1,0,0.1c0.1,0.1,0.1,0.1,0.1,0.2c0,0.1,0,0.2,0,0.2c0,0-0.1,0.1-0.1,0c0,0,0-0.1,0-0.1c0,0,0,0,0,0.1
			c0,0.1,0,0.1,0,0.2c0,0,0,0.1,0,0.1c-0.1,0-0.1,0-0.1-0.1c0,0,0-0.1-0.1-0.2c-0.1,0.1-0.2,0.1-0.2,0.2c0.1-0.1,0.2,0,0.2,0.2
			c0,0.1,0,0.1-0.1,0.1c-0.1,0.1-0.1,0.1-0.1,0.2c0,0,0,0.1,0,0.1c0,0,0.1,0,0.1,0c0.1,0,0.3,0,0.4,0c0.1,0,0.2,0.1,0.3,0.2
			c0,0,0,0.1,0,0.1c0,0-0.1,0.1-0.1,0.1c0,0,0,0.1-0.1,0.1c0,0,0,0,0-0.1c0-0.1-0.1-0.1-0.1-0.1c-0.1,0-0.2,0-0.3,0c0,0,0,0.1,0,0.1
			c-0.1,0-0.1-0.1-0.2-0.1c0,0-0.1,0-0.1,0c0,0.1,0,0.2,0,0.3c0,0,0,0.1,0,0.2c0,0,0,0,0,0c0.1,0,0.2,0.1,0.3,0c0,0,0.1,0,0.1,0
			c0,0,0,0.1,0,0.1c0,0-0.1,0-0.1,0c-0.2-0.1-0.3,0-0.4,0.1c0.2,0.1,0.1,0.3,0.1,0.4c0,0,0,0.1,0,0.1c0.1,0,0.2,0,0.3,0
			c0.2,0,0.3-0.1,0.4-0.2c0,0,0-0.1,0.1-0.1c0,0,0.1,0,0.1,0c0,0.2-0.1,0.4-0.3,0.4c-0.2,0-0.4,0-0.6,0.1c-0.1,0.1-0.1,0.2-0.1,0.3
			c-0.1,0.2-0.1,0.5-0.2,0.7c0,0.1-0.1,0.1-0.2,0.1c-0.1,0-0.2,0-0.2-0.1c0-0.1-0.1-0.3-0.1-0.4c0.1,0,0.1,0,0.1-0.1
			c0-0.1,0-0.1,0-0.2c-0.1-0.1-0.1-0.1-0.1-0.2c0.1-0.2,0.2-0.4,0.2-0.7c-0.1-0.1-0.1-0.1,0-0.2c0,0,0.1-0.1,0.1-0.2c0,0,0,0,0,0
			c0,0-0.1,0-0.1,0c0,0-0.1,0-0.1,0c0,0,0,0.1,0,0.1c0,0,0,0.1,0,0.1c-0.2,0-0.1,0.1-0.1,0.2c0,0,0,0.1,0,0.1c0,0.1,0,0.2-0.1,0.3
			c-0.1,0-0.1,0.1-0.1,0.2c0,0.2,0,0.4-0.1,0.6c0,0,0,0.1,0,0.1c0.1,0.1,0.1,0.2,0,0.3c0,0.1,0,0.3,0,0.4c0,0.1,0,0.3-0.1,0.4
			c-0.1,0.1,0,0.2,0,0.2c0,0.1,0.1,0.1,0.1,0.2c0,0.2,0,0.4,0.1,0.5c0.1,0.2,0.1,0.3,0.1,0.5c0,0,0,0.1,0,0.1c0.1,0,0.1,0.1,0.1,0.2
			c0,0.2,0.1,0.4,0.2,0.6c0.1,0.1,0.1,0.2,0.2,0.4c0,0.1,0,0.1,0.1,0.2c0.3,0.4,0.7,0.8,1.1,1.2c0.1,0.1,0.1,0.1,0.2,0
			c0.5-0.2,1-0.6,1.4-0.9c0.1-0.1,0.1-0.1,0.1-0.3c0.1,0.1,0.1,0,0.2,0c0.2-0.1,0.2-0.3,0.2-0.5c0-0.1,0-0.1-0.1-0.1
			C18,17.2,18,17.1,18,16.9c0.1,0,0.1,0.1,0.2,0c0,0,0,0,0,0c0-0.1,0-0.1-0.1-0.1c-0.1,0-0.1,0-0.2-0.1c0,0,0-0.1-0.1-0.1
			c0,0-0.1,0-0.1,0c0,0.2-0.1,0.3,0.1,0.5c-0.1,0-0.1-0.1-0.1-0.1c-0.1-0.1-0.1-0.3-0.1-0.4c-0.1,0-0.2,0.1-0.3,0.2
			c0,0,0.1,0.1,0,0.1c0,0,0,0-0.1,0.1c-0.1,0.1-0.1,0.2-0.1,0.2c0,0,0,0-0.1,0c0,0,0,0,0-0.1c0,0,0-0.1,0-0.1
			c0.1-0.3,0.2-0.5,0.3-0.7c0.1-0.1,0.1-0.2,0.3-0.2c0,0,0,0,0,0c0,0,0,0.1,0,0.1c0.1,0,0.1,0,0.2-0.1c0-0.1,0-0.1,0-0.2
			c0.1,0,0,0.1,0.1,0.1c0,0,0.1,0,0.1,0c0,0.1-0.1,0.1-0.1,0.2c0,0,0,0.1,0,0.1c0.1,0,0.2-0.1,0.3-0.1c0,0,0-0.1,0-0.1
			c0,0.1,0.1,0.1,0.2,0.1c0.1,0,0.2-0.1,0.2-0.2c0,0,0-0.1,0-0.1c0-0.7,0-1.5,0.1-2.2c0-0.1,0-0.3,0.1-0.4c-0.1-0.2-0.1-0.3-0.1-0.5
			c-0.1,0-0.1-0.1-0.2-0.1c0,0-0.1,0-0.1,0.1c0,0,0,0.1,0.1,0.1c0,0-0.1,0-0.1,0c0,0,0-0.1,0.1-0.1c0.1-0.1,0.2-0.2,0.2-0.4
			c0,0.1,0,0.2,0.1,0.2c0.1,0,0-0.1,0-0.1c0-0.3,0-0.6,0-0.9c0-0.1,0-0.2-0.2-0.2c0,0-0.1,0-0.1,0c-0.1,0-0.2,0.1-0.2,0
			c0-0.1,0.1-0.1,0.2-0.1c0.2,0,0.3,0,0.5-0.1c0.1,0,0.1,0,0.2,0c0,0,0.1,0,0.1,0c0.2-0.1,0.3,0,0.5,0c0,0,0.1,0,0.1,0.1
			c0,0,0,0.1-0.1,0.1c-0.1,0.1-0.1,0.2,0,0.3c0-0.1,0.1-0.1,0.1-0.2c0.4-0.4,0.8-0.7,1.3-1c1.2-0.7,2.7-1,4.1-1.2
			c0.4,0,0.8-0.1,1.3-0.1c0.2,0,0.3,0,0.5-0.1C26.8,9.2,26.9,9,26.8,9z M17.7,15.9c0,0,0,0.1,0,0.1C17.6,16,17.6,15.9,17.7,15.9
			C17.6,15.8,17.6,15.8,17.7,15.9C17.6,15.8,17.7,15.8,17.7,15.9C17.7,15.8,17.7,15.9,17.7,15.9z M18.3,13.2c0,0,0-0.1,0-0.1
			c0.1,0.1,0.1,0.1,0.2,0c0.1-0.1,0-0.1,0-0.1c0,0,0,0,0,0c0,0,0,0,0,0.1C18.6,13.1,18.5,13.2,18.3,13.2
			C18.4,13.2,18.3,13.2,18.3,13.2c0,0,0,0.1,0,0.1c0.1,0.1,0,0.1,0,0.2c0,0.1-0.1,0-0.1,0c0.1-0.1,0.1-0.1,0-0.2c0,0-0.1,0,0-0.1
			C18.2,13.2,18.2,13.2,18.3,13.2C18.3,13.3,18.3,13.2,18.3,13.2z M19.9,9.7c-0.1,0.1-0.2,0.2-0.4,0.1c-0.1-0.1-0.1-0.1-0.2,0
			c-0.1,0.1-0.2,0.1-0.3,0.1c-0.1,0.1-0.3,0.2-0.4,0.4c-0.1,0.1-0.2,0.1-0.3,0.1c0,0,0,0,0,0c-0.1,0-0.1,0-0.1,0.1
			c0,0-0.1,0-0.1-0.1c0-0.1,0-0.1,0.1-0.2c0.1-0.2,0.3-0.2,0.5-0.4c0,0,0.1,0,0.1,0c0.1,0,0.2,0.1,0.2-0.1c0,0,0,0,0.1,0
			c0.2,0,0.3-0.1,0.5-0.1c0.1-0.1,0.3-0.1,0.5-0.1C20,9.5,19.9,9.6,19.9,9.7z"/>
	</g>
	<path class="st0" d="M23.3,8.7c0.1,0,0.1-0.1,0.2-0.1c0,0,0,0,0,0.1C23.5,8.7,23.5,8.8,23.3,8.7C23.4,8.7,23.2,8.7,23.3,8.7z"/>
	<path class="st0" d="M18.4,12.9c-0.1,0-0.1,0-0.1,0C18.3,12.8,18.3,12.8,18.4,12.9C18.4,12.8,18.4,12.8,18.4,12.9
		C18.5,12.8,18.4,12.8,18.4,12.9z"/>
	<path class="st0" d="M22.1,13C22.1,13,22.1,12.9,22.1,13c0.1-0.1,0.1-0.1,0.1-0.1c0,0,0-0.1,0-0.1c0,0,0.1,0,0.1,0
		c0,0.1,0.1,0,0.1,0.1C22.3,12.9,22.2,13,22.1,13z"/>
	<path class="st0" d="M21.9,11.6c0.1-0.1,0.3-0.1,0.4-0.1C22.2,11.5,22,11.5,21.9,11.6z"/>
	<path class="st0" d="M18.7,12.8c0,0-0.1-0.1-0.1-0.1c0,0,0.1-0.1,0.1-0.1C18.7,12.7,18.7,12.8,18.7,12.8z"/>
	<path class="st0" d="M14.9,11.6c0.1-0.1,0.2-0.1,0.4-0.1C15.2,11.5,15,11.5,14.9,11.6z"/>
	<path class="st0" d="M15,12.2C15,12.2,15,12.2,15,12.2c0.1-0.1,0.1-0.1,0.1,0C15.1,12.2,15,12.2,15,12.2z"/>
	<path class="st0" d="M18.2,16.4C18.3,16.4,18.3,16.3,18.2,16.4c0,0.2,0,0.3-0.1,0.5c0-0.2-0.2-0.1-0.2-0.1c0-0.1,0.2,0,0.1-0.1
		C18.1,16.5,18.2,16.4,18.2,16.4z"/>
	<path class="st0" d="M18.5,16.4c0,0.1,0.1,0.2,0,0.3c0-0.1,0-0.1-0.1-0.1C18.4,16.5,18.5,16.4,18.5,16.4z"/>
	<path class="st0" d="M18.4,16.7c0,0.1,0,0.2,0.1,0.2c-0.1,0.1-0.1,0.1-0.1-0.1C18.3,16.8,18.3,16.7,18.4,16.7z"/>
	<path class="st0" d="M23.2,19.9c0-0.1-0.1-0.1,0-0.1c0,0,0,0,0,0C23.3,19.8,23.2,19.8,23.2,19.9z"/>
	<path class="st0" d="M25.7,17.4c-0.1,0-0.2-0.1-0.3-0.2C25.6,17.2,25.7,17.3,25.7,17.4z"/>
	<path class="st0" d="M22.4,16.5C22.5,16.4,22.5,16.4,22.4,16.5c0.1-0.1,0.2-0.1,0.1-0.1c0,0,0,0,0.1-0.1c0,0,0.1-0.1,0.2-0.1
		c0,0,0,0.1-0.1,0.1C22.7,16.4,22.6,16.5,22.4,16.5C22.5,16.5,22.5,16.5,22.4,16.5z"/>
	<path class="st0" d="M17.9,13c0.1-0.2,0.2-0.5,0.2-0.7C18.1,12.5,18,12.8,17.9,13z"/>
	<path class="st0" d="M17.6,16.2C17.6,16.2,17.6,16.2,17.6,16.2c0,0.1-0.1,0.2-0.2,0.3C17.4,16.3,17.5,16.2,17.6,16.2z"/>
	<g>
		<g>
			<path class="st1" d="M2.8,11.1c-0.1,0-0.1-0.1-0.1-0.2C2.7,11,2.7,11,2.8,11.1z"/>
			<path class="st1" d="M3.2,12.1c0.1,0,0.1-0.1,0.1-0.2c-0.2-0.3-0.3-0.6-0.5-0.8c0-0.1-0.1-0.1-0.1-0.2c0-0.1-0.1-0.1-0.1-0.2
				c0-0.1-0.1-0.1-0.2,0c-0.2,0.1-0.3,0.2-0.5,0.3c-0.2,0.1-0.4,0.3-0.4,0.5c-0.1,0.4-0.3,0.7-0.6,0.9c-0.2,0.2-0.4,0.3-0.6,0.6
				c-0.2,0.3-0.3,0.6-0.1,1c0,0.1,0.1,0.1,0.2,0.1c0.6-0.4,1.2-0.7,1.8-1.1C2.4,12.6,2.8,12.4,3.2,12.1z"/>
			<path class="st1" d="M4.8,11.1c0,0.1,0.1,0.1,0.2,0c1-0.6,2-1.2,3-1.8c0.1-0.1,0.1-0.1,0-0.2C7.8,8.8,7.4,8.8,7,8.8
				C6.8,8.9,6.5,9,6.3,9.1C6,9.3,5.6,9.3,5.3,9.2c0,0-0.1,0-0.1,0c0,0-0.1,0-0.1,0C4.7,9.3,4.5,9.5,4.2,9.6C4.1,9.7,4.1,9.8,4.1,9.9
				C4.4,10.3,4.6,10.7,4.8,11.1z"/>
			<path class="st1" d="M12.1,14.4c-0.1,0-0.1-0.1-0.2-0.1c-0.3,0.1-0.7,0.2-1,0.2c-0.3,0.1-0.5,0.1-0.8,0.2c0-0.1,0.1-0.2,0.1-0.3
				c0.1-0.4,0.2-0.8,0.3-1.2c0-0.1,0.1-0.2,0.2-0.2c0.1,0,0.1-0.1,0.2-0.1c0.3-0.3,0.3-0.8,0-1.1c0,0-0.1-0.1,0-0.1
				c0.2-0.3,0.3-0.7,0.5-1c0.1-0.2,0-0.3-0.2-0.3c-0.1,0-0.1,0-0.1,0.1c-0.1,0.4-0.3,0.7-0.5,1.1c0,0.1-0.1,0.1-0.2,0.1
				c-0.6,0-0.9,0.5-0.7,1c0,0.1,0,0.1,0,0.1c-0.3,0.4-0.7,0.9-1,1.3c0,0.1-0.1,0.1-0.2,0C8.3,14.1,8.2,14,8.1,14C8,14,8,13.9,8,13.8
				c0.1-0.8,0.2-1.6,0.2-2.3c0-0.3,0-0.5,0.1-0.8c0-0.2,0.1-0.4,0.1-0.7c-0.2,0.2-0.4,0.5-0.5,0.8c-0.6,0.9-1.1,1.7-1.7,2.6
				c-0.1,0.1-0.1,0.1-0.1,0c-0.1-0.2-0.2-0.4-0.3-0.5c-0.2-0.4-0.5-0.8-0.7-1.2c-0.1-0.2-0.2-0.4-0.4-0.6c-0.2-0.3-0.4-0.7-0.6-1
				C4,9.9,3.9,9.8,3.7,9.6c0,0-0.1-0.1-0.1,0C3.3,9.8,2.9,10,2.5,10.2c-0.1,0.1-0.1,0.1-0.1,0.2c0.1,0.2,0.3,0.5,0.4,0.7
				c0.2,0.3,0.3,0.6,0.5,0.9c0.2,0.3,0.3,0.5,0.5,0.8c0.2,0.4,0.4,0.7,0.7,1.1c0.2,0.3,0.4,0.7,0.6,1c0,0,0.1,0.1,0,0.1
				c-0.1,0.2-0.3,0.4-0.4,0.6c-0.3-0.4-0.7-0.9-1-1.3c-0.3-0.4-0.6-0.6-1-0.9c0.2,0.4,0.3,0.8,0.6,1.1c0.3,0.3,0.5,0.7,0.8,1
				c0.1,0.2,0.2,0.3,0.3,0.5c-0.9,0.2-1.8,0.4-2.7,0.6c0.5,0.3,1,0.7,1.6,1c0.1,0,0.1,0.1,0,0.2c-0.2,0.3-0.4,0.7-0.7,1
				c-0.1,0.2-0.1,0.2,0.1,0.3c1.4,0.9,2.8,1.8,4.1,2.7c0.1,0,0.1,0.1,0.2,0.1c0.1,0,0.2,0,0.2-0.1c0-0.2,0-0.5,0.1-0.7
				c0-0.3,0.1-0.5,0.1-0.8c0.2,0.1,0.3,0.2,0.5,0.3c0.3,0.2,0.3,0.2,0.4-0.1c0.1-0.1,0.1-0.1,0.2,0c0.1,0.2,0.3,0.5,0.4,0.7
				c0,0.1,0.1,0.1,0.2,0c0.3-0.2,0.7-0.4,1-0.6c0.1,0,0.1-0.1,0.1-0.2c-0.1-0.2-0.2-0.3-0.3-0.5c-0.2-0.3-0.4-0.6-0.6-0.9
				c-0.1-0.1-0.1-0.2,0-0.3c0.3-0.5,0.7-1.1,1-1.6C11,16.3,11.5,15.4,12.1,14.4C12.1,14.5,12.2,14.4,12.1,14.4z M6.2,19.5
				c0,0.1,0,0.2,0,0.3c0,0.1,0,0.1-0.1,0c-0.6-0.4-1.2-0.7-1.7-1.1c-0.1,0-0.1-0.1,0-0.1c0.2-0.3,0.2-0.3,0.5-0.1
				c0.4,0.3,0.8,0.5,1.3,0.8C6.2,19.4,6.2,19.5,6.2,19.5z M6.3,17.2c-0.1,0.2-0.2,0.3-0.3,0.5c0,0.1-0.1,0.1-0.1,0.2
				c-0.2-0.1-0.4-0.3-0.7-0.4c0,0-0.1,0,0-0.1c0-0.1,0.1-0.1,0.1-0.2c0.1,0.1,0.2,0.2,0.3,0.3c0.1,0.1,0.1,0.1,0.2,0
				C6,17.3,6,17.3,5.9,17c-0.1-0.1-0.1-0.1-0.2-0.2c0.2,0,0.3-0.1,0.5-0.1c0,0,0,0,0.1,0C6.4,16.8,6.4,17,6.3,17.2z M8.9,14.5
				c0-0.1,0.1,0,0.1,0c0.2,0.1,0.2,0.1,0.1,0.2C9,14.9,9,15,8.8,15c-0.1,0-0.2,0-0.4,0.1C8.6,14.9,8.7,14.7,8.9,14.5z M8,14.1
				c0.2,0.1,0.3,0.1,0.5,0.2c-0.2,0.2-0.4,0.5-0.5,0.7c0,0,0,0,0,0C7.9,14.7,8,14.4,8,14.1z M9,17.1c-0.1,0.2-0.2,0.4-0.4,0.6
				c0,0.1-0.1,0.1-0.1,0c-0.2-0.4-0.5-0.8-0.7-1.2c-0.1-0.1,0-0.1,0.1-0.1c0.5-0.1,1-0.2,1.5-0.3C9.3,16.4,9.3,16.8,9,17.1z
				 M9.2,14.9c0.1-0.3,0.1-0.3,0.4-0.1C9.5,14.9,9.4,14.9,9.2,14.9z M10,13.3c-0.1,0.3-0.1,0.6-0.2,0.8c0,0.2-0.1,0.3-0.1,0.5
				c0,0.1,0,0.1-0.1,0.1c-0.2-0.1-0.2-0.1-0.1-0.3c0,0,0-0.1,0.1-0.1c0,0,0-0.1,0-0.1c0,0-0.1-0.1-0.1,0c0,0.1-0.1,0.2-0.1,0.3
				c-0.1,0.1-0.2,0-0.2,0c-0.1,0,0-0.1,0-0.1c0.3-0.3,0.5-0.7,0.8-1C9.9,13.2,9.9,13.2,10,13.3C10,13.2,10.1,13.2,10,13.3z M10,12.7
				C10,12.7,10,12.6,10,12.7c0-0.2,0-0.2-0.1-0.3c-0.1,0-0.1,0.1-0.1,0.1c0,0,0,0.1-0.1,0.1c0,0,0-0.1-0.1-0.1
				c-0.1-0.4,0.2-0.8,0.7-0.8c0.1,0,0.1,0.1,0.2,0.1c0.2,0,0.3,0.2,0.4,0.3c0.1,0.3,0,0.7-0.4,0.8c0,0,0,0,0-0.1
				c0-0.2-0.1-0.2-0.2-0.1C10.2,12.9,10.2,12.8,10,12.7C10,12.7,10,12.7,10,12.7z"/>
		</g>
		<g>
			<path class="st1" d="M15.8,13.1c0.2,0,0.2,0,0.3-0.2c0-0.1,0-0.1,0-0.2c0-0.1,0-0.1,0-0.2c-0.1,0-0.1,0-0.1,0.1c0,0,0,0,0,0
				c-0.1,0.2-0.2,0.2-0.4,0.2c-0.1,0-0.2,0-0.3,0.1c-0.1,0-0.1,0-0.2,0c-0.1,0-0.1,0-0.1-0.1c0-0.1,0-0.2,0-0.3c0-0.1,0-0.1,0.1-0.1
				c0.1,0,0.1,0,0.2-0.1c0.1,0,0.2-0.1,0.2-0.1c0,0,0.1,0,0.1,0c0,0,0.1,0.1,0.2,0c0.1-0.1,0-0.1,0-0.2c0,0-0.1-0.1-0.1-0.1
				c-0.1,0.1-0.2,0.1-0.4,0.1c0,0-0.1,0-0.1,0c0,0-0.1,0-0.1,0c-0.1,0-0.1,0-0.1-0.1c0,0,0-0.1,0-0.1c0-0.2,0-0.2,0.1-0.2
				c0.1,0,0.2,0,0.3-0.1c0,0,0.1,0,0.1,0c0.1,0,0.1,0,0.2,0c0.3-0.1,0.3-0.1,0.4,0.2c0,0,0,0,0,0c0.1,0,0.1,0,0.1-0.1
				c0-0.1,0-0.1,0.1-0.2c0,0,0.1-0.1,0.1-0.1c-0.1-0.1-0.2-0.2-0.4-0.2c-0.2,0-0.4,0-0.6,0c-0.1,0-0.2,0-0.3,0c0,0,0,0-0.1,0
				c-0.4,0.1-0.8,0.2-1.1,0.3c-0.1,0-0.2,0.1-0.2,0.2c0.2,0,0.3,0,0.4-0.1c0,0.1-0.1,0.1-0.1,0.1c0.1-0.1,0.2,0,0.3,0
				c0.3-0.1,0.3,0,0.3,0.2c0,0,0,0.1,0,0.1c0,0.1,0,0.1-0.1,0.1c-0.1,0-0.1,0.1-0.1,0.2c0.1,0,0.1,0,0.2,0c0.1,0.1,0.1,0.3,0.1,0.5
				c0,0.1,0,0.1-0.1,0.1c-0.1,0-0.1,0-0.2,0.1c-0.1,0.1,0,0.2,0.1,0.2c0,0,0.1,0,0.1,0c0.1-0.1,0.2-0.1,0.3,0.1c0.1,0.1,0.1,0,0.2,0
				c0-0.1,0.1-0.2,0.2-0.3c0,0,0,0,0,0C15.4,13.1,15.6,13.1,15.8,13.1z"/>
			<path class="st1" d="M14,12.2c-0.1-0.3-0.1-0.3-0.3-0.2c0,0,0,0-0.1,0c-0.1,0-0.3,0.1-0.4,0.1c0.1,0.2,0.3,0.1,0.5,0.1
				c0,0.1,0,0.2,0,0.3c0,0,0,0.1,0,0.1c-0.3,0.1-0.6,0.3-0.9,0.4c0-0.3,0.1-0.5,0.1-0.8c0.1,0.1,0.1,0.1,0.2,0.1
				c0.1,0,0.1,0,0.1-0.1c0-0.1,0-0.1-0.1-0.2c-0.1,0-0.1,0-0.2,0c0,0-0.1,0.1-0.1,0c0,0,0-0.1,0-0.1c0.1-0.3,0.2-0.6,0.3-0.8
				c0.1,0.1,0.1,0.3,0.1,0.4c0,0.1,0,0.1,0.1,0.2c0.1,0,0.1,0,0.1,0c0,0,0.1-0.1,0.1-0.2c-0.1-0.1-0.1-0.2-0.1-0.4
				c0-0.2-0.1-0.3-0.2-0.4c-0.1,0-0.1-0.1-0.1,0c-0.1,0.2-0.3,0.3-0.3,0.5c0,0.4-0.2,0.8-0.3,1.1c-0.1,0.3-0.2,0.6-0.2,0.9
				c0,0.1,0,0.2,0.1,0.3c0.1,0,0.2-0.1,0.2-0.2c0.1-0.1,0.2-0.3,0.4-0.3c0.3-0.2,0.6-0.3,1-0.3c0.1,0,0.1,0,0.1-0.1
				C14,12.6,14,12.4,14,12.2z"/>
			<path class="st1" d="M29.9,11.2c-0.1,0-0.1-0.1-0.1-0.1c-0.1-0.1-0.2-0.2-0.4-0.2c-0.1,0-0.2-0.1-0.2-0.1c0,0-0.1,0-0.1,0
				c0,0,0,0.1,0,0.1c0.1,0.1,0.2,0.1,0.3,0.2c-0.2,0.2-0.3,0.5-0.4,0.7c-0.1-0.1-0.1-0.2-0.2-0.3c-0.1-0.2-0.3-0.4-0.4-0.7
				c0-0.1-0.1-0.1-0.2-0.1c-0.2,0.2-0.4,0.3-0.6,0.6c0.1,0.1,0.2,0.1,0.3,0c0.1-0.1,0.2-0.1,0.3,0c0.1,0.1,0.3,0.2,0.4,0.3
				c0.1,0.2,0.3,0.3,0.2,0.5c0.2,0.2,0,0.5,0,0.8c0,0.2,0,0.3,0,0.5c0,0.1,0.1,0.2,0.2,0.1c0.1,0,0.1-0.1,0.1-0.2
				c-0.1-0.3-0.1-0.5-0.1-0.8c0.1-0.4,0.2-0.9,0.4-1.2c0.1-0.2,0.1-0.2,0.2,0c0,0,0,0,0,0.1c0,0,0,0,0,0c0.1,0,0.1,0,0.1-0.1
				C30,11.3,30,11.2,29.9,11.2z"/>
			<path class="st1" d="M26.1,12.5c-0.1-0.1-0.1,0.1-0.2,0.1c0,0.1,0,0.2,0.1,0.2c0.1,0,0.2,0,0.2-0.1
				C26.2,12.6,26.1,12.5,26.1,12.5z"/>
			<path class="st1" d="M22.9,12.3c0.1,0.1,0.1,0,0.2,0c0,0,0.1-0.1,0-0.1c0-0.1-0.1-0.1-0.2,0C22.8,12.2,22.8,12.2,22.9,12.3
				C22.8,12.3,22.8,12.3,22.9,12.3z"/>
			<path class="st1" d="M16.8,13.3c0.3,0.2,0.7,0.3,1,0c0.4-0.3,0.5-0.6,0.5-1.1c0-0.1,0-0.1-0.1-0.1c-0.2,0-0.2-0.1-0.2-0.2
				c0-0.2-0.1-0.3-0.2-0.4c0,0.2,0,0.4,0,0.6c0,0.2-0.1,0.4-0.1,0.6c-0.1,0.3-0.5,0.4-0.8,0.2c0,0-0.1,0-0.1,0c0,0,0,0.1,0,0.1
				c-0.3-0.3-0.2-0.7-0.1-1.1c0.2-0.5,0.5-0.8,1.1-0.7c-0.2-0.2-0.4-0.2-0.6-0.1c-0.1,0-0.1,0.1-0.2,0.1c-0.4,0.3-0.6,0.7-0.7,1.1
				C16.3,12.8,16.4,13.1,16.8,13.3z"/>
			<path class="st1" d="M17.8,11.5c0.1,0,0.3-0.1,0.3-0.2c0-0.1,0-0.1-0.1-0.1C17.9,11.2,17.8,11.4,17.8,11.5
				C17.8,11.5,17.8,11.5,17.8,11.5z"/>
			<path class="st1" d="M15.8,12.2c0,0.1,0,0.1,0.1,0.1c0.1,0,0.1-0.1,0.1-0.1c0-0.1-0.1-0.1-0.1-0.1C15.9,12.1,15.8,12.1,15.8,12.2
				z"/>
			<path class="st1" d="M27.7,12c0.1-0.1,0.2-0.2,0.2-0.3c0-0.2-0.2-0.2-0.3-0.2c-0.3-0.1-0.7-0.1-1.1-0.1c-0.1,0-0.1,0-0.1-0.1
				c0-0.2-0.1-0.3-0.3-0.3c-0.4,0-0.8,0.1-1.2,0.2c0,0-0.1,0-0.1,0c-0.4,0.1-0.9,0.2-1.3,0.3c0,0-0.1,0-0.1,0c0,0-0.1,0-0.1-0.1
				c-0.1-0.2-0.3-0.2-0.4-0.1c-0.4,0-0.7,0.1-1.1,0.2c-0.3,0.1-0.6,0.2-0.9,0.3c0-0.1,0-0.2,0-0.3c0-0.1-0.2-0.2-0.2-0.2
				c0,0,0,0,0,0c0,0.5-0.4,1-0.5,1.5c-0.1-0.4-0.2-0.7-0.3-1.1c0-0.1,0-0.1,0-0.2c0-0.1,0-0.2,0.1-0.1c0.1,0,0.1,0,0.1-0.1
				c0,0,0-0.1,0-0.1c0,0-0.1,0-0.1,0c-0.1,0-0.2,0-0.2-0.1c0,0-0.1,0-0.1,0c-0.1,0.1-0.1,0.1-0.2,0c-0.1,0-0.1-0.1-0.2,0
				c-0.1,0.1-0.1,0.1-0.2,0.1c-0.2,0-0.3,0.1-0.5,0.1c-0.1,0-0.1,0.1-0.1,0.1c0,0.1,0.1,0.1,0.1,0.1c0.1,0,0.2,0,0.3,0
				c0.1,0,0.1,0,0.1,0.1c0,0.2-0.1,0.5,0,0.7c0,0.1,0,0.2,0,0.3c0,0,0,0,0,0c0,0.1,0,0.1,0,0.2c0,0,0,0,0,0c0,0.2,0,0.3,0.1,0.5
				c0.1,0.1,0.1,0,0.1,0c0.1-0.2,0.1-0.4,0.2-0.6c0-0.1,0.1-0.2,0.1-0.3c0-0.2,0.1-0.4,0.1-0.7c0-0.1,0-0.2,0-0.3c0,0,0-0.1,0.1-0.1
				c0.1,0,0.1,0,0.1,0.1c0,0.1,0,0.2,0.1,0.2c0,0.1,0,0.2,0.1,0.3c0,0.2,0.1,0.5,0.2,0.7c0.1,0.2,0.1,0.4,0.2,0.5
				c0.1,0.1,0.2,0.2,0.3,0.1c0.1,0,0.1,0,0.1-0.1c0-0.1-0.1-0.2,0-0.3c0.1-0.4,0.2-0.7,0.3-1.1c0,0,0,0.1,0,0.1
				c0.1,0.4,0.2,0.8,0.3,1.2c0.1,0.2,0.1,0.3,0.3,0.4c0,0,0.1,0.1,0.1,0c0,0,0-0.1,0-0.1c0-0.1,0-0.1-0.1-0.1
				c-0.1-0.1-0.2-0.2-0.2-0.3c-0.1-0.4-0.2-0.8-0.3-1.2c0,0,0-0.1,0-0.1c0.1,0,0.2,0,0.3-0.1c0,0.1-0.1,0.1-0.1,0.1
				c0.1,0,0.2,0,0.3,0c0.1,0,0.2-0.1,0.2,0c0.1,0.1,0.1,0.2,0.1,0.3c0,0,0,0.1,0,0.1c0,0.1,0,0.1-0.1,0.1c-0.1,0-0.1,0.1-0.1,0.2
				c0.1,0,0.2,0,0.2,0c0,0.1,0,0.2,0,0.3c0,0.4,0.1,0.3-0.3,0.4c-0.1,0-0.1,0-0.1,0.1c0,0.1,0.1,0.1,0.2,0.1c0,0,0.1,0,0.1-0.1
				c0.1,0,0.1,0,0.1,0c0,0.1,0.1,0.1,0.2,0.1c0-0.1,0-0.1,0-0.2c-0.1-0.1,0-0.1,0.1-0.1c0.1,0,0.1,0,0.2-0.1c0.1,0,0.2-0.1,0.2-0.1
				c0.1,0.1,0.2,0.1,0.2,0c0.1,0,0.1,0,0.2,0c0,0,0.1,0,0.1,0c0-0.1,0.1-0.1,0.1-0.2l0,0c0-0.1,0-0.1,0-0.2c0-0.1,0-0.1,0-0.1
				c0,0-0.1,0-0.1,0c-0.1,0.1-0.1,0.1-0.2,0.2c0,0,0,0,0,0c0,0-0.1,0-0.2,0c-0.1,0-0.1,0-0.2,0c-0.1,0-0.2,0-0.3,0.1
				c-0.2,0-0.2,0-0.2-0.1c0-0.1,0-0.1,0-0.2c0-0.2,0-0.2,0.2-0.2c0.1,0,0.2,0,0.3-0.2c0.1-0.1,0.1,0,0.2,0c0,0,0,0,0.1,0
				c0,0,0,0,0.1,0c0,0,0-0.1,0-0.1c0,0,0-0.1-0.1-0.1c0-0.1-0.1,0-0.1,0c0,0-0.1,0.1-0.1,0c-0.1,0-0.2,0-0.3,0
				c-0.3,0.1-0.3,0.1-0.3-0.2c0-0.1,0-0.1,0.1-0.2c0.2-0.1,0.5-0.1,0.7-0.1c0.1,0,0.3,0,0.3,0.1c0,0,0,0.1,0.1,0.1
				c0,0,0.1,0,0.1-0.1c0-0.1,0-0.2,0.1,0c0,0,0.1,0,0.1,0c0.2,0,0.5,0,0.7-0.1c0.2-0.1,0.4-0.2,0.6-0.2c0.3-0.1,0.2-0.1,0.2,0.2
				c-0.1,0.5-0.2,1-0.2,1.6c0,0.2,0.1,0.4,0.3,0.6c0.1-0.1,0-0.2,0.1-0.2c0.1,0,0.1-0.1,0.1-0.1C25,13.2,25,12.9,25,12.7
				c0-0.4,0.1-0.8,0.2-1.2c0-0.1,0-0.2,0.1-0.2c0.2-0.1,0.5-0.1,0.7-0.1c0.1,0,0.1,0,0.1,0.1c0,0.1,0,0.1-0.1,0.1
				c-0.1,0-0.1,0-0.2,0c0,0-0.1,0-0.1,0.1c0,0.1,0,0.1,0.1,0.1c0,0,0.1,0,0.1,0c0.1,0,0.1,0,0.1,0.1c0,0.1,0.1,0,0.1,0
				c0,0,0-0.1,0.1-0.1c0.1,0.3,0.1,0.5,0.2,0.7c-0.2,0-0.2,0.1-0.4,0.2c0,0,0,0,0,0.1c0,0.1,0.2,0.2,0.2,0.1c0,0,0.1-0.1,0.1-0.1
				c0.1,0.3,0.1,0.5,0.1,0.7c0,0,0,0.1,0.1,0.1c0.1,0,0.1,0,0.1-0.1c0-0.2,0-0.5,0-0.7c0-0.1,0.1-0.2,0.2-0.2c0.1,0,0.1,0,0.2,0.1
				c0.2,0.1,0.3,0.2,0.4,0.4c0.1,0.2,0.2,0.4,0.3,0.7c0.1,0.1,0.1,0.3,0.1,0.4c0,0.1,0,0.1,0.1,0.2c0.1,0,0.1,0.1,0.2,0.1
				c-0.1-0.8-0.5-1.4-1-1.9C27.5,12.2,27.6,12.1,27.7,12z M27.1,12.1c0,0-0.1,0-0.1,0c-0.1-0.2-0.1-0.4-0.1-0.5c0,0,0-0.1,0.1,0
				c0.2,0,0.4,0,0.7,0.1c0.1,0,0.1,0.1,0,0.2C27.4,12,27.3,12.1,27.1,12.1z"/>
		</g>
		<g>
			<path class="st1" d="M23,14.8c-0.1,0-0.3,0-0.4,0c-0.1,0-0.2,0-0.2,0c-0.1,0-0.1,0-0.2,0c-0.3,0.1-0.6,0.1-0.9,0.2
				c-0.1,0-0.2,0-0.1,0.1c0,0.1,0.1,0.1,0.2,0c0.2-0.1,0.4-0.1,0.7-0.1c0,0-0.1,0.1-0.1,0.1c-0.3,0.5-0.6,1.1-0.9,1.7
				c0,0.1-0.1,0.2-0.1,0.3c0,0.1,0,0.1,0.1,0.2c0.1,0,0.1-0.1,0.1-0.1c0.1-0.2,0.1-0.3,0.2-0.5c0.2-0.6,0.5-1.1,0.9-1.6
				c0-0.1,0.1-0.2,0.2-0.2c0,0,0.1,0,0.1,0c0.1,0.1,0.1,0,0.2,0c0,0,0.1,0,0.1,0c0,0,0,0,0,0c0.1,0,0.2,0,0.3,0c0.1,0,0.2,0,0.2-0.1
				C23.1,14.8,23.1,14.8,23,14.8z"/>
			<path class="st1" d="M20.5,16c-0.1,0-0.1,0.1-0.2,0.2c-0.1,0.2-0.2,0.5-0.3,0.7c0,0-0.1,0.1-0.1,0.1c0,0,0-0.1,0-0.1
				c0-0.2,0.2-0.3,0.2-0.5c0,0,0-0.1,0-0.1c0,0-0.1,0-0.1,0c-0.1,0-0.1,0.1-0.1,0.2c-0.1,0.2-0.2,0.3-0.4,0.5c0,0-0.1,0.1-0.1,0
				c0,0,0-0.1,0-0.1c0.1-0.2,0.2-0.3,0.3-0.5c0,0,0.1-0.1,0-0.1c-0.1-0.1-0.1,0-0.1,0c-0.2,0.2-0.4,0.4-0.4,0.7c0,0.1,0,0.2,0.1,0.2
				c0.1,0.1,0.2,0,0.2-0.1c0.1-0.1,0.2-0.2,0.3-0.4c0,0.1,0,0.1,0,0.1c0,0.1-0.1,0.2,0,0.3c0.1,0.1,0.2,0,0.3-0.1c0,0,0,0,0,0
				c0.2-0.2,0.4-0.5,0.5-0.8C20.5,16.1,20.6,16,20.5,16z"/>
			<path class="st1" d="M25.3,16.5c-0.1,0-0.1,0-0.1,0.1c-0.1,0.1-0.1,0.2-0.2,0.3c0,0-0.1,0.1-0.1,0c0,0,0-0.1,0-0.1
				c0.1-0.2,0.2-0.3,0.3-0.5c0-0.1,0.1-0.1,0-0.2c-0.1-0.1-0.1,0-0.2,0c-0.1,0.1-0.2,0.2-0.4,0.3c0-0.1,0.1-0.2,0.1-0.3
				c0.2-0.3,0.3-0.6,0.5-0.9c0-0.1,0.1-0.1,0-0.2c-0.1,0-0.1,0-0.1,0.1c-0.4,0.6-0.7,1.2-0.9,1.9c0,0.1-0.1,0.2,0,0.2
				c0.1,0,0.1-0.1,0.1-0.1c0-0.1,0.1-0.1,0.1-0.2c0.1-0.2,0.2-0.4,0.5-0.5c0,0.1-0.1,0.1-0.1,0.2c-0.1,0.1-0.1,0.2-0.1,0.3
				c0,0.1,0,0.2,0.1,0.2c0.1,0.1,0.1,0,0.2,0c0.2-0.1,0.3-0.3,0.4-0.5C25.4,16.5,25.4,16.5,25.3,16.5z"/>
			<path class="st1" d="M23.1,16.5c-0.1,0-0.1,0-0.1,0.1c-0.1,0.1-0.2,0.2-0.3,0.3c-0.1,0-0.2,0.1-0.2,0c-0.1,0-0.1-0.1-0.1-0.1
				c0-0.1,0-0.1,0.1-0.1c0.1,0,0.1,0,0.1-0.1c0,0,0.1,0,0.1-0.1c0.2-0.1,0.3-0.2,0.3-0.4c0-0.1,0-0.2-0.2-0.2
				c-0.1,0-0.1,0.1-0.2,0.1c0,0-0.1,0-0.1,0.1c-0.2,0.2-0.4,0.4-0.4,0.7c-0.1,0.2,0,0.3,0.2,0.2c0.1,0,0.2,0,0.3,0
				c0.2-0.1,0.3-0.2,0.5-0.4C23.1,16.6,23.2,16.6,23.1,16.5z"/>
			<path class="st1" d="M24,16.6c-0.1-0.1-0.1,0.1-0.1,0.1c-0.1,0.1-0.2,0.2-0.4,0.3c-0.1,0-0.1,0-0.2,0c-0.1,0-0.1-0.1,0-0.2
				c0.1-0.2,0.2-0.4,0.4-0.6c0,0,0,0,0,0c0,0,0.1,0,0.1,0c0,0,0,0.1,0,0.1c0,0-0.1,0.1-0.1,0.1c0,0,0,0.1,0,0.1c0,0,0.1,0,0.1,0
				c0.1-0.1,0.2-0.2,0.2-0.3c0-0.1-0.1-0.2-0.2-0.2c-0.1,0-0.1,0.1-0.2,0.1c-0.2,0.2-0.4,0.4-0.4,0.8c0,0.2,0.1,0.3,0.3,0.3
				c0.1,0,0.2,0,0.2-0.1c0.1-0.1,0.2-0.2,0.3-0.3C24,16.7,24.1,16.6,24,16.6z"/>
			<path class="st1" d="M16.9,14.8c-0.2-0.1-0.4,0-0.6,0.1c-0.1,0.1-0.2,0.1-0.3,0.2c0,0,0,0.1,0,0.1c0,0,0.1,0,0.1,0
				c0,0,0.1-0.1,0.1-0.1c-0.1,0.1-0.1,0.2-0.2,0.3c-0.3,0.5-0.5,1-0.7,1.5c-0.1,0.2,0.1,0.3,0.2,0.3c0.1,0,0.2,0,0.3-0.1
				c0.5-0.3,0.8-0.7,1.1-1.1c0.1-0.2,0.2-0.5,0.2-0.7C17.3,15.1,17.1,14.9,16.9,14.8z M16.9,16c-0.2,0.4-0.5,0.8-0.9,1.1
				c-0.1,0.1-0.2,0.1-0.3,0.1c-0.1,0-0.2,0-0.1-0.1c0-0.1,0.1-0.3,0.2-0.4c0.2-0.4,0.4-0.8,0.6-1.2c0-0.1,0.1-0.1,0.1-0.3
				c0,0,0,0,0.1,0c0.1,0,0.2-0.1,0.3-0.1c0.2,0,0.3,0.1,0.3,0.3C17.1,15.5,17,15.8,16.9,16z"/>
			<path class="st1" d="M18.3,16.3C18.2,16.3,18.2,16.3,18.3,16.3c-0.2,0-0.2,0.1-0.3,0.1c-0.1-0.1,0-0.1,0-0.2c0,0,0.1,0,0.1-0.1
				c0,0,0.1-0.1,0.1-0.1c0-0.1-0.1,0-0.1,0c0,0-0.1,0-0.1,0.1c0,0-0.1,0.1-0.1,0.1c0,0-0.1,0-0.1,0c0,0-0.1,0.1-0.1,0.1
				c0.1-0.1,0.1-0.1,0.1-0.2c0,0,0-0.1,0-0.1c-0.1-0.1-0.2,0-0.2,0.1c-0.2,0.3-0.3,0.6-0.4,0.9c0,0,0,0.1,0,0.1c0.1,0,0.1,0,0.1-0.1
				c0.1-0.1,0.1-0.2,0.2-0.3c0,0,0,0,0-0.1c0.1-0.1,0.1-0.2,0.2-0.2c0,0,0.1,0,0.1,0c0,0.1,0,0.1,0.1,0.1c0,0,0.1,0,0.1,0
				c0.1,0,0.1,0,0.2,0C18.1,16.5,18.2,16.5,18.3,16.3z"/>
			<path class="st1" d="M19,16.2c0-0.1-0.1-0.2-0.2-0.2c-0.1,0-0.2,0.1-0.3,0.1c-0.1,0.1-0.1,0.1-0.2,0.2c0,0-0.1,0-0.1,0.1
				c-0.1,0.1-0.1,0.3-0.2,0.5c0,0,0,0.1,0,0.1c0,0,0,0,0,0c0,0.1,0.1,0.1,0.1,0.1c0.1,0.1,0.1,0.1,0.2,0c0.1-0.1,0.2-0.2,0.2-0.3
				c0,0.1,0,0.1,0,0.2c0,0.1,0.1,0.2,0.2,0.2c0,0,0.1,0,0.1-0.1c0,0,0-0.1,0-0.1c-0.2-0.1-0.1-0.2-0.1-0.3
				C18.9,16.5,19,16.4,19,16.2z M18.8,16.3c-0.1,0.2-0.2,0.4-0.4,0.6c-0.1,0-0.1-0.1-0.1-0.2c0-0.1,0-0.1,0.1-0.1
				c0.1,0,0.1-0.1,0.1-0.2c0.1-0.1,0.1-0.2,0.2-0.2c0.1,0,0.1,0,0.2,0C18.9,16.2,18.9,16.3,18.8,16.3z"/>
		</g>
	</g>
</g>
</svg>
