<svg xmlns="http://www.w3.org/2000/svg" viewBox="0 0 30 29.26"><defs><style>.cls-1{fill:#161614;}</style></defs><title>Recurso 1</title><g id="Capa_2" data-name="Capa 2"><g id="Capa_1-2" data-name="Capa 1"><path class="cls-1" d="M15,0a15,15,0,0,0-4.74,29.23c.75.14,1-.32,1-.72s0-1.54,0-2.79c-4.17.91-5-1.77-5-1.77a4,4,0,0,0-1.67-2.2c-1.36-.93.11-.91.11-.91A3.18,3.18,0,0,1,7,22.39a3.19,3.19,0,0,0,4.36,1.25,3.21,3.21,0,0,1,.95-2C8.93,21.25,5.43,20,5.43,14.22a5.8,5.8,0,0,1,1.54-4,5.46,5.46,0,0,1,.15-4s1.26-.4,4.13,1.54A14.62,14.62,0,0,1,15,7.25a14.76,14.76,0,0,1,3.76.51c2.86-1.94,4.12-1.54,4.12-1.54a5.4,5.4,0,0,1,.15,4,5.8,5.8,0,0,1,1.54,4c0,5.76-3.51,7-6.85,7.4a3.57,3.57,0,0,1,1,2.78c0,2,0,3.62,0,4.11s.27.87,1,.72A15,15,0,0,0,15,0"/><path class="cls-1" d="M5.62,21.37c0,.07-.15.09-.26,0s-.17-.15-.13-.22.15-.1.25-.05.18.15.14.23m.74.66A.25.25,0,0,1,6.05,22c-.1-.11-.12-.25,0-.31s.21,0,.3.06.12.25.05.32m.5.84c-.09.06-.24,0-.33-.13a.27.27,0,0,1,0-.36c.09-.06.24,0,.33.13a.25.25,0,0,1,0,.36m.86,1c-.08.09-.26.07-.39-.05s-.17-.3-.08-.39.26-.06.39.06.17.29.08.38m1.1.33c0,.12-.2.17-.37.12s-.28-.18-.25-.3a.29.29,0,0,1,.38-.12c.17.05.28.18.24.3m1.26.14c0,.13-.14.23-.31.23s-.33-.09-.33-.22.14-.22.32-.23.32.1.32.22m1.24,0c0,.12-.1.24-.28.27a.29.29,0,0,1-.36-.16c0-.12.11-.25.28-.28s.34,0,.36.17"/></g></g></svg>