<svg xmlns="http://www.w3.org/2000/svg" viewBox="0 0 30 30"><defs><style>.cls-1{fill:#e44d26;}.cls-2{fill:#f16529;}.cls-3{fill:#ebebeb;}.cls-4{fill:#fff;}.cls-5{fill:none;}</style></defs><title>Recurso 1</title><g id="Capa_2" data-name="Capa 2"><g id="Capa_1-2" data-name="Capa 1"><path class="cls-1" d="M6.31,27.59,4.37,5.9H25.63L23.69,27.59,15,30Z"/><path class="cls-2" d="M15,28.16l7-1.95L23.69,7.67H15Z"/><path class="cls-3" d="M15,15.72H11.48L11.24,13H15V10.33H8.33l.06.71.66,7.34H15Zm0,6.91h0l-3-.8-.19-2.12H9.16l.38,4.17L15,25.4h0Z"/><path d="M6.35,0H7.7V1.34H8.94V0h1.35V4.05H8.94V2.69H7.7V4.05H6.35Zm5.72,1.34H10.88V0h3.73V1.34H13.42V4.05H12.07V1.34ZM15.21,0h1.41l.86,1.42L18.35,0h1.41V4.05H18.41V2l-.93,1.44h0L16.53,2v2H15.21V0Zm5.22,0h1.36V2.71h1.9V4.05H20.43Z"/><path class="cls-4" d="M15,15.72v2.66h3.28L18,21.83l-3,.8V25.4l5.46-1.52,0-.44.62-7,.07-.71H15Zm0-5.39V13h6.43l0-.6L21.59,11l.07-.71Z"/><rect class="cls-5" width="30" height="30"/></g></g></svg>