<?xml version="1.0" encoding="utf-8"?>
<!-- Generator: Adobe Illustrator 24.0.1, SVG Export Plug-In . SVG Version: 6.00 Build 0)  -->
<svg version="1.1" id="Capa_1" xmlns="http://www.w3.org/2000/svg" xmlns:xlink="http://www.w3.org/1999/xlink" x="0px" y="0px"
	 viewBox="0 0 30 30" style="enable-background:new 0 0 30 30;" xml:space="preserve">
<style type="text/css">
	.st0{opacity:0.8;fill:#00263E;}
	.st1{fill:#00263E;}
	.st2{opacity:0.8;}
	.st3{fill:#00263E;stroke:#C6C6C6;stroke-width:0.75;stroke-miterlimit:10;}
</style>
<title>Recurso 7</title>
<g>
	<path class="st0" d="M23.1,6.3c-0.5,0-0.9,0.3-1.1,0.7l-3.2,8.6c-0.2,0.6,0.1,1.3,0.7,1.5l0,0c0.1,0,0.3,0.1,0.4,0.1
		c0.5,0,0.9-0.3,1.1-0.7l0.6-1.6h3l0.6,1.6c0.2,0.4,0.6,0.8,1.1,0.8c0.1,0,0.3,0,0.4-0.1c0.6-0.2,0.9-0.9,0.7-1.5l-3.2-8.6
		C24,6.6,23.6,6.3,23.1,6.3z M22.4,12.5l0.6-1.7l0.6,1.7H22.4z"/>
	<g>
		<path class="st1" d="M5.3,19.9C5.3,19.8,5.4,19.8,5.3,19.9c0.1-0.1,0.2,0,0.2,0v0.9c0,0,0,0.1-0.1,0.1c0,0-0.1,0-0.1-0.1V19.9z"/>
		<path class="st1" d="M5.9,20.8C5.9,20.8,5.9,20.9,5.9,20.8c-0.1,0.1-0.2,0-0.2,0v-0.9c0,0,0,0,0,0c0,0,0-0.1,0-0.1
			c0,0,0.1,0,0.1,0l0.5,0.7v-0.6c0,0,0-0.1,0.1-0.1s0.1,0,0.1,0.1v0.9c0,0,0,0.1-0.1,0.1c0,0,0,0-0.1,0c0,0,0,0,0,0l-0.5-0.7V20.8z"
			/>
		<path class="st1" d="M6.8,20.3c0-0.3,0.3-0.6,0.6-0.6c0.1,0,0.3,0,0.4,0.1c0,0,0,0.1,0,0.1c0,0-0.1,0-0.1,0C7.5,20,7.4,20,7.3,20
			c-0.1,0-0.2,0-0.3,0.1C7,20.1,7,20.2,7,20.3c0,0.1,0,0.2,0.1,0.3c0.1,0.1,0.2,0.1,0.3,0.1c0.1,0,0.1,0,0.2-0.1v-0.2H7.3
			c0,0-0.1,0-0.1-0.1c0,0,0-0.1,0.1-0.1h0.3c0,0,0,0,0,0c0,0,0,0,0,0c0,0,0.1,0,0.1,0.1v0.3c0,0,0,0,0,0c0,0,0,0,0,0v0c0,0,0,0,0,0
			c-0.1,0.1-0.2,0.1-0.4,0.1C7,20.9,6.8,20.6,6.8,20.3z"/>
		<path class="st1" d="M8,20.8v-0.9c0,0,0-0.1,0.1-0.1h0c0,0,0,0,0,0h0.5c0,0,0.1,0,0.1,0.1c0,0,0,0.1-0.1,0.1H8.2v0.3h0.4
			c0,0,0.1,0,0.1,0.1c0,0,0,0.1-0.1,0.1H8.2v0.3h0.4c0,0,0.1,0,0.1,0.1c0,0,0,0.1-0.1,0.1L8,20.8C8.1,20.9,8.1,20.9,8,20.8L8,20.8
			C8.1,20.9,8,20.8,8,20.8z"/>
		<path class="st1" d="M9.1,20.8C9.1,20.8,9.1,20.9,9.1,20.8c-0.1,0.1-0.2,0-0.2,0v-0.9c0,0,0,0,0,0c0,0,0-0.1,0-0.1
			c0,0,0.1,0,0.1,0l0.5,0.7v-0.6c0,0,0-0.1,0.1-0.1s0.1,0,0.1,0.1v0.9c0,0,0,0.1-0.1,0.1c0,0,0,0-0.1,0c0,0,0,0,0,0l-0.5-0.7V20.8z"
			/>
		<path class="st1" d="M10,19.9C10,19.8,10.1,19.8,10,19.9c0.1-0.1,0.2,0,0.2,0v0.9c0,0,0,0.1-0.1,0.1c0,0-0.1,0-0.1-0.1V19.9z"/>
		<path class="st1" d="M10.5,20.8v-0.9c0,0,0-0.1,0.1-0.1h0c0,0,0,0,0,0h0.5c0,0,0.1,0,0.1,0.1c0,0,0,0.1-0.1,0.1h-0.4v0.3H11
			c0,0,0.1,0,0.1,0.1c0,0,0,0.1-0.1,0.1h-0.4v0.3h0.4c0,0,0.1,0,0.1,0.1c0,0,0,0.1-0.1,0.1L10.5,20.8C10.6,20.9,10.6,20.9,10.5,20.8
			L10.5,20.8C10.5,20.9,10.5,20.8,10.5,20.8z"/>
		<path class="st1" d="M12.1,20.8c0,0,0,0.1-0.1,0.1c0,0,0,0,0,0c0,0,0,0,0,0c0,0,0,0-0.1,0c0,0,0,0,0-0.1c0,0,0-0.1,0-0.2
			c0,0,0,0,0-0.1c0,0,0,0,0,0c0,0-0.1,0-0.1,0h-0.2v0.3c0,0,0,0.1-0.1,0.1s-0.1,0-0.1-0.1v-0.9c0,0,0-0.1,0.1-0.1c0,0,0,0,0,0h0.3
			c0.2,0,0.3,0.1,0.3,0.3c0,0.1,0,0.2-0.1,0.3c0,0,0,0,0.1,0.1c0,0,0.1,0.1,0.1,0.2C12,20.7,12,20.7,12.1,20.8
			C12.1,20.7,12.1,20.7,12.1,20.8z M11.9,20.1c0-0.1-0.1-0.2-0.2-0.2h-0.2v0.3h0.2C11.8,20.3,11.9,20.2,11.9,20.1z"/>
		<path class="st1" d="M12.2,19.6C12.2,19.6,12.2,19.6,12.2,19.6l0.1-0.2c0,0,0,0,0.1,0c0,0,0.1,0,0.1,0.1c0,0,0,0,0,0l-0.1,0.1
			C12.3,19.7,12.3,19.7,12.2,19.6C12.2,19.7,12.2,19.7,12.2,19.6z M12.4,20.9C12.4,20.9,12.5,20.9,12.4,20.9l0.1-1
			c0,0,0-0.1-0.1-0.1c0,0-0.1,0-0.1,0.1L12.4,20.9C12.3,20.9,12.3,20.9,12.4,20.9z"/>
		<path class="st1" d="M13.3,20.6h-0.4l-0.1,0.2c0,0,0,0.1-0.1,0.1c0,0,0,0,0,0c0,0-0.1-0.1-0.1-0.1l0.3-0.9c0,0,0-0.1,0.1-0.1
			c0,0,0.1,0,0.1,0.1l0.3,0.9c0,0,0,0.1-0.1,0.1c0,0,0,0,0,0c0,0-0.1,0-0.1-0.1L13.3,20.6z M13.2,20.5l-0.1-0.3l-0.1,0.3H13.2z"/>
		<path class="st1" d="M14.4,20.4L14,19.9c0,0,0,0,0-0.1c0,0,0,0,0.1,0L14.4,20.4l0.4-0.5c0,0,0,0,0.1,0c0,0,0,0,0,0.1L14.4,20.4
			l0.1,0.5c0,0,0,0,0,0c0,0,0,0,0,0V20.4z"/>
		<path class="st1" d="M15.4,20.8v-0.9c0,0,0-0.1,0.1-0.1h0.2c0.3,0,0.5,0.2,0.5,0.5c0,0.3-0.2,0.5-0.5,0.5L15.4,20.8
			C15.5,20.9,15.4,20.8,15.4,20.8z M15.6,20.7L15.6,20.7c0.3,0,0.5-0.2,0.5-0.4c0-0.2-0.2-0.4-0.4-0.4h-0.1V20.7z"/>
		<path class="st1" d="M16.4,20.8v-0.9c0,0,0-0.1,0.1-0.1h0c0,0,0,0,0,0H17c0,0,0.1,0,0.1,0.1c0,0,0,0.1-0.1,0.1h-0.4v0.3H17
			c0,0,0.1,0,0.1,0.1c0,0,0,0.1-0.1,0.1h-0.4v0.3H17c0,0,0.1,0,0.1,0.1c0,0,0,0.1-0.1,0.1L16.4,20.8C16.5,20.9,16.5,20.9,16.4,20.8
			L16.4,20.8C16.5,20.9,16.4,20.8,16.4,20.8z"/>
		<path class="st1" d="M17.3,20.6c0,0,0.1,0,0.1,0c0.1,0.1,0.2,0.1,0.3,0.1c0.1,0,0.1,0,0.2-0.1c0,0,0.1-0.1,0.1-0.1c0,0,0,0,0,0
			c0,0,0,0,0,0c0,0-0.1-0.1-0.2-0.1h0c-0.1,0-0.1,0-0.2-0.1c-0.1,0-0.1-0.1-0.1-0.1c0,0,0-0.1,0-0.1c0-0.1,0.1-0.2,0.1-0.2
			c0.1-0.1,0.2-0.1,0.3-0.1c0.1,0,0.3,0.1,0.3,0.1c0,0,0,0.1,0,0.1c0,0-0.1,0-0.1,0c-0.1-0.1-0.2-0.1-0.2-0.1c-0.1,0-0.1,0-0.2,0.1
			c0,0-0.1,0.1-0.1,0.1c0,0,0,0,0,0c0,0,0,0,0,0c0,0,0.1,0.1,0.2,0.1h0c0.1,0,0.2,0,0.2,0.1c0.1,0,0.1,0.1,0.2,0.1c0,0,0,0.1,0,0.1
			c0,0.1-0.1,0.2-0.1,0.2c-0.1,0.1-0.2,0.1-0.3,0.1c-0.2,0-0.3-0.1-0.4-0.2C17.2,20.7,17.2,20.7,17.3,20.6z"/>
		<path class="st1" d="M18.8,20.6h-0.4l-0.1,0.2c0,0,0,0.1-0.1,0.1c0,0,0,0,0,0c0,0-0.1-0.1-0.1-0.1l0.3-0.9c0,0,0-0.1,0.1-0.1
			c0,0,0.1,0,0.1,0.1l0.3,0.9c0,0,0,0.1-0.1,0.1c0,0,0,0,0,0c0,0-0.1,0-0.1-0.1L18.8,20.6z M18.8,20.5l-0.1-0.3l-0.1,0.3H18.8z"/>
		<path class="st1" d="M20,20.8c0,0,0,0.1-0.1,0.1c0,0,0,0,0,0c0,0,0,0,0,0c0,0,0,0-0.1,0c0,0,0,0,0-0.1c0,0,0-0.1,0-0.2
			c0,0,0,0,0-0.1c0,0,0,0,0,0c0,0-0.1,0-0.1,0h-0.2v0.3c0,0,0,0.1-0.1,0.1c0,0-0.1,0-0.1-0.1v-0.9c0,0,0-0.1,0.1-0.1c0,0,0,0,0,0
			h0.3c0.2,0,0.3,0.1,0.3,0.3c0,0.1,0,0.2-0.1,0.3c0,0,0,0,0.1,0.1c0,0,0.1,0.1,0.1,0.2C19.9,20.7,19.9,20.7,20,20.8
			C19.9,20.7,19.9,20.7,20,20.8z M19.7,20.1c0-0.1-0.1-0.2-0.2-0.2h-0.2v0.3h0.2C19.7,20.3,19.7,20.2,19.7,20.1z"/>
		<path class="st1" d="M20.9,20.8c0,0,0,0.1-0.1,0.1c0,0,0,0,0,0c0,0,0,0,0,0c0,0,0,0-0.1,0c0,0,0,0,0-0.1c0,0,0-0.1,0-0.2
			c0,0,0,0,0-0.1c0,0,0,0,0,0c0,0-0.1,0-0.1,0h-0.2v0.3c0,0,0,0.1-0.1,0.1c0,0-0.1,0-0.1-0.1v-0.9c0,0,0-0.1,0.1-0.1c0,0,0,0,0,0
			h0.3c0.2,0,0.3,0.1,0.3,0.3c0,0.1,0,0.2-0.1,0.3c0,0,0,0,0.1,0.1c0,0,0.1,0.1,0.1,0.2C20.8,20.7,20.8,20.7,20.9,20.8
			C20.9,20.7,20.9,20.7,20.9,20.8z M20.7,20.1c0-0.1-0.1-0.2-0.2-0.2h-0.2v0.3h0.2C20.6,20.3,20.7,20.2,20.7,20.1z"/>
		<path class="st1" d="M21.9,19.9c0.1,0.1,0.2,0.2,0.2,0.4c0,0.2-0.1,0.3-0.2,0.4c-0.1,0.1-0.2,0.2-0.4,0.2c-0.1,0-0.3-0.1-0.4-0.2
			c-0.1-0.1-0.2-0.2-0.2-0.4c0-0.2,0.1-0.3,0.2-0.4c0.1-0.1,0.2-0.2,0.4-0.2C21.7,19.8,21.8,19.8,21.9,19.9z M21.9,20.3
			c0-0.1,0-0.2-0.1-0.3C21.7,20,21.7,20,21.6,20c-0.1,0-0.2,0-0.3,0.1c-0.1,0.1-0.1,0.2-0.1,0.3s0,0.2,0.1,0.3
			c0.1,0.1,0.2,0.1,0.3,0.1c0.1,0,0.2,0,0.2-0.1C21.9,20.5,21.9,20.4,21.9,20.3z"/>
		<path class="st1" d="M22.3,20.8v-0.9c0,0,0-0.1,0.1-0.1c0,0,0.1,0,0.1,0.1v0.8h0.4c0,0,0.1,0,0.1,0.1c0,0,0,0.1-0.1,0.1L22.3,20.8
			C22.4,20.9,22.4,20.9,22.3,20.8C22.4,20.9,22.4,20.9,22.3,20.8C22.4,20.9,22.3,20.8,22.3,20.8z"/>
		<path class="st1" d="M23.2,20.8v-0.9c0,0,0-0.1,0.1-0.1c0,0,0.1,0,0.1,0.1v0.8h0.4c0,0,0.1,0,0.1,0.1c0,0,0,0.1-0.1,0.1L23.2,20.8
			C23.3,20.9,23.3,20.9,23.2,20.8C23.3,20.9,23.3,20.9,23.2,20.8C23.2,20.9,23.2,20.8,23.2,20.8z"/>
		<path class="st1" d="M24.8,19.9c0.1,0.1,0.2,0.2,0.2,0.4c0,0.2-0.1,0.3-0.2,0.4c-0.1,0.1-0.2,0.2-0.4,0.2c-0.1,0-0.3-0.1-0.4-0.2
			c-0.1-0.1-0.2-0.2-0.2-0.4c0-0.2,0.1-0.3,0.2-0.4c0.1-0.1,0.2-0.2,0.4-0.2C24.6,19.8,24.7,19.8,24.8,19.9z M24.8,20.3
			c0-0.1,0-0.2-0.1-0.3C24.6,20,24.5,20,24.4,20c-0.1,0-0.2,0-0.3,0.1c-0.1,0.1-0.1,0.2-0.1,0.3s0,0.2,0.1,0.3
			c0.1,0.1,0.2,0.1,0.3,0.1c0.1,0,0.2,0,0.2-0.1C24.7,20.5,24.8,20.4,24.8,20.3z"/>
		<path class="st1" d="M5.3,21.3C5.3,21.3,5.3,21.3,5.3,21.3L5.3,21.3l0.3,0c0.2,0,0.3,0.1,0.3,0.3s-0.1,0.3-0.3,0.3l-0.2,0v0.4
			c0,0,0,0,0,0c0,0,0,0,0,0V21.3z M5.6,21.8c0.1,0,0.2-0.1,0.2-0.2c0-0.1-0.1-0.2-0.2-0.2H5.4v0.4H5.6z"/>
		<path class="st1" d="M6.5,22H6.1L6,22.2c0,0,0,0,0,0c0,0,0,0,0,0c0,0,0,0,0,0l0.3-0.9c0,0,0,0,0,0c0,0,0,0,0,0l0.3,0.9
			c0,0,0,0,0,0c0,0,0,0,0,0c0,0,0,0,0,0L6.5,22z M6.1,21.9h0.4l-0.2-0.5L6.1,21.9z"/>
		<path class="st1" d="M7.3,22c0-0.1,0-0.1-0.1-0.1c0,0-0.1,0-0.1,0c0,0,0,0,0,0H6.9v0.4c0,0,0,0,0,0c0,0,0,0,0,0v-0.9c0,0,0,0,0,0
			h0h0h0.3c0.2,0,0.3,0.1,0.3,0.3c0,0.1-0.1,0.2-0.2,0.2c0,0,0,0,0,0C7.3,21.9,7.4,21.9,7.3,22c0.1,0.1,0.1,0.1,0.1,0.1c0,0,0,0,0,0
			c0,0,0,0,0,0c0,0,0,0,0,0c0,0,0,0,0,0h0c0,0,0,0-0.1,0C7.3,22.2,7.3,22.1,7.3,22z M7.1,21.4H6.9v0.4h0.2h0c0.1,0,0.2-0.1,0.2-0.2
			C7.3,21.5,7.2,21.4,7.1,21.4z"/>
		<path class="st1" d="M8.2,22H7.7l-0.1,0.2c0,0,0,0,0,0c0,0,0,0,0,0c0,0,0,0,0,0l0.3-0.9c0,0,0,0,0,0c0,0,0,0,0,0l0.3,0.9
			c0,0,0,0,0,0c0,0,0,0,0,0c0,0,0,0,0,0L8.2,22z M7.8,21.9h0.4L8,21.4L7.8,21.9z"/>
		<path class="st1" d="M8.9,22.2v-0.8c0,0,0-0.1,0.1-0.1h0c0,0,0,0,0,0h0.4c0,0,0.1,0,0.1,0.1c0,0,0,0.1-0.1,0.1H9.1v0.3h0.3
			c0,0,0.1,0,0.1,0.1c0,0,0,0.1-0.1,0.1H9.1v0.3h0.4c0,0,0.1,0,0.1,0.1c0,0,0,0.1-0.1,0.1L8.9,22.2C9,22.3,9,22.3,8.9,22.2L8.9,22.2
			C8.9,22.3,8.9,22.2,8.9,22.2z"/>
		<path class="st1" d="M10.7,22.4c-0.1,0.1-0.2,0.1-0.2,0.1h0c-0.1,0-0.2,0-0.3-0.1c0,0-0.1,0-0.1,0c0,0-0.1,0-0.1,0
			c0,0-0.1,0-0.1,0c0,0,0,0,0,0c0,0,0,0,0,0c0,0,0,0,0,0c0,0,0-0.1,0-0.1l0,0c-0.1,0-0.1-0.1-0.2-0.1c-0.1-0.1-0.1-0.2-0.1-0.4
			c0-0.1,0.1-0.3,0.1-0.4c0.1-0.1,0.2-0.2,0.3-0.2c0.1,0,0.3,0.1,0.3,0.2c0.1,0.1,0.1,0.2,0.1,0.4c0,0.1-0.1,0.3-0.1,0.4
			c0,0-0.1,0.1-0.2,0.1l0,0c0.1,0,0.1,0,0.2,0c0,0,0.1,0,0.1-0.1c0,0,0.1,0,0.1,0C10.7,22.3,10.7,22.4,10.7,22.4z M9.9,22
			c0.1,0.1,0.1,0.1,0.2,0.1c0.1,0,0.2,0,0.2-0.1c0.1-0.1,0.1-0.2,0.1-0.2c0-0.1,0-0.2-0.1-0.2c-0.1-0.1-0.1-0.1-0.2-0.1
			c-0.1,0-0.2,0-0.2,0.1c-0.1,0.1-0.1,0.1-0.1,0.2C9.8,21.9,9.8,22,9.9,22z"/>
		<path class="st1" d="M11.2,22.3c-0.2,0-0.4-0.2-0.4-0.4v-0.5c0,0,0-0.1,0.1-0.1c0,0,0.1,0,0.1,0.1v0.5c0,0.1,0.1,0.2,0.2,0.2
			c0.1,0,0.2-0.1,0.2-0.2v-0.5c0,0,0-0.1,0.1-0.1c0,0,0.1,0,0.1,0.1v0.5C11.6,22.1,11.4,22.3,11.2,22.3z"/>
		<path class="st1" d="M11.9,21.4C11.9,21.3,11.9,21.3,11.9,21.4c0.1-0.1,0.2,0,0.2,0v0.8c0,0,0,0.1-0.1,0.1c0,0-0.1,0-0.1-0.1V21.4
			z"/>
		<path class="st1" d="M12.6,21.9h-0.2v0.3c0,0,0,0.1-0.1,0.1c0,0-0.1,0-0.1-0.1v-0.8c0,0,0-0.1,0.1-0.1h0h0.2
			c0.2,0,0.3,0.1,0.3,0.3C12.9,21.8,12.7,21.9,12.6,21.9z M12.4,21.7h0.2c0.1,0,0.1-0.1,0.1-0.1c0-0.1-0.1-0.1-0.1-0.1h-0.2V21.7z"
			/>
		<path class="st1" d="M13.8,21.4c0.1,0.1,0.1,0.2,0.1,0.3c0,0.1-0.1,0.3-0.1,0.3c-0.1,0.1-0.2,0.1-0.3,0.1c-0.1,0-0.3-0.1-0.3-0.1
			C13,22,13,21.9,13,21.8c0-0.1,0.1-0.3,0.1-0.3c0.1-0.1,0.2-0.1,0.3-0.1C13.6,21.3,13.7,21.3,13.8,21.4z M13.8,21.8
			c0-0.1,0-0.2-0.1-0.2c-0.1-0.1-0.1-0.1-0.2-0.1c-0.1,0-0.2,0-0.2,0.1c-0.1,0.1-0.1,0.1-0.1,0.2c0,0.1,0,0.2,0.1,0.2
			c0.1,0.1,0.1,0.1,0.2,0.1c0.1,0,0.2,0,0.2-0.1C13.7,21.9,13.8,21.9,13.8,21.8z"/>
		<path class="st1" d="M14.1,22c0,0,0.1,0,0.1,0c0.1,0,0.2,0.1,0.3,0.1c0.1,0,0.1,0,0.2-0.1c0,0,0.1-0.1,0.1-0.1c0,0,0,0,0,0
			c0,0,0,0,0,0c0,0-0.1,0-0.2-0.1h0c-0.1,0-0.1,0-0.2-0.1c-0.1,0-0.1-0.1-0.1-0.1c0,0,0-0.1,0-0.1c0-0.1,0-0.2,0.1-0.2
			c0.1,0,0.1-0.1,0.2-0.1c0.1,0,0.2,0.1,0.3,0.1c0,0,0,0.1,0,0.1c0,0-0.1,0-0.1,0c-0.1,0-0.1-0.1-0.2-0.1c-0.1,0-0.1,0-0.2,0
			c0,0-0.1,0.1-0.1,0.1c0,0,0,0,0,0c0,0,0,0,0,0c0,0,0.1,0,0.2,0.1h0c0.1,0,0.1,0,0.2,0.1c0.1,0,0.1,0.1,0.1,0.1c0,0,0,0.1,0,0.1
			c0,0.1,0,0.2-0.1,0.2c-0.1,0-0.2,0.1-0.3,0.1c-0.1,0-0.3-0.1-0.4-0.1C14.1,22.1,14.1,22.1,14.1,22z"/>
		<path class="st1" d="M15.9,22h-0.3l-0.1,0.2c0,0,0,0-0.1,0c0,0,0,0,0,0c0,0-0.1-0.1,0-0.1l0.3-0.8c0,0,0,0,0.1,0c0,0,0.1,0,0.1,0
			l0.3,0.8c0,0,0,0.1,0,0.1c0,0,0,0,0,0c0,0-0.1,0-0.1,0L15.9,22z M15.9,21.9l-0.1-0.3l-0.1,0.3H15.9z"/>
		<path class="st1" d="M16.3,22.2v-0.8c0,0,0-0.1,0.1-0.1c0,0,0.1,0,0.1,0.1v0.7h0.4c0,0,0.1,0,0.1,0.1c0,0,0,0.1-0.1,0.1L16.3,22.2
			C16.4,22.3,16.4,22.3,16.3,22.2C16.4,22.3,16.4,22.3,16.3,22.2C16.3,22.3,16.3,22.2,16.3,22.2z"/>
		<path class="st1" d="M17,21.4C17,21.3,17.1,21.3,17,21.4c0.1-0.1,0.2,0,0.2,0v0.8c0,0,0,0.1-0.1,0.1c0,0-0.1,0-0.1-0.1V21.4z"/>
		<path class="st1" d="M18.3,21.4v0.8c0,0,0,0.1-0.1,0.1c0,0-0.1,0-0.1-0.1v-0.6l-0.2,0.3c0,0,0,0-0.1,0h0h0c0,0,0,0-0.1,0l-0.2-0.3
			v0.6c0,0,0,0.1-0.1,0.1c0,0-0.1,0-0.1-0.1v-0.8c0,0,0-0.1,0.1-0.1c0,0,0,0,0,0c0,0,0,0,0.1,0l0.3,0.4l0.3-0.4
			C18.1,21.3,18.2,21.3,18.3,21.4C18.2,21.3,18.2,21.3,18.3,21.4C18.2,21.3,18.3,21.3,18.3,21.4z"/>
		<path class="st1" d="M18.5,22.2v-0.8c0,0,0-0.1,0.1-0.1h0c0,0,0,0,0,0H19c0,0,0.1,0,0.1,0.1c0,0,0,0.1-0.1,0.1h-0.4v0.3H19
			c0,0,0.1,0,0.1,0.1c0,0,0,0.1-0.1,0.1h-0.3v0.3H19c0,0,0.1,0,0.1,0.1c0,0,0,0.1-0.1,0.1L18.5,22.2C18.6,22.3,18.6,22.3,18.5,22.2
			L18.5,22.2C18.5,22.3,18.5,22.2,18.5,22.2z"/>
		<path class="st1" d="M19.4,22.2C19.4,22.2,19.4,22.3,19.4,22.2c-0.1,0.1-0.2,0-0.2,0v-0.8c0,0,0,0,0,0c0,0,0,0,0-0.1
			c0,0,0.1,0,0.1,0l0.4,0.6v-0.6c0,0,0-0.1,0.1-0.1c0,0,0.1,0,0.1,0.1v0.8c0,0,0,0.1-0.1,0.1c0,0,0,0-0.1,0c0,0,0,0,0,0l-0.4-0.6
			V22.2z"/>
		<path class="st1" d="M20.9,21.4h-0.2v0.7c0,0,0,0.1-0.1,0.1c0,0-0.1,0-0.1-0.1v-0.7h-0.2c0,0-0.1,0-0.1-0.1c0,0,0-0.1,0.1-0.1h0.6
			C20.9,21.3,21,21.3,20.9,21.4C21,21.4,20.9,21.4,20.9,21.4z"/>
		<path class="st1" d="M21.2,21.4C21.2,21.3,21.2,21.3,21.2,21.4c0.1-0.1,0.2,0,0.2,0v0.8c0,0,0,0.1-0.1,0.1c0,0-0.1,0-0.1-0.1V21.4
			z"/>
		<path class="st1" d="M21.5,21.8c0-0.3,0.2-0.5,0.5-0.5c0.1,0,0.2,0,0.3,0.1c0,0,0,0.1,0,0.1c0,0-0.1,0-0.1,0
			c-0.1,0-0.1-0.1-0.2-0.1c-0.1,0-0.2,0-0.2,0.1c-0.1,0.1-0.1,0.1-0.1,0.2c0,0.1,0,0.2,0.1,0.2c0.1,0.1,0.2,0.1,0.2,0.1
			c0.1,0,0.2,0,0.2-0.1c0,0,0.1,0,0.1,0c0,0,0,0.1,0,0.1c-0.1,0.1-0.2,0.1-0.3,0.1C21.7,22.3,21.5,22,21.5,21.8z"/>
		<path class="st1" d="M22.6,21.4C22.6,21.3,22.6,21.3,22.6,21.4c0.1-0.1,0.2,0,0.2,0v0.8c0,0,0,0.1-0.1,0.1c0,0-0.1,0-0.1-0.1V21.4
			z"/>
		<path class="st1" d="M23.7,21.4c0.1,0.1,0.1,0.2,0.1,0.3c0,0.1-0.1,0.3-0.1,0.3c-0.1,0.1-0.2,0.1-0.3,0.1c-0.1,0-0.3-0.1-0.3-0.1
			c-0.1-0.1-0.1-0.2-0.1-0.3c0-0.1,0.1-0.3,0.1-0.3c0.1-0.1,0.2-0.1,0.3-0.1C23.5,21.3,23.7,21.3,23.7,21.4z M23.7,21.8
			c0-0.1,0-0.2-0.1-0.2c-0.1-0.1-0.1-0.1-0.2-0.1c-0.1,0-0.2,0-0.2,0.1c-0.1,0.1-0.1,0.1-0.1,0.2c0,0.1,0,0.2,0.1,0.2
			c0.1,0.1,0.1,0.1,0.2,0.1c0.1,0,0.2,0,0.2-0.1C23.7,21.9,23.7,21.9,23.7,21.8z"/>
		<path class="st1" d="M24.1,22c0,0,0.1,0,0.1,0c0.1,0,0.2,0.1,0.3,0.1c0.1,0,0.1,0,0.2-0.1c0,0,0.1-0.1,0.1-0.1c0,0,0,0,0,0
			c0,0,0,0,0,0c0,0-0.1,0-0.2-0.1h0c-0.1,0-0.1,0-0.2-0.1c-0.1,0-0.1-0.1-0.1-0.1c0,0,0-0.1,0-0.1c0-0.1,0-0.2,0.1-0.2
			c0.1,0,0.1-0.1,0.2-0.1c0.1,0,0.2,0.1,0.3,0.1c0,0,0,0.1,0,0.1c0,0-0.1,0-0.1,0c-0.1,0-0.1-0.1-0.2-0.1c-0.1,0-0.1,0-0.2,0
			c0,0-0.1,0.1-0.1,0.1c0,0,0,0,0,0c0,0,0,0,0,0c0,0,0.1,0,0.2,0.1h0c0.1,0,0.1,0,0.2,0.1c0.1,0,0.1,0.1,0.1,0.1c0,0,0,0.1,0,0.1
			c0,0.1,0,0.2-0.1,0.2c-0.1,0-0.2,0.1-0.3,0.1c-0.1,0-0.3-0.1-0.4-0.1C24.1,22.1,24.1,22.1,24.1,22z"/>
	</g>
	<g>
		<path class="st1" d="M13.8,15.3c-0.7-0.8-1.1-1.8-1.2-2.8c-0.3,1.3-1.4,2.2-2.8,2.2H9.4v0H9H7.5l-0.1,0H6.9H6.8
			c-0.7,0-1.3,0.6-1.3,1.3c0,0.7,0.5,1.2,1.1,1.2c0,0,0,0,0,0h0.2c0,0,0,0,0,0h0.1h1.3l0,0H9l0,0h0.8C11.4,17.2,12.8,16.5,13.8,15.3
			L13.8,15.3z"/>
		<path class="st1" d="M9.8,6.3H9H8.2l0,0H6.9H6.8c0,0,0,0,0,0H6.6c0,0,0,0,0,0C6,6.4,5.6,6.9,5.6,7.6c0,0.7,0.5,1.3,1.3,1.3h0.1
			h0.5l0.1,0H9c0,0,0,0,0,0h0.4v0h0.3c1.4,0,2.5,0.9,2.8,2.2c0.1-1.1,0.6-2,1.3-2.8l0,0C12.9,7,11.4,6.3,9.8,6.3z"/>
	</g>
	<path class="st0" d="M13.9,15.1c0.8-0.9,1.2-2.1,1.2-3.3c0-1.2-0.4-2.4-1.2-3.3c-0.7,0.9-1.1,1.9-1.2,3c0,0.2,0,0.4,0,0.7
		C12.8,13.2,13.2,14.2,13.9,15.1z"/>
	<g>
		<path class="st1" d="M24.2,7.1c-0.2-0.4-0.6-0.7-1.1-0.7c-0.5,0-0.9,0.3-1.1,0.7l-0.6,1.6h1.7c0,0,0,0,0.1,0l0,0l1.6,0L24.2,7.1z"
			/>
		<path class="st1" d="M19.9,14.9H19l-0.3,0.8c-0.2,0.6,0.1,1.3,0.7,1.5l0,0c0.1,0,0.3,0.1,0.4,0.1c0.5,0,0.9-0.3,1.1-0.7l0-0.1
			c0-0.1,0-0.2,0-0.3C21,15.4,20.5,14.9,19.9,14.9z"/>
		<g>
			<path class="st1" d="M26.3,6.3L26.3,6.3h-0.2h-0.1h-0.1h-0.1h-0.1h-0.2h-0.4h-0.1h-0.1h-0.1h-0.1h-0.1h-0.1h-0.2
				c0.2,0.2,0.5,0.4,0.6,0.7L25,8.7l0.2,0l0,0l0.1,0l0,0l0.1,0l0,0l0.1,0v0l0.1,0l0,0l0.1,0v0l0.1,0v0l0.3,0c0.7,0,1.2-0.5,1.2-1.2
				C27.5,6.8,26.9,6.3,26.3,6.3z"/>
			<path class="st1" d="M21.9,6.3l-0.1,0h-3.7C16.5,6.3,15,7,14,8.2l0,0c0.8,1,1.3,2.3,1.3,3.6c0,1.3-0.5,2.6-1.3,3.6l0,0
				c1,1.1,2.5,1.9,4.1,1.9l1,0c-0.5-0.3-0.8-1-0.6-1.7l0.3-0.7h-0.7c-1.2,0-2.3-0.7-2.8-1.8l-0.1-0.2h1.7c0.7,0,1.2-0.5,1.2-1.2
				c0-0.7-0.5-1.2-1.2-1.2h-1.7l0.1-0.2c0.5-1.1,1.6-1.8,2.8-1.8h3L21.8,7c0.1-0.3,0.3-0.5,0.6-0.7H21.9z"/>
		</g>
	</g>
	<g class="st2">
		<path class="st1" d="M8.1,14.5V9H6.8C6.4,9,6,8.9,5.8,8.6V15c0.3-0.3,0.6-0.5,1-0.5H8.1z"/>
		<polygon class="st1" points="5.6,7.6 5.6,7.6 5.6,7.6 		"/>
		<polygon class="st1" points="5.6,16 5.6,16 5.6,16 		"/>
	</g>
	<path class="st1" d="M3.7,6.3C3,6.3,2.5,6.8,2.5,7.5v1.3v6V16c0,0.7,0.5,1.2,1.2,1.2c0.7,0,1.2-0.5,1.2-1.2v-1.3v-6V7.5
		C4.9,6.8,4.3,6.3,3.7,6.3z"/>
	<path class="st3" d="M19.6,16c0,0.1,0.1,0.2,0.2,0.2s0.2-0.1,0.2-0.2c0-0.1-0.1-0.2-0.2-0.2S19.6,15.9,19.6,16z"/>
	<path class="st3" d="M22.8,7.5c0,0.1,0.1,0.2,0.2,0.2c0.1,0,0.2-0.1,0.2-0.2c0-0.1-0.1-0.2-0.2-0.2C22.9,7.3,22.8,7.4,22.8,7.5z"/>
	<path class="st3" d="M3.5,7.5c0,0.1,0.1,0.2,0.2,0.2s0.2-0.1,0.2-0.2c0-0.1-0.1-0.2-0.2-0.2S3.5,7.4,3.5,7.5z"/>
	<path class="st3" d="M3.5,16c0,0.1,0.1,0.2,0.2,0.2s0.2-0.1,0.2-0.2c0-0.1-0.1-0.2-0.2-0.2S3.5,15.9,3.5,16z"/>
	<path class="st3" d="M6.5,16c0,0.1,0.1,0.2,0.2,0.2c0.1,0,0.2-0.1,0.2-0.2c0-0.1-0.1-0.2-0.2-0.2C6.6,15.8,6.5,15.9,6.5,16z"/>
	<path class="st3" d="M6.6,7.5c0,0.1,0.1,0.2,0.2,0.2c0.1,0,0.2-0.1,0.2-0.2c0-0.1-0.1-0.2-0.2-0.2C6.7,7.3,6.6,7.4,6.6,7.5z"/>
	<path class="st1" d="M27.4,18.5h-2.8h-2.3H7.7H5.4H2.6c-1.4,0-2.6,1.2-2.6,2.6c0,1.4,1.2,2.6,2.6,2.6h2.8h2.3h14.7h2.3h2.8
		c1.4,0,2.6-1.2,2.6-2.6C30,19.6,28.8,18.5,27.4,18.5z M27.3,23h-2.8H7.7v0H5.5H2.7c-1.1,0-2-0.9-2-2s0.9-2,2-2h2.8h16.8v0h2.3h2.8
		c1.1,0,2,0.9,2,2S28.4,23,27.3,23z"/>
	<path class="st0" d="M28.9,21.2L28.9,21.2c-0.1,0-0.2-0.1-0.2-0.1c0,0,0-0.1,0-0.1l0.1,0c0,0,0.1,0,0.1-0.1c0,0,0,0,0-0.1
		c0,0-0.1-0.1-0.1-0.1l0,0c-0.1,0-0.1,0-0.2-0.1c0-0.1,0-0.2,0.1-0.2l0,0c0,0,0.1-0.1,0.1-0.1c0,0,0,0,0-0.1c0,0-0.1-0.1-0.1,0l0,0
		c-0.1,0-0.1,0-0.2,0c-0.1-0.1,0-0.2,0-0.2l0,0c0,0,0.1-0.1,0-0.1c0,0,0,0,0-0.1c0,0-0.1,0-0.1,0l0,0c0,0.1-0.1,0.1-0.2,0
		c-0.1,0-0.1-0.1,0-0.2l0,0c0,0,0-0.1,0-0.1c0,0,0,0-0.1,0c0,0-0.1,0-0.1,0l0,0c0,0.1-0.1,0.1-0.1,0.1c-0.1,0-0.1-0.1-0.1-0.2l0,0
		c0,0,0-0.1,0-0.1c0,0,0,0-0.1,0c0,0-0.1,0-0.1,0.1l0,0c0,0.1-0.1,0.1-0.1,0.1c-0.1,0-0.1-0.1-0.1-0.1l0,0c0,0,0-0.1-0.1-0.1
		c0,0,0,0-0.1,0c0,0-0.1,0-0.1,0.1l0,0c0,0.1,0,0.1-0.1,0.1c-0.1,0-0.2,0-0.2-0.1l0,0c0,0-0.1-0.1-0.1-0.1c0,0,0,0-0.1,0
		c0,0-0.1,0.1,0,0.1l0,0c0,0.1,0,0.1-0.1,0.2c0,0-0.1,0-0.1,0l0-0.1c0,0-0.1-0.1-0.1,0c0,0,0,0-0.1,0c0,0,0,0.1,0,0.1l0,0
		c0,0.1,0,0.1,0,0.2c-0.1,0-0.1,0-0.2,0l0,0c0,0-0.1,0-0.1,0c0,0,0,0,0,0c0,0,0,0,0,0.1c0,0,0,0.1,0,0.1l0,0c0.1,0,0.1,0.1,0,0.2
		c0,0.1-0.1,0.1-0.2,0.1l0,0c0,0-0.1,0-0.1,0c0,0,0,0,0,0.1c0,0,0,0.1,0,0.1l0,0c0.1,0,0.1,0.1,0.1,0.1c0,0.1-0.1,0.1-0.2,0.1l0,0
		c0,0-0.1,0-0.1,0.1c0,0,0,0,0,0.1c0,0,0,0.1,0.1,0.1l0,0c0.1,0,0.1,0.1,0.1,0.1c0,0,0,0.1,0,0.1l-0.1,0c0,0-0.1,0-0.1,0.1
		c0,0,0,0,0,0.1c0,0,0.1,0.1,0.1,0.1l0,0c0.1,0,0.1,0,0.2,0.1c0,0.1,0,0.1-0.1,0.2l0,0c0,0-0.1,0.1-0.1,0.1c0,0,0,0,0,0.1
		c0,0,0.1,0.1,0.1,0l0,0c0.1,0,0.1,0,0.2,0v0c0,0.1,0,0.1,0,0.2l0,0c0,0-0.1,0.1,0,0.1c0,0,0,0,0,0.1c0,0,0.1,0,0.1,0l0,0
		c0-0.1,0.1-0.1,0.2,0c0.1,0,0.1,0.1,0,0.2l0,0c0,0,0,0.1,0,0.1c0,0,0,0,0.1,0c0,0,0.1,0,0.1,0l0,0c0-0.1,0.1-0.1,0.1-0.1
		c0.1,0,0.1,0.1,0.1,0.2l0,0c0,0,0,0.1,0,0.1c0,0,0,0,0.1,0c0,0,0.1,0,0.1-0.1l0,0c0-0.1,0.1-0.1,0.1-0.1l0,0c0.1,0,0.1,0.1,0.1,0.1
		l0,0c0,0,0,0.1,0.1,0.1c0,0,0,0,0.1,0c0,0,0.1,0,0.1-0.1l0,0c0-0.1,0-0.1,0.1-0.1c0.1,0,0.1,0,0.1,0.1l0,0c0,0,0.1,0.1,0.1,0.1
		c0,0,0,0,0.1,0c0,0,0.1-0.1,0-0.1l0,0c0-0.1,0-0.1,0.1-0.2c0.1,0,0.1,0,0.2,0.1l0,0c0,0,0.1,0.1,0.1,0c0,0,0,0,0.1,0
		c0,0,0-0.1,0-0.1l0,0c0-0.1,0-0.1,0-0.2c0.1,0,0.1,0,0.2,0l0,0c0,0,0.1,0,0.1,0c0,0,0,0,0,0c0,0,0,0,0-0.1c0,0,0-0.1,0-0.1l0,0
		c-0.1,0-0.1-0.1,0-0.2c0-0.1,0.1-0.1,0.2,0l0,0c0,0,0.1,0,0.1,0c0,0,0,0,0-0.1c0,0,0-0.1,0-0.1l0,0c-0.1,0-0.1-0.1-0.1-0.2
		c0-0.1,0.1-0.1,0.2-0.1l0,0c0,0,0.1,0,0.1-0.1C29,21.4,29,21.4,28.9,21.2C29,21.3,28.9,21.2,28.9,21.2z M27.2,21.6l-0.5-0.5
		l0.5-0.5l0.5,0.5L27.2,21.6z"/>
	<path class="st0" d="M4.6,21.2L4.6,21.2c-0.1,0-0.2-0.1-0.2-0.1c0,0,0-0.1,0-0.1l0.1,0c0,0,0.1,0,0.1-0.1c0,0,0,0,0-0.1
		c0,0-0.1-0.1-0.1-0.1l0,0c-0.1,0-0.1,0-0.2-0.1c0-0.1,0-0.2,0.1-0.2l0,0c0,0,0.1-0.1,0.1-0.1c0,0,0,0,0-0.1c0,0-0.1-0.1-0.1,0l0,0
		c-0.1,0-0.1,0-0.2,0c-0.1-0.1,0-0.2,0-0.2l0,0c0,0,0.1-0.1,0-0.1c0,0,0,0,0-0.1c0,0-0.1,0-0.1,0l0,0C4,20,4,20,3.9,19.9
		c-0.1,0-0.1-0.1,0-0.2l0,0c0,0,0-0.1,0-0.1c0,0,0,0-0.1,0c0,0-0.1,0-0.1,0l0,0c0,0.1-0.1,0.1-0.1,0.1c-0.1,0-0.1-0.1-0.1-0.2l0,0
		c0,0,0-0.1,0-0.1c0,0,0,0-0.1,0c0,0-0.1,0-0.1,0.1l0,0c0,0.1-0.1,0.1-0.1,0.1c-0.1,0-0.1-0.1-0.1-0.1l0,0c0,0,0-0.1-0.1-0.1
		c0,0,0,0-0.1,0c0,0-0.1,0-0.1,0.1l0,0c0,0.1,0,0.1-0.1,0.1c-0.1,0-0.2,0-0.2-0.1l0,0c0,0-0.1-0.1-0.1-0.1c0,0,0,0-0.1,0
		c0,0-0.1,0.1,0,0.1l0,0c0,0.1,0,0.1-0.1,0.2c0,0-0.1,0-0.1,0l0-0.1c0,0-0.1-0.1-0.1,0c0,0,0,0-0.1,0c0,0,0,0.1,0,0.1l0,0
		c0,0.1,0,0.1,0,0.2c-0.1,0-0.1,0-0.2,0l0,0c0,0-0.1,0-0.1,0c0,0,0,0,0,0c0,0,0,0,0,0.1c0,0,0,0.1,0,0.1l0,0c0.1,0,0.1,0.1,0,0.2
		c0,0.1-0.1,0.1-0.2,0.1l0,0c0,0-0.1,0-0.1,0c0,0,0,0,0,0.1c0,0,0,0.1,0,0.1l0,0c0.1,0,0.1,0.1,0.1,0.1c0,0.1-0.1,0.1-0.2,0.1l0,0
		c0,0-0.1,0-0.1,0.1c0,0,0,0,0,0.1c0,0,0,0.1,0.1,0.1l0,0c0.1,0,0.1,0.1,0.1,0.1c0,0,0,0.1,0,0.1l-0.1,0c0,0-0.1,0-0.1,0.1
		c0,0,0,0,0,0.1c0,0,0.1,0.1,0.1,0.1l0,0c0.1,0,0.1,0,0.2,0.1c0,0.1,0,0.1-0.1,0.2l0,0c0,0-0.1,0.1-0.1,0.1c0,0,0,0,0,0.1
		c0,0,0.1,0.1,0.1,0l0,0c0.1,0,0.1,0,0.2,0c0,0.1,0,0.1,0,0.2l0,0c0,0-0.1,0.1,0,0.1c0,0,0,0,0,0.1c0,0,0.1,0,0.1,0l0,0
		c0-0.1,0.1-0.1,0.2,0c0.1,0,0.1,0.1,0,0.2l0,0c0,0,0,0.1,0,0.1c0,0,0,0,0.1,0c0,0,0.1,0,0.1,0l0,0c0-0.1,0.1-0.1,0.1-0.1
		c0.1,0,0.1,0.1,0.1,0.2l0,0c0,0,0,0.1,0,0.1c0,0,0,0,0.1,0c0,0,0.1,0,0.1-0.1l0,0c0-0.1,0.1-0.1,0.1-0.1c0.1,0,0.1,0.1,0.1,0.1l0,0
		c0,0,0,0.1,0.1,0.1c0,0,0,0,0.1,0c0,0,0.1,0,0.1-0.1l0,0c0-0.1,0-0.1,0.1-0.1c0.1,0,0.1,0,0.1,0.1l0,0c0,0,0.1,0.1,0.1,0.1
		c0,0,0,0,0.1,0c0,0,0.1-0.1,0-0.1l0,0c0-0.1,0-0.1,0.1-0.2h0c0.1,0,0.1,0,0.2,0.1l0,0c0,0,0.1,0.1,0.1,0c0,0,0,0,0.1,0
		c0,0,0-0.1,0-0.1l0,0c0-0.1,0-0.1,0-0.2c0.1,0,0.1,0,0.2,0l0,0c0,0,0.1,0,0.1,0c0,0,0,0,0,0c0,0,0,0,0-0.1c0,0,0-0.1,0-0.1l0,0
		c-0.1,0-0.1-0.1,0-0.2c0-0.1,0.1-0.1,0.2,0l0,0c0,0,0.1,0,0.1,0c0,0,0,0,0-0.1c0,0,0-0.1,0-0.1l0,0c-0.1,0-0.1-0.1-0.1-0.2
		c0-0.1,0.1-0.1,0.2-0.1l0,0c0,0,0.1,0,0.1-0.1C4.7,21.3,4.7,21.3,4.6,21.2C4.7,21.2,4.6,21.2,4.6,21.2z M2.9,21.6l-0.5-0.5l0.5-0.5
		l0.5,0.5L2.9,21.6z"/>
	<circle class="st3" cx="13.8" cy="11.8" r="0.2"/>
</g>
</svg>
