<svg xmlns="http://www.w3.org/2000/svg" viewBox="0 0 30 30"><defs><style>.cls-1{fill:none;}.cls-2{fill:#3174b9;}.cls-2,.cls-3{fill-rule:evenodd;}.cls-3{fill:#ca3132;}</style></defs><title>Recurso 1</title><g id="Capa_2" data-name="Capa 2"><g id="Capa_1-2" data-name="Capa 1"><path class="cls-1" d="M0,0H30V30H0Z"/><path class="cls-2" d="M11,23.24s-1.15.67.82.9a17,17,0,0,0,6.2-.26,10.86,10.86,0,0,0,1.6.8C13.82,27.19,6.4,24.54,11,23.24ZM10.3,20S9,20.91,11,21.12a24.39,24.39,0,0,0,8-.39,3.54,3.54,0,0,0,1.23.75C13.13,23.52,5.22,21.64,10.3,20Z"/><path class="cls-3" d="M16.35,14.39a2.2,2.2,0,0,1-.23,3.09l-.14.1s3.66-1.88,2-4.26S15.18,10,21.72,6.19C21.72,6.19,11.46,8.74,16.35,14.39Z"/><path class="cls-2" d="M24.12,25.67s.84.71-.93,1.25c-3.39,1-14.12,1.33-17.09,0C5,26.46,7,25.82,7.7,25.67a4,4,0,0,1,1-.11c-1.2-.83-7.69,1.6-3.31,2.37,12,1.93,21.82-.88,18.72-2.29ZM11.57,16.56s-5.45,1.3-1.92,1.78a43.4,43.4,0,0,0,7.21,0c2.25-.2,4.51-.61,4.51-.61a11.08,11.08,0,0,0-1.36.73c-5.55,1.46-16.23.79-13.16-.7a10.31,10.31,0,0,1,4.72-1.12ZM21.4,22c5.63-2.93,3-5.74,1.21-5.36-.22,0-.44.11-.65.18a1.05,1.05,0,0,1,.49-.37c3.58-1.26,6.4,3.73-1.16,5.69A.76.76,0,0,0,21.4,22Z"/><path class="cls-3" d="M18,.05S21.08,3.25,15,8c-4.87,3.85-1.1,6,0,8.55-2.84-2.57-4.92-4.79-3.53-6.92C13.53,6.51,19.22,5,18,0Z"/><path class="cls-2" d="M12.13,29.91c5.4.34,13.7-.19,13.89-2.75,0,0-.39,1-4.46,1.73a44.76,44.76,0,0,1-13.67.22S8.61,29.72,12.13,29.91Z"/></g></g></svg>