<svg xmlns="http://www.w3.org/2000/svg" viewBox="0 0 30 30"><defs><style>.cls-1{fill:#f7df1e;}</style></defs><title>Recurso 1</title><g id="Capa_2" data-name="Capa 2"><g id="Capa_1-2" data-name="Capa 1"><path class="cls-1" d="M0,0H30V30H0Z"/><path d="M7.89,25.07l2.29-1.39c.45.79.85,1.45,1.82,1.45s1.51-.36,1.51-1.77V13.77h2.82V23.4c0,2.92-1.72,4.25-4.21,4.25a4.37,4.37,0,0,1-4.23-2.58m10-.3,2.29-1.33a3.07,3.07,0,0,0,2.78,1.71c1.17,0,1.91-.58,1.91-1.39,0-1-.76-1.31-2.05-1.87l-.7-.3c-2-.87-3.39-2-3.39-4.25,0-2.12,1.61-3.73,4.13-3.73a4.18,4.18,0,0,1,4,2.26l-2.2,1.41a1.91,1.91,0,0,0-1.81-1.21,1.23,1.23,0,0,0-1.35,1.21c0,.84.53,1.19,1.73,1.71l.71.3c2.39,1,3.74,2.08,3.74,4.43,0,2.54-2,3.93-4.67,3.93a5.4,5.4,0,0,1-5.13-2.88"/></g></g></svg>