<?xml version="1.0" encoding="utf-8"?>
<!-- Generator: Adobe Illustrator 24.0.1, SVG Export Plug-In . SVG Version: 6.00 Build 0)  -->
<svg version="1.1" id="Capa_1" xmlns="http://www.w3.org/2000/svg" xmlns:xlink="http://www.w3.org/1999/xlink" x="0px" y="0px"
	 viewBox="0 0 30 30" style="enable-background:new 0 0 30 30;" xml:space="preserve">
<style type="text/css">
	.st0{fill:#292B2C;}
</style>
<title>Recurso 5</title>
<g id="Capa_2_1_">
	<g id="Capa_1-2">
		<path class="st0" d="M15,0C6.7,0,0,6.7,0,15s6.7,15,15,15s15-6.7,15-15S23.3,0,15,0z M11,22.3H7.7V11.6H11V22.3z M9.3,10.3
			c-1.1,0-2-0.8-2.1-1.9c0-1.1,0.8-2,1.9-2.1c1.1,0,2,0.8,2.1,1.9c0,0,0,0,0,0.1C11.3,9.3,10.4,10.2,9.3,10.3L9.3,10.3z M23.3,22.3
			h-3.3v-5.6c0-1.5-0.6-2.4-1.8-2.4s-2,0.9-2,2.4v5.6h-3.2V11.6h3.2V13c0.7-1.1,1.9-1.8,3.2-1.8c2.3,0,3.9,1.4,3.9,4.2V22.3
			L23.3,22.3z"/>
	</g>
</g>
</svg>
