<svg xmlns="http://www.w3.org/2000/svg" viewBox="0 0 30 30"><defs><style>.cls-1{fill:#fff;}.cls-2{fill:#00406e;}</style></defs><title>Recurso 2</title><g id="Capa_2" data-name="Capa 2"><g id="Capa_1-2" data-name="Capa 1"><circle class="cls-1" cx="15" cy="15" r="15"/><path class="cls-2" d="M21.26,26.58a.53.53,0,0,1-.61,0,.5.5,0,0,1-.24-.5.63.63,0,0,1,.37-.45,12.11,12.11,0,0,0,1.55-1A12,12,0,0,0,27,16.88c.06-.38.09-.76.14-1.13a.53.53,0,0,1,1.05,0,12.82,12.82,0,0,1-1.29,5,13.08,13.08,0,0,1-5.61,5.88m-1.41-4.65a.51.51,0,0,1,.11-.78,8.33,8.33,0,0,0,1.92-2.26,10.48,10.48,0,0,0,.51-1.07.5.5,0,0,1,.5-.32.52.52,0,0,1,.46.3.56.56,0,0,1,.07.23c0,.07,0,.16-.07.24A9.07,9.07,0,0,1,20.64,22a.53.53,0,0,1-.79,0m-.67,5.23a.52.52,0,0,1-.39.45,14.21,14.21,0,0,1-2.74.5l-1,.06A13.34,13.34,0,0,1,6.34,24.9.54.54,0,1,1,7,24.1a12.13,12.13,0,0,0,11.32,2.53.64.64,0,0,1,.63.05.48.48,0,0,1,.2.48m-.72-3.91a8.43,8.43,0,0,1-1.64.51,8.91,8.91,0,0,1-7.29-1.69.59.59,0,0,1-.29-.48.51.51,0,0,1,.29-.47.5.5,0,0,1,.57.06,8.68,8.68,0,0,0,1.62,1,7.87,7.87,0,0,0,6.08.2l.29-.1a.54.54,0,0,1,.69.29.53.53,0,0,1-.32.69M5.21,23.06a.43.43,0,0,1-.29.15A.7.7,0,0,1,5,22.85c.2-.4.41-.8.6-1.2s.06-.36-.24-.35H5.27c-.1,0-.2,0-.22-.12s.09-.13.17-.15a9.56,9.56,0,0,1,1-.28c.08,0,.16,0,.21-.11a19.79,19.79,0,0,1,2.68-3.43c.9-1,1.82-1.93,2.8-2.83a3.1,3.1,0,0,0,.66-1.07.58.58,0,0,0-.09-.49c-.1-.18-.21-.36-.31-.55-.18-.35-.05-.57.35-.53s.79.09,1.18.14l1.61.23a.58.58,0,0,0,.26,0,17.22,17.22,0,0,1,4.13-1.18,14.7,14.7,0,0,1,5.29,0,5.1,5.1,0,0,1,1.46.57l.27.18c.48.36.49.61,0,.92-.92.55-1.88,1-2.84,1.51a1.71,1.71,0,0,0-.86.8,4.22,4.22,0,0,1-2.26,1.91s-.11.07-.15,0,0-.12,0-.17.23-.37.33-.56.16-.27,0-.39a.41.41,0,0,0-.45,0c-1.08.47-2.19.88-3.29,1.31a36.66,36.66,0,0,1-4.24,1.35,12.21,12.21,0,0,0-3.12,1.36,10.14,10.14,0,0,1-2.42,1.26,1.54,1.54,0,0,0-1,.78,5.28,5.28,0,0,1-1.3,1.37m1.91-7.65a.54.54,0,0,1-.51.58.57.57,0,0,1-.55-.56,9,9,0,0,1,4.14-8,.54.54,0,0,1,.8.11.53.53,0,0,1-.22.78A7.86,7.86,0,0,0,7.12,15v.46M3.67,10.73a2,2,0,0,1-.15.37.52.52,0,0,1-.6.26.56.56,0,0,1-.38-.56,4.42,4.42,0,0,1,.35-1,13.21,13.21,0,0,1,9.19-7.71.55.55,0,0,1,.71.39.53.53,0,0,1-.46.64A12.19,12.19,0,0,0,8.5,4.78a12,12,0,0,0-4.83,6m0,9.91a.52.52,0,0,1-.69-.3c-.12-.26-.23-.54-.33-.82A13.1,13.1,0,0,1,2,13a.53.53,0,0,1,.55-.48.55.55,0,0,1,.49.61,13.1,13.1,0,0,0-.12,2.19,12,12,0,0,0,.93,4.3c0,.09.08.19.11.28a.53.53,0,0,1-.28.7m12-14.57a9,9,0,0,1,5.84,2.71.53.53,0,0,1,.21.44.52.52,0,0,1-.31.48.53.53,0,0,1-.61-.12,7.93,7.93,0,0,0-7.61-2.24.65.65,0,0,1-.51,0,.48.48,0,0,1-.28-.52.54.54,0,0,1,.46-.48,9.15,9.15,0,0,1,2.81-.25M14.53,2.24a.52.52,0,0,1,.47-.4c.15,0,.3,0,.46,0A13.17,13.17,0,0,1,26.23,8a.53.53,0,1,1-.88.59,13.51,13.51,0,0,0-1.67-2.1,12,12,0,0,0-6-3.32,11.81,11.81,0,0,0-2.58-.3.76.76,0,0,1-.39-.1.49.49,0,0,1-.22-.57M15,0A15,15,0,1,0,30,15,15,15,0,0,0,15,0"/></g></g></svg>