<svg xmlns="http://www.w3.org/2000/svg" xmlns:xlink="http://www.w3.org/1999/xlink" viewBox="0 0 30 30"><defs><style>.cls-1{fill:none;}.cls-2{clip-path:url(#clip-path);}.cls-3{fill:#c73b33;}</style><clipPath id="clip-path"><rect class="cls-1" y="11.33" width="30" height="7.34"/></clipPath></defs><title>Recurso 10</title><g id="Capa_2" data-name="Capa 2"><g id="Capa_1-2" data-name="Capa 1"><rect class="cls-1" width="30" height="30"/><g class="cls-2"><path class="cls-3" d="M5.24,13.21a2.46,2.46,0,0,0-1.42.6l-.1-.06A2.27,2.27,0,0,0,0,14.81l0,0v3.61H2c0-.16,0-.27,0-.38V15.62c0-.26.11-.43.38-.43s.36.17.39.4v2.49c0,.11,0,.22,0,.34h2V18c0-.79,0-1.58,0-2.36,0-.33.14-.5.39-.5s.38.17.38.5v2.4c0,.11,0,.22,0,.34h2V15.29a2.08,2.08,0,0,0-2.34-2.08"/><path class="cls-3" d="M22.91,13.48a2.9,2.9,0,0,0-1.86-.13,2,2,0,0,0-1.65,1.89c0,1,0,2.09,0,3.14,0,0,0,0,0,.05h2v-.37c0-.81,0-1.62,0-2.43,0-.36.31-.59.56-.38a.64.64,0,0,1,.19.45c0,.79,0,1.58,0,2.37,0,.12,0,.24,0,.35h2c0-1.07,0-2.12,0-3.17a1.86,1.86,0,0,0-1.24-1.77"/></g><rect class="cls-3" x="10.86" y="11.33" width="1.94" height="7.09"/><g class="cls-2"><path class="cls-3" d="M10,13.34H8.45c-.17,0-.24.06-.24.24v4.63c0,.16,0,.24.23.24h1.73a.63.63,0,0,0,0-.14c0-1.58,0-3.15,0-4.73,0-.18-.08-.23-.25-.23"/><path class="cls-3" d="M16.08,16.72A.77.77,0,0,1,15.3,16a.77.77,0,0,1,1.53,0,.78.78,0,0,1-.75.79m1.17-3.22a2.56,2.56,0,0,0-2.86.3,2.7,2.7,0,0,0,2.09,4.81,8.82,8.82,0,0,1,1.84-.17h.47c0-.85,0-1.66,0-2.47a2.6,2.6,0,0,0-1.54-2.47"/><path class="cls-3" d="M27.33,16.6a.69.69,0,0,1-.67-.68.68.68,0,0,1,1.35,0,.69.69,0,0,1-.68.66m0-3.31A2.65,2.65,0,1,0,30,15.93a2.64,2.64,0,0,0-2.67-2.64"/></g></g></g></svg>