<svg xmlns="http://www.w3.org/2000/svg" viewBox="0 0 30 29.45"><defs><style>.cls-1{fill:#00546b;}</style></defs><title>Recurso 1</title><g id="Capa_2" data-name="Capa 2"><g id="Capa_1-2" data-name="Capa 1"><path class="cls-1" d="M27.63,22.78a9.48,9.48,0,0,0-4,.57c-.3.12-.79.12-.83.51.16.16.18.43.32.65a4.93,4.93,0,0,0,1.07,1.25c.42.32.85.65,1.3.93.8.49,1.7.78,2.47,1.27.45.28.9.65,1.35,1,.22.16.36.43.65.53v-.06c-.14-.19-.18-.45-.33-.66l-.61-.59a9.63,9.63,0,0,0-2.12-2.06c-.65-.45-2.08-1.06-2.35-1.81l0,0A9.63,9.63,0,0,0,26,23.9c.69-.18,1.33-.14,2-.33.33-.08.65-.18,1-.28V23.1c-.37-.36-.63-.85-1-1.2a26.09,26.09,0,0,0-3.37-2.51c-.63-.41-1.45-.67-2.12-1-.24-.12-.65-.18-.79-.39a7.87,7.87,0,0,1-.84-1.57c-.59-1.12-1.16-2.37-1.67-3.55a22.33,22.33,0,0,0-1.05-2.33A20.59,20.59,0,0,0,10.23,2.9a9.63,9.63,0,0,0-2.61-.83L6.09,2a8.63,8.63,0,0,1-.94-.72C4,.54,1-1.06.13,1.05c-.55,1.32.81,2.63,1.28,3.3a9.17,9.17,0,0,1,1,1.53c.15.35.19.72.33,1.08A25.06,25.06,0,0,0,3.84,9.7,9.36,9.36,0,0,0,4.6,11c.16.23.45.33.51.7a5.48,5.48,0,0,0-.47,1.53A9,9,0,0,0,5.23,20c.33.51,1.1,1.63,2.14,1.21s.72-1.53,1-2.55c.06-.25,0-.41.14-.58v.05c.29.57.58,1.12.84,1.69A11.65,11.65,0,0,0,12,22.59c.49.37.88,1,1.49,1.23v-.06h0a1.85,1.85,0,0,0-.47-.41,11.12,11.12,0,0,1-1.06-1.23,25.24,25.24,0,0,1-2.28-3.71c-.33-.63-.62-1.33-.88-2-.12-.24-.12-.61-.33-.73a8.32,8.32,0,0,0-1,1.38,11.72,11.72,0,0,0-.57,3.09c-.08,0,0,0-.08,0-.65-.17-.88-.84-1.12-1.41a8.85,8.85,0,0,1-.19-5.45c.15-.43.76-1.77.51-2.18s-.53-.61-.75-.92A7.66,7.66,0,0,1,4.5,9C4,7.82,3.76,6.56,3.23,5.41a10.27,10.27,0,0,0-1-1.57A9.64,9.64,0,0,1,1.09,2.25C1,2,.84,1.66,1,1.41a.32.32,0,0,1,.28-.26c.27-.23,1,.06,1.29.18a10.92,10.92,0,0,1,2,1,3.54,3.54,0,0,0,1,.7H6c.66.14,1.39,0,2,.22a13.11,13.11,0,0,1,2.94,1.41,18,18,0,0,1,6.37,7c.24.47.35.89.57,1.38.43,1,1,2,1.39,3a13.24,13.24,0,0,0,1.45,2.74c.3.43,1.53.65,2.08.87a13.65,13.65,0,0,1,1.4.58c.7.42,1.39.91,2.05,1.38.32.25,1.34.76,1.4,1.17Z"/><path class="cls-1" d="M6.82,5.05a3.33,3.33,0,0,0-.84.1v0H6A5.8,5.8,0,0,0,6.68,6c.16.33.3.66.47,1l0,0a1.16,1.16,0,0,0,.43-1,2.67,2.67,0,0,1-.25-.43c-.12-.2-.39-.3-.55-.46Z"/></g></g></svg>