<svg xmlns="http://www.w3.org/2000/svg" viewBox="0 0 30 30"><defs><style>.cls-1{fill:#fcc42b;}.cls-2{fill:#d69600;}.cls-3{fill:#fab808;}.cls-4{fill:#fff;}</style></defs><title>Recurso 13</title><g id="Capa_2" data-name="Capa 2"><g id="Capa_1-2" data-name="Capa 1"><polygon class="cls-1" points="7.48 0.6 0.63 7.45 21.92 7.45 28.77 0.6 7.48 0.6"/><polygon class="cls-2" points="22.55 8.12 22.55 29.4 29.4 22.55 29.4 1.26 22.55 8.12"/><rect class="cls-3" x="0.6" y="8.12" width="21.28" height="21.29"/><path class="cls-4" d="M29.4,22.55,22.55,29.4V11.55c1.23-1.29,3.14-2.81,4.14-2.45l.23-.64c-1.35-.48-3.24,1-4.37,2.13V8.12L29.4,1.26ZM.6,29.4V12.88l1.81,5.68h7l1.81-5.68,1.82,5.68h7l1.81-5.68V29.4ZM10.78,12.11,8.93,17.89h-6L1.06,12.11Zm10.64,0-1.84,5.78h-6L11.7,12.11Zm.46-4v3.15l-.15.17H.6V8.12ZM7.48.6H28.77L21.92,7.45H.63ZM29.4,0H7.45A.56.56,0,0,0,7,.18L.17,7A.59.59,0,0,0,0,7.45v22a.6.6,0,0,0,.6.6h22a.56.56,0,0,0,.42-.18L29.82,23a.56.56,0,0,0,.18-.42V.6a.6.6,0,0,0-.6-.6"/><path class="cls-4" d="M19.31,20.94v0c-.14.18-.27.36-.42.53h0s0,0,0,0l-.13.14-.06.07-.11.12-.06.07a1.59,1.59,0,0,1-.13.13.34.34,0,0,1-.06.06c0,.05-.1.11-.16.16l0,0-.19.18,0,0-.18.16,0,0-.18.15,0,0A9.94,9.94,0,0,1,11.81,25H10.67A10,10,0,0,1,5,22.8v0l-.19-.15,0,0-.18-.16,0,0-.2-.18,0,0-.16-.16L4.11,22,4,21.88a.46.46,0,0,1-.07-.07l-.11-.12-.06-.07-.12-.14,0,0h0c-.14-.17-.28-.35-.41-.53l0,0-.5.42h0l.35.42a10.82,10.82,0,0,0,8.08,3.89,10.6,10.6,0,0,0,8.29-3.81l.43-.5h0Z"/><path class="cls-4" d="M5.65,13.15A1.82,1.82,0,1,1,3.83,15a1.81,1.81,0,0,1,1.82-1.82m0,4.31A2.5,2.5,0,1,0,3.16,15a2.5,2.5,0,0,0,2.49,2.49"/><path class="cls-4" d="M16.83,13.15A1.82,1.82,0,1,1,15,15a1.82,1.82,0,0,1,1.82-1.82m0,4.31A2.5,2.5,0,1,0,14.33,15a2.49,2.49,0,0,0,2.5,2.49"/></g></g></svg>