<svg xmlns="http://www.w3.org/2000/svg" viewBox="0 0 30 30.06"><defs><style>.cls-1{fill:#36c5f0;}.cls-1,.cls-2,.cls-3,.cls-4{fill-rule:evenodd;}.cls-2{fill:#2eb67d;}.cls-3{fill:#ecb22e;}.cls-4{fill:#e01e5a;}</style></defs><title>Recurso 1</title><g id="Capa_2" data-name="Capa 2"><g id="Capa_1-2" data-name="Capa 1"><path class="cls-1" d="M11,0a3,3,0,0,0,0,6h3V3a3,3,0,0,0-3-3h0m0,8H3a3,3,0,0,0,0,6h8a3,3,0,0,0,0-6Z"/><path class="cls-2" d="M30,11a3,3,0,1,0-6,0v3h3A3,3,0,0,0,30,11Zm-8,0V3a3,3,0,1,0-6,0v8a3,3,0,1,0,6,0Z"/><path class="cls-3" d="M19,30.06a3,3,0,0,0,0-6H16v3A3,3,0,0,0,19,30.06Zm0-8h8a3,3,0,0,0,0-6H19a3,3,0,0,0,0,6Z"/><path class="cls-4" d="M0,19a3,3,0,0,0,6,0V16H3A3,3,0,0,0,0,19Zm8,0v8a3,3,0,1,0,6,0V19a3,3,0,1,0-6,0H8"/></g></g></svg>