<?xml version="1.0" encoding="utf-8"?>
<!-- Generator: Adobe Illustrator 24.0.1, SVG Export Plug-In . SVG Version: 6.00 Build 0)  -->
<svg version="1.1" id="Capa_1" xmlns="http://www.w3.org/2000/svg" xmlns:xlink="http://www.w3.org/1999/xlink" x="0px" y="0px"
	 viewBox="0 0 30 30" style="enable-background:new 0 0 30 30;" xml:space="preserve">
<style type="text/css">
	.st0{fill:#D98A8F;}
	.st1{fill:#E9B52D;}
</style>
<title>Recurso 14</title>
<g>
	<path class="st0" d="M22.4,15c0-0.5-0.1-0.9-0.3-1.3c0.5-0.8,0.5-1.9,0-2.7c-0.5-0.9-1.4-1.4-2.3-1.4c-0.5-0.8-1.3-1.4-2.3-1.4
		C16.9,7.4,16,6.9,15,6.9s-1.9,0.5-2.4,1.3c-1,0-1.9,0.6-2.3,1.4c-0.2,0-0.4,0-0.7,0.1c-0.7,0.2-1.3,0.7-1.7,1.3
		c-0.5,0.9-0.5,1.9,0,2.7c-0.2,0.4-0.3,0.9-0.3,1.3s0.1,0.9,0.3,1.3c-0.5,0.8-0.5,1.9,0,2.7c0.5,0.9,1.4,1.4,2.3,1.4
		c0.5,0.8,1.3,1.4,2.3,1.4c0.5,0.8,1.4,1.3,2.4,1.3s1.9-0.5,2.4-1.3c1,0,1.9-0.6,2.3-1.4c0.2,0,0.4,0,0.7-0.1
		c0.7-0.2,1.3-0.7,1.7-1.3c0.5-0.9,0.5-1.9,0-2.7C22.3,15.9,22.4,15.5,22.4,15z M22.2,15c0,0.4-0.1,0.8-0.3,1.2
		c-0.2-0.3-0.5-0.6-0.9-0.9c-0.2-0.1-0.4-0.2-0.7-0.3c0.2-0.1,0.5-0.2,0.7-0.3c0.4-0.2,0.7-0.5,0.9-0.9C22.1,14.2,22.2,14.6,22.2,15
		z M19.6,20.3c-0.4,0-0.9-0.1-1.3-0.3c-0.4-0.2-0.7-0.5-0.9-0.8c0.8-0.1,1.7-0.5,2.1-1.2c0.2,0.4,0.3,0.7,0.3,1.2
		C19.9,19.5,19.8,19.9,19.6,20.3z M17.3,21.6c-0.9,0-1.7-0.5-2.1-1.2c0.9,0,1.7-0.5,2.2-1.2c0.2,0.3,0.3,0.7,0.3,1.2
		C17.6,20.8,17.5,21.3,17.3,21.6z M12.4,20.4c0-0.4,0.1-0.8,0.3-1.2c0.5,0.7,1.3,1.2,2.2,1.2c-0.5,0.7-1.2,1.2-2.1,1.2
		C12.5,21.3,12.4,20.8,12.4,20.4z M10.1,19c0-0.4,0.1-0.8,0.3-1.2c0.5,0.7,1.3,1.2,2.1,1.2c-0.2,0.3-0.5,0.6-0.9,0.8
		c-0.4,0.2-0.8,0.3-1.3,0.3C10.2,19.9,10.1,19.5,10.1,19z M10.4,9.7c0.4,0,0.9,0.1,1.3,0.3c0.4,0.2,0.7,0.5,0.9,0.8
		c-0.8,0.1-1.7,0.5-2.1,1.2c-0.2-0.4-0.3-0.7-0.3-1.2C10.1,10.5,10.2,10.1,10.4,9.7z M12.7,8.4c0.9,0,1.7,0.5,2.1,1.2
		c-0.9,0-1.7,0.5-2.2,1.2c-0.2-0.3-0.3-0.7-0.3-1.2C12.4,9.2,12.5,8.7,12.7,8.4z M17.6,9.6c0,0.4-0.1,0.8-0.3,1.2
		c-0.5-0.7-1.3-1.2-2.2-1.2c0.5-0.7,1.2-1.2,2.1-1.2C17.5,8.7,17.6,9.2,17.6,9.6z M19.9,11c0,0.4-0.1,0.8-0.3,1.2
		c-0.5-0.7-1.3-1.2-2.1-1.2c0.2-0.3,0.5-0.6,0.9-0.8c0.4-0.2,0.8-0.3,1.3-0.3C19.8,10.1,19.9,10.5,19.9,11z M17.3,18.8
		c-0.3-0.7-0.4-1.6,0-2.3c0.2,0.3,0.3,0.7,0.3,1.1C17.6,18.1,17.5,18.5,17.3,18.8z M12.4,17.7c0-0.4,0.1-0.8,0.3-1.1
		c0.4,0.7,0.3,1.6,0,2.3C12.5,18.5,12.4,18.1,12.4,17.7z M13,11.6C13,11.6,13,11.6,13,11.6c0.3,0.3,0.8,0.6,1.3,0.7
		c-0.5,0.1-0.9,0.4-1.3,0.7C13.2,12.6,13.2,12.1,13,11.6z M17,13c-0.3-0.3-0.8-0.6-1.3-0.7c0.5-0.1,0.9-0.4,1.3-0.7c0,0,0,0,0,0
		C16.8,12.1,16.8,12.6,17,13z M15,14.8c-0.4-0.7-0.3-1.6,0-2.3C15.3,13.2,15.4,14.1,15,14.8z M13,14.3c0.3,0.3,0.8,0.6,1.3,0.7
		c-0.5,0.1-0.9,0.4-1.3,0.7c0.1-0.2,0.1-0.5,0.1-0.7S13.1,14.5,13,14.3z M12.8,13.8c0.8,0.1,1.5,0.5,2,1.1
		C14,14.8,13.3,14.4,12.8,13.8z M15,15.2c0.4,0.7,0.3,1.6,0,2.3C14.7,16.8,14.6,15.9,15,15.2z M17,14.3c-0.1,0.2-0.1,0.5-0.1,0.7
		s0,0.5,0.1,0.7c-0.3-0.3-0.8-0.6-1.3-0.7C16.2,14.9,16.6,14.6,17,14.3z M15.2,14.9c0.5-0.7,1.2-1.1,2-1.1
		C16.7,14.4,16,14.8,15.2,14.9z M16.6,13.7c-0.5,0.1-0.9,0.4-1.3,0.7c0.1-0.5,0.1-1,0-1.5C15.7,13.3,16.2,13.5,16.6,13.7
		C16.6,13.7,16.6,13.7,16.6,13.7z M14.6,14.4c-0.3-0.3-0.8-0.6-1.3-0.7c0,0,0,0-0.1,0c0.5-0.1,1-0.4,1.3-0.8
		C14.5,13.4,14.5,13.9,14.6,14.4z M13,15c0,0.4-0.1,0.8-0.3,1.2c-0.2-0.3-0.3-0.7-0.3-1.2s0.1-0.8,0.3-1.2C12.9,14.2,13,14.6,13,15z
		 M14.8,15.1c-0.5,0.7-1.2,1.1-2,1.1C13.3,15.6,14,15.2,14.8,15.1z M17.2,16.2c-0.8-0.1-1.5-0.5-2-1.1C16,15.2,16.7,15.6,17.2,16.2z
		 M17,15c0-0.4,0.1-0.8,0.3-1.2c0.2,0.3,0.3,0.7,0.3,1.2s-0.1,0.8-0.3,1.2C17.1,15.8,17,15.4,17,15z M15.2,12.4
		c0.8,0.1,1.5,0.5,2,1.1C16.3,13.5,15.6,13,15.2,12.4z M12.9,13.5c0.4-0.6,1.1-1.1,2-1.1C14.4,13,13.7,13.5,12.9,13.5z M13.4,16.3
		c0.5-0.1,0.9-0.4,1.3-0.7c-0.1,0.5-0.1,1,0,1.5C14.3,16.7,13.8,16.5,13.4,16.3C13.4,16.3,13.4,16.3,13.4,16.3z M15.4,15.6
		c0.3,0.3,0.8,0.6,1.3,0.7c0,0,0,0,0.1,0c-0.5,0.1-1,0.4-1.3,0.8C15.5,16.6,15.5,16.1,15.4,15.6z M12.3,15.7
		c-0.3-0.3-0.8-0.6-1.3-0.7c0,0,0,0,0,0c0,0,0,0,0,0c0.5-0.1,0.9-0.4,1.3-0.7c-0.1,0.2-0.1,0.5-0.1,0.7S12.3,15.5,12.3,15.7z
		 M14.8,17.6c-0.8-0.1-1.5-0.5-2-1.1C13.7,16.5,14.4,17,14.8,17.6z M17.1,16.5c-0.4,0.6-1.1,1.1-2,1.1C15.6,17,16.3,16.5,17.1,16.5z
		 M17.7,14.3c0.3,0.3,0.8,0.6,1.3,0.7c0,0,0,0,0,0c0,0,0,0,0,0c-0.5,0.1-0.9,0.4-1.3,0.7c0.1-0.2,0.1-0.5,0.1-0.7
		S17.7,14.5,17.7,14.3z M17.5,13.8c0.4,0,0.8,0.1,1.1,0.3c0.4,0.2,0.6,0.5,0.9,0.8C18.7,14.9,18,14.4,17.5,13.8z M17.3,13.5
		c-0.4-0.7-0.3-1.6,0-2.3c0.2,0.3,0.3,0.7,0.3,1.1C17.6,12.7,17.5,13.1,17.3,13.5z M15.2,12.2c0.2-0.3,0.5-0.6,0.9-0.8
		c0.4-0.2,0.7-0.3,1.1-0.3C16.7,11.7,16,12.2,15.2,12.2z M15,12.1c-0.2-0.3-0.3-0.7-0.3-1.2s0.1-0.8,0.3-1.2
		c0.2,0.3,0.3,0.7,0.3,1.2S15.2,11.8,15,12.1z M12.8,11.1c0.4,0,0.8,0.1,1.1,0.3c0.4,0.2,0.6,0.5,0.9,0.8
		C14,12.2,13.3,11.7,12.8,11.1z M12.7,11.2c0.3,0.7,0.4,1.6,0,2.3c-0.2-0.3-0.3-0.7-0.3-1.1C12.4,11.9,12.5,11.5,12.7,11.2z
		 M10.5,14.9c0.2-0.3,0.5-0.6,0.9-0.8c0.4-0.2,0.7-0.3,1.1-0.3C12,14.4,11.3,14.9,10.5,14.9z M12.5,16.2c-0.4,0-0.8-0.1-1.1-0.3
		c-0.4-0.2-0.6-0.5-0.9-0.8C11.3,15.1,12,15.6,12.5,16.2z M13,17c0.3,0.3,0.8,0.6,1.3,0.7c-0.5,0.1-0.9,0.4-1.3,0.7c0,0,0,0,0,0
		C13.2,17.9,13.2,17.4,13,17z M14.8,17.8c-0.2,0.3-0.5,0.6-0.9,0.8c-0.4,0.2-0.7,0.3-1.1,0.3C13.3,18.3,14,17.8,14.8,17.8z M15,17.9
		c0.2,0.3,0.3,0.7,0.3,1.2c0,0.4-0.1,0.8-0.3,1.2c-0.2-0.3-0.3-0.7-0.3-1.2C14.7,18.6,14.8,18.2,15,17.9z M15.7,17.7
		c0.5-0.1,0.9-0.4,1.3-0.7c-0.1,0.5-0.1,1,0,1.5c0,0,0,0,0,0C16.6,18.1,16.2,17.8,15.7,17.7z M17.2,18.9c-0.4,0-0.8-0.1-1.1-0.3
		c-0.4-0.2-0.6-0.5-0.9-0.8C16,17.8,16.7,18.3,17.2,18.9z M19.5,15.1c-0.2,0.3-0.5,0.6-0.9,0.8c-0.4,0.2-0.7,0.3-1.1,0.3
		C18,15.6,18.7,15.1,19.5,15.1z M18.7,13.9c-0.2-0.1-0.5-0.2-0.7-0.3c0.7-0.2,1.3-0.6,1.7-1.2c0.4,0.8,0.4,1.6,0,2.3
		C19.4,14.5,19.1,14.2,18.7,13.9z M17.5,13.5c0.4-0.6,1.1-1.1,2-1.1C19,13,18.3,13.5,17.5,13.5z M17.7,13c0.1-0.2,0.1-0.5,0.1-0.7
		c0-0.4-0.1-0.9-0.3-1.2c0.8,0,1.5,0.5,2,1.2C18.8,12.3,18.1,12.6,17.7,13z M15.9,11.3c-0.2,0.1-0.4,0.3-0.6,0.5
		c0.1-0.2,0.1-0.5,0.1-0.8c0-0.4-0.1-0.9-0.3-1.2c0.8,0.1,1.6,0.5,2,1.2C16.7,10.9,16.3,11,15.9,11.3z M14.5,11c0,0.3,0,0.5,0.1,0.8
		c-0.2-0.2-0.4-0.3-0.6-0.5c-0.4-0.2-0.8-0.3-1.2-0.4c0.4-0.7,1.2-1.1,2-1.2C14.6,10.1,14.5,10.5,14.5,11z M12.2,12.3
		c0,0.3,0,0.5,0.1,0.7c-0.5-0.5-1.1-0.8-1.8-0.8c0.5-0.7,1.2-1.1,2-1.2C12.3,11.4,12.2,11.9,12.2,12.3z M12.5,13.5
		c-0.8-0.1-1.5-0.5-2-1.1C11.4,12.5,12.1,12.9,12.5,13.5z M12,13.6c-0.3,0.1-0.5,0.2-0.7,0.3c-0.4,0.2-0.7,0.5-0.9,0.9
		c-0.4-0.7-0.4-1.6,0-2.3C10.7,13.1,11.3,13.5,12,13.6z M11.3,16.1c0.2,0.1,0.5,0.2,0.7,0.3c-0.7,0.2-1.3,0.6-1.7,1.2
		c-0.4-0.8-0.4-1.6,0-2.3C10.6,15.5,10.9,15.8,11.3,16.1z M12.5,16.5c-0.4,0.6-1.1,1.1-2,1.1C11,17,11.7,16.5,12.5,16.5z M12.3,17
		c-0.1,0.2-0.1,0.5-0.1,0.7c0,0.4,0.1,0.9,0.3,1.2c-0.8,0-1.5-0.5-2-1.2C11.2,17.7,11.9,17.4,12.3,17z M14.1,18.7
		c0.2-0.1,0.4-0.3,0.6-0.5c-0.1,0.2-0.1,0.5-0.1,0.8c0,0.4,0.1,0.9,0.3,1.2c-0.8-0.1-1.6-0.5-2-1.2C13.3,19.1,13.7,19,14.1,18.7z
		 M15.5,19c0-0.3,0-0.5-0.1-0.8c0.2,0.2,0.4,0.3,0.6,0.5c0.4,0.2,0.8,0.3,1.2,0.4c-0.4,0.7-1.2,1.1-2,1.2
		C15.4,19.9,15.5,19.5,15.5,19z M17.8,17.7c0-0.3,0-0.5-0.1-0.7c0.5,0.5,1.1,0.8,1.8,0.8c-0.5,0.7-1.2,1.1-2,1.2
		C17.7,18.6,17.8,18.1,17.8,17.7z M17.5,16.5c0.8,0.1,1.5,0.5,2,1.1C18.6,17.5,17.9,17.1,17.5,16.5z M18,16.4
		c0.3-0.1,0.5-0.2,0.7-0.3c0.4-0.2,0.7-0.5,0.9-0.9c0.4,0.7,0.4,1.6,0,2.3C19.3,16.9,18.7,16.5,18,16.4z M19.8,12.4
		c0.9,0.1,1.6,0.5,2.1,1.3c-0.2,0.4-0.5,0.7-0.9,0.9c-0.4,0.2-0.8,0.3-1.1,0.3C20.2,14.1,20.2,13.2,19.8,12.4z M10.2,14.9
		c-0.4,0-0.8-0.1-1.1-0.3c-0.4-0.2-0.7-0.5-0.9-0.9c0.4-0.7,1.2-1.2,2.1-1.3C9.8,13.2,9.8,14.1,10.2,14.9z M10.2,17.6
		c-0.9-0.1-1.6-0.5-2.1-1.3c0.2-0.4,0.5-0.7,0.9-0.9c0.4-0.2,0.8-0.3,1.1-0.3C9.8,15.9,9.8,16.8,10.2,17.6z M19.8,15.1
		c0.4,0,0.8,0.1,1.1,0.3c0.4,0.2,0.7,0.5,0.9,0.9c-0.4,0.7-1.2,1.2-2.1,1.3C20.2,16.8,20.2,15.9,19.8,15.1z M20.3,9.8
		c0.7,0.2,1.2,0.6,1.6,1.2c0.5,0.8,0.4,1.7,0.1,2.5c-0.5-0.7-1.3-1.2-2.2-1.3c0.2-0.4,0.3-0.8,0.3-1.3c0-0.4-0.1-0.9-0.3-1.2
		C20,9.7,20.2,9.8,20.3,9.8z M19.5,9.5c-0.4,0-0.8,0.1-1.2,0.4c-0.2,0.1-0.4,0.3-0.6,0.5c0.1-0.2,0.1-0.5,0.1-0.7
		c0-0.5-0.1-0.9-0.3-1.3C18.3,8.4,19.1,8.9,19.5,9.5z M15,7c0.9,0,1.7,0.5,2.1,1.1c-0.9,0.1-1.7,0.5-2.1,1.2
		c-0.5-0.7-1.3-1.2-2.1-1.2C13.3,7.5,14.1,7,15,7z M12.5,8.4c-0.2,0.4-0.3,0.8-0.3,1.3c0,0.3,0,0.5,0.1,0.7
		c-0.2-0.2-0.4-0.3-0.6-0.5c-0.4-0.2-0.8-0.3-1.2-0.4C10.9,8.9,11.7,8.4,12.5,8.4z M8.1,11c0.3-0.6,0.9-1,1.6-1.2
		c0.2,0,0.3-0.1,0.5-0.1C10,10.1,9.9,10.5,9.9,11c0,0.5,0.1,0.9,0.3,1.3c-0.9,0-1.7,0.5-2.2,1.3C7.7,12.7,7.7,11.8,8.1,11z M7.8,15
		c0-0.4,0.1-0.8,0.3-1.2c0.2,0.3,0.5,0.6,0.9,0.9c0.2,0.1,0.4,0.2,0.7,0.3c-0.2,0.1-0.5,0.2-0.7,0.3c-0.4,0.2-0.7,0.5-0.9,0.9
		C7.9,15.8,7.8,15.4,7.8,15z M9.7,20.2C9,20,8.5,19.6,8.1,19c-0.5-0.8-0.4-1.7-0.1-2.5c0.5,0.7,1.3,1.2,2.2,1.3
		C10,18.2,9.9,18.6,9.9,19c0,0.4,0.1,0.9,0.3,1.2C10,20.3,9.8,20.2,9.7,20.2z M10.5,20.5c0.4,0,0.8-0.1,1.2-0.4
		c0.2-0.1,0.4-0.3,0.6-0.5c-0.1,0.2-0.1,0.5-0.1,0.7c0,0.5,0.1,0.9,0.3,1.3C11.7,21.6,10.9,21.1,10.5,20.5z M15,23
		c-0.9,0-1.7-0.5-2.1-1.1c0.9-0.1,1.7-0.5,2.1-1.2c0.5,0.7,1.3,1.2,2.1,1.2C16.7,22.5,15.9,23,15,23z M17.5,21.6
		c0.2-0.4,0.3-0.8,0.3-1.3c0-0.3,0-0.5-0.1-0.7c0.2,0.2,0.4,0.3,0.6,0.5c0.4,0.2,0.8,0.3,1.2,0.4C19.1,21.1,18.3,21.6,17.5,21.6z
		 M21.9,19c-0.3,0.6-0.9,1-1.6,1.2c-0.2,0-0.3,0.1-0.5,0.1c0.2-0.4,0.3-0.8,0.3-1.2c0-0.5-0.1-0.9-0.3-1.3c0.9,0,1.7-0.5,2.2-1.3
		C22.3,17.3,22.3,18.2,21.9,19z"/>
	<path class="st1" d="M18.5,8.9l-7,0L8,15l3.5,6.1h7L22,15L18.5,8.9z M21.6,14.8L18.5,13l0-3.6L21.6,14.8z M16.1,16.8h-2.2l-1-1.7
		l1-1.7h2.2l1,1.7L16.1,16.8z M17.2,15.3l0.9,1.5h-1.7L17.2,15.3z M15,18.6L14,17H16L15,18.6z M13.7,16.8h-1.7l0.9-1.5L13.7,16.8z
		 M12.8,14.8l-0.9-1.5h1.7L12.8,14.8z M15,11.4l1,1.6H14L15,11.4z M16.3,13.3h1.7l-0.9,1.5L16.3,13.3z M16.2,13.1l-1-1.7l3,1.7H16.2
		z M13.8,13.1h-2l3-1.8L13.8,13.1z M12.7,15l-0.9,1.6v-3.1L12.7,15z M13.8,17l0.9,1.6L11.9,17H13.8z M16.2,17h1.9l-2.9,1.7L16.2,17z
		 M17.3,15l0.9-1.5l0,3.1L17.3,15z M18.2,12.8l-3.1-1.8l3-1.8L18.2,12.8z M17.9,9.2L15,10.9l-3-1.8H17.9z M11.7,9.3l3,1.7l-3,1.8
		V9.3z M11.6,9.3L11.6,9.3L11.6,9.3L11.6,9.3z M11.5,20.6l-3.1-5.4l3.1,1.8V20.6z M11.5,16.8l-3-1.7l3-1.8V16.8z M11.5,13l-3.2,1.9
		l3.2-5.5V13z M11.7,17.1l3.1,1.8l-3.1,1.8V17.1z M12.1,20.8l3-1.8l3,1.8H12.1z M15.3,18.9l3-1.8l0,3.5L15.3,18.9z M18.4,20.7
		L18.4,20.7L18.4,20.7L18.4,20.7z M18.5,13.2l3,1.7l-3,1.8L18.5,13.2z M18.5,17l3.1-1.9l-3.1,5.4L18.5,17z"/>
	<g>
		<path d="M8.8,13.1c0.5-0.1,1.2-0.4,2.1-0.8c0.9-0.4,1.7-0.9,2.1-1.4c0.5-0.5,0.8-0.9,0.8-1.3c0-0.2-0.1-0.3-0.2-0.4
			c-0.1-0.1-0.3-0.2-0.5-0.2c-0.6,0-1.4,0.4-2.4,1.1c-1,0.7-1.9,1.7-2.6,2.9c-1.1,0.3-1.9,0.4-2.5,0.4c-0.8,0-1.4-0.2-1.8-0.5
			c-0.4-0.3-0.6-0.6-0.6-1c0-0.6,0.4-1.3,1.3-1.9c0.8-0.7,2-1,3.4-1c0.3,0,0.6,0,1,0.1l0.1,0l0.1-0.4l-0.2,0C8.4,8.7,8,8.7,7.6,8.7
			C6.1,8.7,4.9,9,4,9.6c-0.9,0.6-1.4,1.4-1.4,2.3c0,0.5,0.3,1,0.7,1.4c0.5,0.4,1.2,0.5,2,0.5c0.7,0,1.4-0.1,2.3-0.3
			c-0.8,1.1-1.4,1.9-1.9,2.4c-0.5,0.6-1.2,1-1.8,1.3c-0.7,0.3-1.4,0.4-2.1,0.4c-0.5,0-0.9-0.1-1.1-0.3c-0.2-0.2-0.4-0.4-0.4-0.6
			c0,0,0-0.1,0-0.1c0,0,0.1,0.1,0.1,0.1c0.1,0.1,0.2,0.1,0.3,0.1c0.1,0,0.3,0,0.4-0.1c0.1-0.1,0.2-0.2,0.2-0.4
			c0-0.2-0.1-0.3-0.2-0.4c-0.1-0.1-0.2-0.1-0.4-0.1c-0.2,0-0.4,0.1-0.6,0.3C0.1,16.3,0,16.5,0,16.7c0,0.4,0.2,0.7,0.5,0.9
			c0.3,0.2,0.8,0.3,1.4,0.3c1.2,0,2.3-0.3,3.4-1C6.5,16.4,7.6,15.1,8.8,13.1z M11.8,9.8c0.5-0.2,0.9-0.4,1.2-0.4
			c0.1,0,0.2,0,0.3,0.1c0.1,0,0.1,0.1,0.1,0.2c0,0.3-0.3,0.8-1.5,1.6c-0.9,0.6-1.9,1.1-2.8,1.4c0.3-0.5,0.7-1,1.2-1.5v0
			C10.8,10.5,11.4,10.1,11.8,9.8z"/>
		<path d="M25.3,16.5l-0.2-0.3l-0.1,0.1c-1.1,1-1.6,1.2-1.9,1.2c0,0,0,0,0,0c0,0,0,0,0,0c0,0,0-0.1,0.4-0.4l0.4-0.3
			c0.3-0.3,0.5-0.5,0.6-0.6c0.1-0.2,0.1-0.4,0.1-0.6c0-0.4-0.2-0.6-0.6-0.6c-0.3,0-0.7,0.2-1.3,0.6c-0.1,0.1-0.3,0.2-0.4,0.3
			c0.1-0.2,0.3-0.3,0.4-0.5l0.7-0.8c0,0,0.1-0.1,0.8-0.4c1.2-0.5,2.1-1.1,2.9-1.7c0.8-0.6,1.2-1.1,1.2-1.5c0-0.3-0.2-0.5-0.5-0.5
			c-0.1,0-0.3,0-0.5,0.1c-0.2,0.1-0.4,0.2-0.8,0.4c-0.3,0.2-0.7,0.5-1,0.7c-0.3,0.3-0.7,0.6-1,1l-1.8,1.8c0,0-0.2,0.1-0.7,0.5
			c-0.5,0.3-0.9,0.6-1.2,0.9l-0.6,0.5c-1.2,1-1.7,1.3-1.9,1.3c0,0,0,0-0.1,0c0,0,0,0,0,0c0,0,0-0.1,0.1-0.1c0,0,0.1-0.2,0.5-0.5
			l2.2-2.3h1l0.1-0.4h-0.8l1-1.2l-1,0l-1.1,1.1h-0.7l-0.1,0.4h0.4l-0.4,0.3l-1.6,1.3l0,0l-0.1,0.1l-0.1,0.1l0,0l-0.3,0.2
			c-0.3,0.3-0.6,0.5-0.9,0.6c-0.3,0.2-0.5,0.2-0.5,0.2c0,0,0,0,0,0c0,0,0,0,0,0c0,0,0,0,0.1-0.1c0-0.1,0.2-0.2,0.6-0.5
			c0.3-0.3,0.5-0.5,0.7-0.7c0.1-0.2,0.2-0.4,0.2-0.6c0-0.2-0.1-0.5-0.6-0.5c-0.3,0-0.8,0.3-1.5,0.8c0-0.1,0.1-0.2,0.1-0.3
			c0-0.1,0-0.3-0.1-0.3c-0.1-0.1-0.2-0.1-0.3-0.1c-0.4,0-1.1,0.4-2.2,1.3c-0.7,0.6-1.5,1.1-2.2,1.4l2.6-2.7h-1l0,0.1
			c-0.1,0.2-0.2,0.2-0.2,0.3l-0.6,0.6c-0.8,0.7-1.3,1.2-1.6,1.4c-0.4,0.2-0.6,0.3-0.7,0.3c0,0,0,0,0,0c0,0,0,0,0,0
			c0,0,0-0.1,0.3-0.3c0.6-0.5,1-0.9,1.1-1c0.1-0.2,0.2-0.4,0.2-0.6c0-0.1,0-0.2-0.1-0.3c-0.1-0.1-0.2-0.1-0.3-0.1
			c-0.2,0-0.4,0.1-0.7,0.3c-0.3,0.2-0.5,0.3-0.8,0.5l-0.7,0.6l0.3,0.3l0.6-0.5c0.3-0.3,0.6-0.5,0.9-0.6c0.3-0.2,0.4-0.2,0.5-0.2
			c0,0,0,0.1-0.1,0.1c-0.1,0.1-0.4,0.3-0.8,0.7c-0.5,0.4-0.7,0.8-0.7,1.2c0,0.2,0.1,0.3,0.2,0.4c0.1,0.1,0.2,0.1,0.3,0.1
			c0.1,0,0.3,0,0.5-0.1c0.2-0.1,0.4-0.2,0.7-0.4l-0.8,0.9c-1,0.3-1.8,0.7-2.3,1.1c-0.6,0.4-0.9,0.8-0.9,1.1c0,0.1,0.1,0.4,0.5,0.4
			c0.4,0,0.9-0.2,1.5-0.6c0.5-0.4,1-0.8,1.4-1.2l0.7-0.7c0.9-0.2,1.9-0.8,3-1.7c1.2-1,1.7-1.2,1.9-1.2c0,0,0,0,0,0
			c0,0-0.1,0.2-0.4,0.4l-2,2h1.1l0,0c0.7-0.7,1.4-1.3,2-1.7c0.7-0.5,1-0.6,1.2-0.6c0.1,0,0.1,0,0.1,0c0,0,0,0,0,0c0,0,0,0.1-0.4,0.5
			L16,16.2c-0.3,0.2-0.4,0.4-0.5,0.5c-0.1,0.1-0.1,0.2-0.2,0.3c-0.1,0.1-0.1,0.3-0.1,0.4c0,0.1,0,0.3,0.1,0.4
			c0.1,0.1,0.2,0.2,0.4,0.2c0.5,0,1.2-0.4,2.1-1.3l0.4-0.3c-0.4,0.4-0.5,0.8-0.5,1.1c0,0.2,0.1,0.3,0.2,0.4c0.1,0.1,0.2,0.2,0.4,0.2
			c0.2,0,0.7-0.1,2.2-1.4c0.4-0.4,0.8-0.7,1.2-0.9l-2,2.2h1l0,0c0.2-0.2,0.5-0.5,0.9-0.8c0.4-0.4,0.7-0.7,1.1-0.9
			c0.4-0.3,0.7-0.4,0.9-0.5c0.3-0.1,0.4-0.1,0.4-0.1c0,0,0.1,0,0.1,0c0,0,0,0,0,0c0,0,0,0.1-0.1,0.1c0,0.1-0.2,0.2-0.6,0.5
			c-0.3,0.3-0.6,0.5-0.7,0.6c-0.1,0.2-0.2,0.3-0.2,0.5c0,0.2,0,0.3,0.1,0.4c0.1,0.1,0.2,0.2,0.4,0.2c0.2,0,0.4-0.1,0.8-0.3
			c0.3-0.2,0.6-0.4,0.8-0.6L25.3,16.5z M27.9,11c0,0,0,0.1,0,0.1c0,0.1-0.2,0.3-0.3,0.5c-0.2,0.3-0.5,0.5-0.8,0.8
			c-0.3,0.3-0.8,0.5-1.3,0.8c-0.3,0.2-0.7,0.4-1,0.5c-0.1,0-0.2,0.1-0.2,0.1c0.2-0.2,0.5-0.5,0.8-0.9c0.8-0.9,1.5-1.4,1.8-1.7
			c0.4-0.3,0.7-0.4,0.9-0.4C27.9,10.9,27.9,10.9,27.9,11z M6.2,20.5c0-0.1,0.1-0.4,0.9-0.9c0.5-0.3,1-0.6,1.5-0.7l-0.2,0.2
			c-0.6,0.6-1,1-1.3,1.2c-0.3,0.2-0.5,0.3-0.8,0.3C6.2,20.5,6.2,20.5,6.2,20.5C6.2,20.5,6.2,20.5,6.2,20.5z"/>
		<path d="M30,13.1l-1.2,0L25.3,17c0,0-0.1,0-0.2,0c-0.1,0-0.3,0.1-0.4,0.2c-0.1,0.1-0.2,0.2-0.2,0.4c0,0.1,0,0.2,0.1,0.3
			c0.1,0.1,0.2,0.1,0.3,0.1c0.1,0,0.3-0.1,0.4-0.2c0.1-0.1,0.2-0.2,0.2-0.4c0-0.1,0-0.1,0-0.2L30,13.1z"/>
	</g>
</g>
</svg>
