<?xml version="1.0" encoding="utf-8"?>
<!-- Generator: Adobe Illustrator 24.0.1, SVG Export Plug-In . SVG Version: 6.00 Build 0)  -->
<svg version="1.1" id="Capa_1" xmlns="http://www.w3.org/2000/svg" xmlns:xlink="http://www.w3.org/1999/xlink" x="0px" y="0px"
	 viewBox="0 0 30 30" style="enable-background:new 0 0 30 30;" xml:space="preserve">
<style type="text/css">
	.st0{fill:none;}
</style>
<title>Recurso 1</title>
<g id="Capa_2_1_">
	<g id="Capa_1-2">
		<rect class="st0" width="30" height="30"/>
		<path d="M10.4,7.7c0.2-0.2,0.4-0.4,0.5-0.6c0.4-0.4,0.9-0.6,1.4-0.6c1.6,0,3.2,0,4.8,0c0.8-0.1,1.5,0.3,2,0.9
			c0.1,0.2,0.2,0.3,0.3,0c0-0.1,0.1-0.1,0.1-0.2c0.1-0.7,0.5-0.8,1.1-0.7c0.9,0,1.8,0,2.6,0c0.2,0,0.4,0.1,0.5,0.3
			c1,2.4,2.1,4.7,3.1,7.1c0.5,1,0.9,2,1.4,3.1c0.1,0.2-0.1,0.2-0.2,0.2h-2.1c-0.4,0-0.7,0-1.1,0c-0.2,0-0.4-0.1-0.4-0.3
			c-0.9-2-1.7-4-2.6-5.9c0-0.1,0-0.2-0.1-0.2s-0.1,0.1-0.1,0.2c-0.4,0.5-0.5,1.2-0.1,1.8c0.7,1.4,1.2,2.8,1.8,4.1
			c0.1,0.3,0,0.3-0.2,0.3c-1,0-2.1,0-3.1,0c-0.2,0-0.3-0.1-0.4-0.3c-0.1-0.3-0.3-0.6-0.5-0.9c-0.2,0.2-0.3,0.4-0.5,0.6
			c-0.3,0.3-0.7,0.5-1.2,0.5c-1.2,0.1-2.3,0-3.5,0c-0.6,0-1.1,0-1.7,0c-0.7,0-1.3-0.4-1.6-1c0-0.1-0.1-0.2-0.1-0.1s-0.1,0.1-0.1,0.2
			c-0.1,0.2-0.2,0.5-0.3,0.7c-0.1,0.2-0.2,0.3-0.4,0.3c-1,0-2.1,0-3.1,0c-0.3,0-0.3-0.1-0.2-0.3c0.7-1.5,1.3-3,2-4.5
			c0.3-0.7-0.1-1.1-0.3-1.6C8.1,10.8,8,11,7.9,11c-0.2,0.3-0.3,0.6-0.4,0.9c-0.7,1.6-1.4,3.3-2.1,5c-0.1,0.3-0.3,0.4-0.6,0.4
			c-1,0-2,0-3,0c-0.4,0-0.4,0-0.2-0.3c0.7-1.7,1.5-3.4,2.3-5.1C4.6,10.2,5.3,8.6,6,7c0.1-0.2,0.2-0.3,0.5-0.3c1,0,2.1,0,3.2,0
			c0.2,0,0.4,0.1,0.4,0.3C10.2,7.2,10.3,7.5,10.4,7.7z M14.9,16.9h2.2c0.7,0,1.4-0.4,1.7-1c0.1-0.2,0.1-0.4,0-0.6
			c-0.4-0.9-0.8-1.7-1.1-2.6c0-0.1,0-0.2-0.1-0.2s-0.1,0.1-0.1,0.2l-0.8,1.6c-0.1,0.4-0.3,0.7-0.5,1c-0.5,0.7-1.4,0.8-2.1,0.3
			c-0.2-0.2-0.4-0.4-0.5-0.7c-0.3-0.7-0.7-1.4-1-2.1c-0.9-1.9-1.8-3.8-2.7-5.7C9.7,7.1,9.5,7,9.4,7H7.1C6.8,7,6.8,7.1,6.9,7.3
			C7.3,8.1,7.7,9,8.1,9.8c1,2,1.9,4.1,2.9,6.1c0.3,0.6,0.9,1,1.6,1H14.9z M14.9,15.6c0.4,0,0.8-0.2,1-0.6l1.5-2.9
			c0.1-0.1,0.1-0.2,0-0.3c-0.5-1.1-1-2.1-1.5-3.2C15.7,8.2,15.4,8,15,8c-0.5-0.1-1,0.2-1.1,0.7c-0.4,0.9-0.8,1.9-1.3,2.8
			c-0.1,0.2-0.2,0.3-0.1,0.5c0.5,1,1,2,1.5,3C14.2,15.3,14.5,15.6,14.9,15.6L14.9,15.6z M20.9,11.4c0.1-0.1,0.2-0.2,0.2-0.3
			c0.6-1.3,1.2-2.6,1.8-3.8C23,7.1,23,7,22.7,7h-2.3C20.2,7,20,7.1,20,7.2c0,0.1-0.1,0.2-0.1,0.3c-0.3,0.4-0.3,0.9-0.1,1.4
			c0.3,0.5,0.5,1.1,0.7,1.6C20.5,10.8,20.7,11.1,20.9,11.4L20.9,11.4z"/>
		<path d="M24.6,21.7c0-0.1,0-0.1,0-0.2c0.1-0.2-0.3-0.7,0.3-0.7c0.3,0,0.6-0.2,0.9,0c0.1,0.1,0.2,0,0.3,0c0.5-0.2,0.8,0,0.8,0.5
			s0,0.8,0,1.1c0,0.1,0,0.3-0.2,0.2s-0.2-0.1-0.2-0.2v-1c0-0.2,0-0.4-0.3-0.4s-0.3,0.2-0.3,0.4s0,0.6,0,0.9c0,0.1,0.1,0.3-0.2,0.3
			s-0.2-0.2-0.2-0.4c0-0.3,0-0.6,0-0.9s0-0.4-0.3-0.4S25,21.3,25,21.5s0,0.6,0,0.9c0,0.1,0.1,0.3-0.2,0.3s-0.2-0.2-0.2-0.3
			S24.6,21.9,24.6,21.7z"/>
		<path d="M0,21.3c0-0.3,0-0.6,0-0.8c0.1-0.4,0.3-0.5,0.8-0.5c0.3,0,0.6,0.2,0.7,0.5c0,0.1,0.1,0.3-0.1,0.3s-0.2-0.1-0.2-0.2
			S1,20.2,0.8,20.2c-0.2,0-0.3,0.1-0.4,0.3c0,0,0,0,0,0c0,0.5,0,1.1,0,1.6c0,0.2,0.2,0.3,0.3,0.3c0,0,0,0,0,0c0.2,0,0.3-0.1,0.4-0.3
			c0,0,0,0,0,0c0-0.2,0-0.3,0.3-0.3s0.1,0.2,0.1,0.4c0,0.4-0.4,0.6-0.7,0.6c0,0,0,0,0,0c-0.4,0-0.7-0.2-0.7-0.6
			C0,21.9,0,21.6,0,21.3L0,21.3z"/>
		<path d="M9.2,21.3c0-0.3,0-0.7,0-1c0-0.1-0.1-0.3,0.2-0.3s0.1,0.2,0.2,0.3c0,0.1,0,0.2,0,0.2c0,0.2,0,0.4,0.3,0.3
			c0.2-0.1,0.5,0.1,0.6,0.3c0,0.1,0,0.1,0,0.2c0,0.3,0,0.7,0,1c0,0.2-0.2,0.4-0.4,0.4c0,0,0,0-0.1,0c-0.2,0-0.4-0.1-0.6,0
			s-0.1-0.1-0.1-0.2C9.2,22.1,9.2,21.7,9.2,21.3z M10.1,21.8L10.1,21.8c0-0.2,0-0.4,0-0.5c0-0.1-0.1-0.2-0.2-0.2c0,0,0,0,0,0
			c-0.1,0-0.2,0.1-0.2,0.2c-0.1,0.3-0.1,0.7,0,1.1c0,0.1,0.2,0.2,0.3,0.2c0.1,0,0.2-0.1,0.2-0.2C10.1,22.1,10.1,21.9,10.1,21.8z"/>
		<path d="M27.1,22.1c0-0.4,0-0.7,0-1s0.1-0.3,0.3-0.2s0.2,0,0.3,0c0.2-0.1,0.5,0,0.6,0.2c0,0,0,0.1,0,0.1c0.1,0.4,0.1,0.8,0,1.2
			c0,0.2-0.2,0.4-0.5,0.4c0,0-0.1,0-0.1,0c-0.3-0.1-0.3,0-0.3,0.2v0.2c0,0.1,0,0.3-0.2,0.3s-0.2-0.2-0.2-0.3L27.1,22.1z M28,21.7
			L28,21.7c0-0.1,0-0.3,0-0.4s0-0.3-0.2-0.3s-0.3,0.1-0.3,0.3c0,0.3,0,0.7,0,1c0,0.1,0.1,0.2,0.3,0.2c0.1,0,0.2-0.1,0.2-0.2
			c0,0,0,0,0-0.1C28,22,28,21.9,28,21.7L28,21.7z"/>
		<path d="M3.2,21.9v0.4c0,0.4,0,0.4-0.4,0.3c0,0-0.1,0-0.2,0c-0.2,0.2-0.4,0.1-0.6,0c0,0,0-0.1-0.1-0.1c-0.1-0.3-0.1-0.6,0.2-0.8
			c0.1-0.1,0.3-0.1,0.4-0.1c0.1,0,0.3,0,0.3-0.2s0-0.3-0.1-0.3c-0.1-0.1-0.3,0-0.3,0.1c0,0,0,0,0,0c-0.1,0.1-0.2,0.2-0.3,0.1
			s0-0.3,0-0.4c0.2-0.2,0.5-0.2,0.7-0.1c0.2,0.1,0.3,0.3,0.3,0.5C3.2,21.5,3.2,21.7,3.2,21.9L3.2,21.9z M2.8,22c0-0.1,0-0.3-0.2-0.2
			c-0.2,0-0.4,0.1-0.4,0.3c0,0,0,0,0,0c0,0.2,0,0.3,0.2,0.3S2.8,22.3,2.8,22z"/>
		<path d="M19.2,21.9c0,0.2,0,0.4,0,0.6s-0.1,0.3-0.2,0.2c-0.2-0.1-0.4-0.1-0.6,0c-0.2,0.1-0.4-0.1-0.5-0.3
			c-0.1-0.3-0.1-0.6,0.1-0.7c0.1-0.1,0.3-0.2,0.5-0.2c0.1,0,0.3,0,0.3-0.2s0-0.3-0.1-0.3c-0.1-0.1-0.3,0-0.3,0.1c0,0,0,0,0,0
			c-0.1,0.1-0.2,0.2-0.3,0.1s0-0.2,0-0.3c0.2-0.2,0.5-0.3,0.7-0.2c0.2,0.1,0.4,0.3,0.4,0.5C19.1,21.5,19.1,21.7,19.2,21.9L19.2,21.9
			z M18.8,22c0-0.1,0.1-0.3-0.1-0.3c-0.2,0-0.4,0.2-0.4,0.4c0,0,0,0,0,0c0,0.1,0,0.3,0.2,0.3S18.8,22.3,18.8,22L18.8,22z"/>
		<path d="M8.8,21.9v0.4c0,0.3,0,0.6-0.4,0.4c0,0-0.1,0-0.1,0c-0.3,0.1-0.6,0.1-0.7-0.2c-0.1-0.3,0-0.7,0.3-0.8
			c0.1,0,0.2-0.1,0.3-0.1c0.1,0,0.3,0,0.3-0.2s0-0.3-0.2-0.3c-0.1,0-0.2,0-0.3,0.1c0,0,0,0,0,0c0,0.1-0.1,0.2-0.2,0.1c0,0,0,0,0,0
			c-0.1-0.1-0.1-0.2,0-0.3c0.2-0.2,0.5-0.3,0.7-0.2c0.2,0,0.4,0.2,0.4,0.5C8.8,21.4,8.8,21.6,8.8,21.9L8.8,21.9z M7.9,22.2
			c0,0.1,0.1,0.3,0.2,0.3s0.3-0.2,0.3-0.4s0-0.3-0.2-0.2S7.9,22,7.9,22.2z"/>
		<path d="M16.6,21.9v0.6c0,0.1-0.1,0.3-0.1,0.2s-0.4,0-0.6,0c-0.2,0-0.4-0.1-0.5-0.3c0,0,0,0,0,0c-0.1-0.3-0.1-0.6,0.2-0.8
			c0.1-0.1,0.3-0.1,0.4-0.1c0.1,0,0.2,0,0.2-0.2s0-0.3-0.2-0.3c-0.1-0.1-0.2,0-0.3,0.1c0,0,0,0,0,0c-0.1,0.2-0.2,0.2-0.3,0.1
			s-0.1-0.3,0-0.4c0.2-0.2,0.5-0.2,0.7-0.1c0.3,0.1,0.3,0.3,0.3,0.5L16.6,21.9L16.6,21.9z M16.3,22c0-0.1,0-0.3-0.2-0.3
			c-0.2,0-0.4,0.1-0.4,0.3c0,0,0,0.1,0,0.1c0,0.1,0,0.3,0.2,0.3C16.2,22.5,16.3,22.2,16.3,22L16.3,22z"/>
		<path d="M6.3,21.9c0,0.1,0,0.3,0,0.4s0.1,0.6-0.4,0.4c0,0-0.1,0-0.1,0c-0.3,0.1-0.6,0-0.7-0.2c-0.1-0.3,0-0.6,0.2-0.8
			c0.1-0.1,0.3-0.1,0.4-0.1c0.1,0,0.2,0,0.2-0.2s0-0.3-0.1-0.3c-0.1-0.1-0.3,0-0.3,0.1c0,0,0,0,0,0c-0.1,0.2-0.2,0.3-0.3,0.1
			s0-0.3,0.1-0.4c0.2-0.2,0.5-0.2,0.8-0.1c0.2,0.1,0.3,0.3,0.3,0.5C6.3,21.5,6.3,21.7,6.3,21.9L6.3,21.9z M6,22.1
			c0-0.2,0-0.3-0.2-0.3c-0.2,0-0.4,0.2-0.4,0.3c0,0,0,0,0,0c0,0.2,0,0.3,0.2,0.3S5.9,22.3,6,22.1L6,22.1z"/>
		<path d="M11.5,21.8c0-0.2,0-0.3,0-0.4s0-0.5,0.3-0.6c0.3-0.1,0.6-0.1,0.8,0.1c0.2,0.2,0.2,0.5,0.1,0.8c0,0.1-0.1,0.1-0.2,0.1
			s-0.2,0-0.3,0s-0.3-0.1-0.3,0.2s-0.1,0.3,0.1,0.4c0.1,0.1,0.3,0,0.4-0.1c0,0,0,0,0-0.1c0.1-0.1,0.2-0.1,0.3-0.1s0.1,0.2,0,0.3
			c-0.1,0.2-0.4,0.4-0.6,0.3c-0.2,0-0.5-0.1-0.5-0.4C11.5,22.2,11.5,22,11.5,21.8z M12.4,21.4c0-0.2,0-0.4-0.3-0.4s-0.3,0.1-0.3,0.3
			s0,0.3,0.3,0.3S12.4,21.6,12.4,21.4z"/>
		<path d="M23.1,21.7v-0.3c0-0.3,0.2-0.6,0.5-0.7c0.1,0,0.3,0,0.4,0.1c0.3,0.1,0.5,0.8,0.3,1s-0.4,0.1-0.6,0.1s-0.3,0.1-0.3,0.3
			s0,0.2,0.2,0.3c0.1,0,0.3,0,0.3-0.1c0.1-0.1,0.2-0.3,0.3-0.1s0,0.3-0.1,0.4c-0.2,0.2-0.5,0.3-0.8,0.1c-0.2-0.1-0.4-0.3-0.3-0.5
			C23.1,22.1,23.1,21.9,23.1,21.7L23.1,21.7z M24,21.3c0-0.1-0.1-0.3-0.3-0.3s-0.3,0.2-0.3,0.4s0.1,0.2,0.3,0.2S24,21.6,24,21.3
			L24,21.3z"/>
		<path d="M30,21.8v0.4c0,0.3-0.2,0.6-0.5,0.6c0,0-0.1,0-0.1,0c-0.3,0.1-0.6-0.1-0.6-0.4c0,0,0-0.1,0-0.2c0-0.3,0-0.6,0-0.9
			c0-0.3,0.3-0.5,0.6-0.5c0,0,0,0,0,0c0.3,0,0.6,0.2,0.6,0.4c0,0,0,0,0,0C30,21.4,30,21.6,30,21.8L30,21.8z M29.1,21.7
			c0,0.2,0,0.3,0,0.5c0,0.1,0.1,0.3,0.3,0.3c0.1,0,0.3-0.1,0.3-0.2c0,0,0,0,0,0c0.1-0.3,0.1-0.7,0-1c0-0.1-0.1-0.2-0.3-0.2
			c0,0,0,0,0,0c-0.1,0-0.2,0.1-0.2,0.3c0,0,0,0,0,0C29.1,21.4,29.1,21.6,29.1,21.7L29.1,21.7z"/>
		<path d="M4.1,20.8c0.2,0,0.5,0,0.5,0.4c0,0.1,0,0.2-0.1,0.2s-0.2,0-0.2-0.1S4.2,21,4.1,21c-0.1,0-0.1,0.1-0.2,0.1
			c0,0.1,0,0.2,0.1,0.3c0.1,0.1,0.3,0.2,0.4,0.3c0.2,0.1,0.2,0.4,0.2,0.6c-0.1,0.2-0.3,0.4-0.5,0.4c-0.2,0-0.5-0.1-0.6-0.3
			c-0.1-0.1-0.1-0.2,0-0.3c0.1,0,0.2,0,0.3,0.1c0,0,0,0,0,0c0.1,0.2,0.2,0.2,0.4,0.1s0.1-0.3,0-0.4c-0.1-0.1-0.3-0.2-0.4-0.4
			c-0.2-0.1-0.3-0.4-0.2-0.6C3.7,20.8,3.9,20.8,4.1,20.8z"/>
		<path d="M14.4,21.8v-0.5c0-0.1,0-0.3-0.1-0.3c0,0,0,0,0-0.1c0.1-0.2,0.2-0.4,0.4-0.6c0.1,0,0.1,0,0.1,0c-0.1,0.3,0.3,0.5,0.3,0.5
			c-0.5,0.3-0.2,0.7-0.3,1.1c0,0.2,0,0.4,0.2,0.5c0.1,0,0.1,0.1,0.1,0.1c0,0,0,0,0,0c0,0-0.1,0.1-0.1,0.1c-0.2,0.1-0.4,0-0.5-0.2
			c0,0,0-0.1,0-0.1c0,0,0,0,0-0.1L14.4,21.8L14.4,21.8z"/>
		<path d="M21.4,21.8v-0.5c0-0.1,0-0.2-0.1-0.2s-0.2-0.2,0-0.3s0.1-0.2,0.1-0.3s0.1-0.1,0.2-0.1s0.1,0.1,0.1,0.2
			c0.2,0.2,0.2,0.5,0,0.7c-0.1,0.2,0,0.6,0,1c0,0.1,0.1,0.2,0.2,0.3c0.1,0,0.1,0.1,0,0.2s-0.1,0.1-0.1,0.1c-0.2,0-0.4-0.1-0.4-0.3
			c0,0,0-0.1,0-0.1C21.4,22.3,21.4,21.8,21.4,21.8z"/>
		<path d="M19.9,21.3c0,0.3,0,0.6,0,1c0,0.1,0.1,0.4-0.2,0.4s-0.1-0.2-0.2-0.4v-2c0-0.1-0.1-0.3,0.2-0.3s0.1,0.2,0.2,0.3L19.9,21.3z
			"/>
		<path d="M13.1,21.8c0-0.2,0-0.5,0-0.7s0-0.2,0.2-0.2s0.3,0.1,0.5,0s0.1,0,0.1,0.1c0,0.1,0,0.2-0.1,0.2c-0.3,0.1-0.3,0.3-0.3,0.6
			s0,0.5,0,0.8s0,0.3-0.2,0.2s-0.2-0.1-0.2-0.3S13.1,22,13.1,21.8z"/>
		<path d="M10.8,21.7c0-0.2,0-0.5,0-0.7s0-0.2,0.2-0.2s0.2,0.1,0.2,0.2v1.5c0,0.1,0,0.2-0.2,0.2s-0.2-0.1-0.2-0.2S10.8,22,10.8,21.7
			z"/>
		<path d="M22.7,21.8v0.7c0,0.1,0,0.2-0.2,0.2s-0.1-0.1-0.1-0.2V21c0-0.1,0-0.2,0.2-0.2s0.1,0.1,0.1,0.2V21.8z"/>
		<path d="M11.2,20.1c0,0.1-0.1,0.2-0.2,0.2s-0.2,0-0.2-0.1s0-0.2,0.2-0.2S11.2,20,11.2,20.1z"/>
		<path d="M22.5,20c0.1,0,0.2,0.1,0.2,0.1c0,0,0,0,0,0c0,0.1,0,0.2-0.2,0.2s-0.2,0-0.2-0.2C22.4,20.1,22.4,20,22.5,20
			C22.5,20,22.5,20,22.5,20z"/>
	</g>
</g>
</svg>
