<?xml version="1.0" encoding="utf-8"?>
<!-- Generator: Adobe Illustrator 24.0.1, SVG Export Plug-In . SVG Version: 6.00 Build 0)  -->
<svg version="1.1" id="Capa_1" xmlns="http://www.w3.org/2000/svg" xmlns:xlink="http://www.w3.org/1999/xlink" x="0px" y="0px"
	 viewBox="0 0 30 30" style="enable-background:new 0 0 30 30;" xml:space="preserve">
<style type="text/css">
	.st0{fill:#591639;}
</style>
<title>Recurso 12</title>
<g id="Capa_2_1_">
	<g id="Capa_1-2">
		<path class="st0" d="M4.1,14.8l3.4-3.4c0.9,0.7,3.8,2.9,5.4,3.1l0,0C11.9,15.9,9.2,18.5,4.1,14.8 M7.4,7.2h4.8
			c0.1,1.1,0.6,4.7,1.7,6l0,0C12.2,13.4,8.4,13.3,7.4,7.2 M15.2,4.1l3.4,3.4c-0.7,0.8-2.9,3.8-3.1,5.4l0,0
			C14.2,11.9,11.5,9.2,15.2,4.1 M22.8,7.4v4.8c-1.1,0.1-4.7,0.6-6,1.7l0,0C16.6,12.2,16.7,8.4,22.8,7.4 M25.9,15.2l-3.4,3.3
			c-0.9-0.7-3.8-2.9-5.4-3.1l0,0c0.9-1.3,2.4-2.1,4-2.1C22.9,13.4,24.5,14.1,25.9,15.2 M22.6,22.8h-4.8c-0.1-1.1-0.6-4.7-1.7-6l0,0
			C17.7,16.6,21.6,16.7,22.6,22.8 M14.8,25.9l-3.4-3.4c0.7-0.9,2.9-3.8,3.1-5.4l0,0C15.8,18.1,18.5,20.8,14.8,25.9 M13.3,14.3
			c-0.1-0.2-0.2-0.3-0.4-0.3c-0.5-0.1-1-0.3-1.5-0.5c0.5,0.1,1,0.2,1.5,0.2c0.3,0,0.6,0,0.9-0.1c0.2,0,0.3-0.1,0.4-0.3
			c0.1-0.2,0-0.4-0.1-0.5c-0.3-0.4-0.5-0.9-0.7-1.4c0.4,0.7,1,1.3,1.6,1.8c0.1,0.1,0.3,0.1,0.5,0.1c0.2-0.1,0.3-0.2,0.3-0.4
			c0.1-0.5,0.3-1,0.5-1.5c-0.2,0.8-0.3,1.6-0.1,2.4c0,0.2,0.1,0.3,0.3,0.4c0.1,0,0.1,0,0.2,0s0.2,0,0.3-0.1c0.4-0.3,0.9-0.5,1.4-0.7
			c-0.7,0.4-1.3,1-1.8,1.6c-0.1,0.2-0.1,0.3,0,0.5s0.2,0.3,0.4,0.3c0.5,0.1,1,0.3,1.5,0.5c-0.8-0.2-1.6-0.3-2.4-0.1
			c-0.2,0-0.3,0.1-0.4,0.3c-0.1,0.2,0,0.4,0.1,0.5c0.3,0.4,0.5,0.9,0.7,1.4c-0.4-0.7-1-1.3-1.6-1.8c-0.2-0.1-0.3-0.1-0.5,0
			s-0.3,0.2-0.3,0.4c-0.1,0.5-0.3,1-0.5,1.5c0.2-0.8,0.3-1.6,0.1-2.4c0-0.2-0.1-0.3-0.3-0.4c-0.2-0.1-0.4,0-0.5,0.1
			c-0.4,0.3-0.9,0.5-1.4,0.7c0.7-0.4,1.3-1,1.8-1.6C13.4,14.7,13.5,14.5,13.3,14.3 M7.2,22.6v-4.8c1.1-0.1,4.7-0.6,6-1.7l0,0
			C13.4,17.8,13.3,21.6,7.2,22.6 M7.2,17.4c-0.2,0-0.4,0.2-0.4,0.5v4.8c0,0.2,0.1,0.3,0.2,0.4s0.2,0.1,0.3,0.1h0.1
			c1.7-0.2,3.3-0.9,4.7-2c-0.3,0.4-0.5,0.7-0.8,1.1c-0.2,0.2-0.2,0.5,0,0.7l3.4,3.4c0.1,0.1,0.2,0.2,0.4,0.1l0,0
			c0.1,0,0.3-0.1,0.4-0.2c1.1-1.4,1.7-3,1.9-4.7c0.1,0.5,0.1,0.9,0.2,1.4c0,0.2,0.2,0.4,0.5,0.4h4.8l0,0c0.3,0,0.5-0.2,0.5-0.5v-0.1
			c-0.2-1.7-0.9-3.3-2-4.7c0.4,0.3,0.7,0.5,1.1,0.8c0.1,0.1,0.2,0.1,0.3,0.1c0.1,0,0.3,0,0.4-0.1l3.4-3.4c0.1-0.1,0.2-0.2,0.1-0.4
			c0-0.1-0.1-0.3-0.2-0.4c-1.4-1.1-3-1.7-4.7-1.9c0.5-0.1,0.9-0.1,1.3-0.2c0.2,0,0.4-0.2,0.4-0.5V7.3c0-0.1,0-0.2-0.1-0.3
			c-0.1-0.1-0.3-0.1-0.4-0.1c-1.7,0.2-3.3,0.9-4.7,2c0.3-0.4,0.5-0.7,0.8-1.1c0.2-0.2,0.2-0.5,0-0.7l-3.4-3.4
			c-0.1-0.1-0.2-0.2-0.4-0.2c-0.1,0-0.3,0.1-0.4,0.2c-1.1,1.4-1.7,3-1.9,4.7c-0.1-0.5-0.1-0.9-0.2-1.3c0-0.2-0.2-0.4-0.5-0.4H7.4
			l0,0c-0.2,0-0.3,0-0.4,0.1C6.9,7,6.9,7.1,6.9,7.2c0.2,1.7,0.9,3.3,2,4.7c-0.4-0.3-0.7-0.5-1.1-0.8c-0.2-0.2-0.5-0.2-0.7,0
			l-3.4,3.4c-0.1,0.1-0.2,0.2-0.2,0.4c0,0.1,0.1,0.3,0.2,0.4c1.4,1.1,3,1.7,4.7,1.9C8,17.2,7.6,17.3,7.2,17.4"/>
		<path class="st0" d="M15,14c0.6,0,1,0.4,1,1s-0.4,1-1,1s-1-0.4-1-1S14.4,14,15,14 M15,16.5c0.8,0,1.5-0.7,1.5-1.5
			s-0.7-1.5-1.5-1.5s-1.5,0.6-1.5,1.4C13.5,15.8,14.2,16.5,15,16.5"/>
		<path class="st0" d="M15,1.9c7.2,0,13.1,5.9,13.1,13.1S22.2,28.1,15,28.1S1.9,22.2,1.9,15l0,0C1.9,7.8,7.8,1.9,15,1.9 M15,28.6
			c7.5,0,13.6-6.1,13.6-13.6S22.5,1.4,15,1.4S1.4,7.5,1.4,15l0,0C1.4,22.5,7.5,28.6,15,28.6"/>
		<path class="st0" d="M15,0.5C23,0.5,29.5,7,29.5,15S23,29.5,15,29.5S0.5,23,0.5,15S7,0.5,15,0.5 M15,30c8.3,0,15-6.7,15-15
			S23.3,0,15,0S0,6.7,0,15S6.7,30,15,30"/>
	</g>
</g>
</svg>
